<mxfile host="app.diagrams.net" modified="2021-04-10T16:52:24.654Z" agent="5.0 (X11)" etag="7-TikQvlSe65XqOT0hBy" version="14.5.10" type="github">
  <diagram id="h_jFuktasmizUcm3KK_f" name="Page-1">
    <mxGraphModel dx="2249" dy="742" grid="1" gridSize="10" guides="1" tooltips="1" connect="1" arrows="1" fold="1" page="1" pageScale="1" pageWidth="827" pageHeight="1169" math="0" shadow="0">
      <root>
        <mxCell id="0" />
        <mxCell id="1" parent="0" />
        <mxCell id="UvNmW9uRSmQOysR8gcpT-1" value="" style="shape=image;verticalLabelPosition=bottom;labelBackgroundColor=#ffffff;verticalAlign=top;aspect=fixed;imageAspect=0;image=data:image/png,iVBORw0KGgoAAAANSUhEUgAAAkEAAAILCAYAAADvx0inAAAABHNCSVQICAgIfAhkiAAAIABJREFUeF7svQlYXdd57/1azPOMAIFACAkNaJ5neZBtWZ7tNE0z2mlumvT74mb4Otwmz3Pd2zTNTXvbmzZ1mvskzlPHTuw4thOPsuVBtuZ5QPMMEiAEAjEjIfS9/xcdjBCgA2aLvTf/lRyjc84++6z1W/vs/d/vtG65ok3YSIAESIAESIAESGCYERgxzMbL4ZIACZAACZAACZCAEaAI4oFAAiRAAiRAAiQwLAlQBA3LaeegSYAESIAESIAEKIJ4DJAACZAACZAACQxLAhRBw3LaOWgSIAESIAESIAGKIB4DJEACJEACJEACw5IARdCwnHYOmgRIgARIgARIgCKIxwAJkAAJkAAJkMCwJEARNCynnYMmARIgARIgARKgCOIxQAIkQAIkQAIkMCwJUAQNy2nnoEmABEiABEiABEKJgARIgARIgARIwN8ETpwqldLSM3LlSrtjA42NiZKszAzJzMx07DsGe8cUQYNNlPsjARIgARIgAZcR+Pkvfy0/+Kd/kyuXLzrWs+mT8+Vr/+1x+cpXvuLYdwz2jimCBpso90cCJEACJEACLiNw5cpluSUiXkJTpzrWs+b2SmlpaXFs/07smCLICarcJwmQAAmQAAm4icCVK7pkepiMiE51rFftUi2XL192bP9O7JgiyAmq3CcJkAAJkAAJuJLALa7s1VB1itlhQ0We30sCJEACJEACN5UABVB33LQEdSfC5yRAAiRAAiTgNwLQP/ZwUAg5uGunpoMiyCmy3C8JkAAJkAAJuI2AkyLIVJa3GkWQt+aLvSUBEiABEiCBT0DAe0LlEwz2hh9lTNANEXEDEiABEiABEiABPxKgJciPs8oxkQAJkAAJkMB1BNQK5KQ7TLPwvdYogrw2Y+wvCZAACZAACQyEAASQkyKIMUEDmRV+hgRIgARIgARIwFkCgVggxgR15cyYIGePOu6dBEiABEiABEjApQToDnPpxLBbJEACJEACJDDoBJx0hzEmaNCnizskARIgARIgARIYDAKMCbqOIi1B1yHhCyRAAiRAAiTgVwKMCeo6s4wJ8utxznGRAAmQAAmQAAn0SYCWoD7x8E0SIAESIAES8AsBh1PkPWhkogjyy7HNcZAACZAACZDAjQjc4qQDyHsqyEkaN5oKvk8CJEACJEACJEACQ0aAImjI0POLSYAESIAESOAmEnAyPf4mDmMwv4rusMGkyX2RAAmQAAmQgJsJUAhdMzsUQW4+WNk3EiABEiABEhgUAojXQWC0kw4gxgQNylRxJyRAAiRAAiRAAh4j4D0NJE5KQo/NHrtLAiRAAiRAAiQwnAjQHTacZptjJQESIAESGJ4ErnrDhDFB18w/RdDw/Dlw1CRAAiRAAsOOAGOCuk853WHdifA5CZAACZAACZDAsCBAS9CwmGYOkgRIgARIgARAwIPRyw5OHEWQg3C5axIgARIgARJwDQHEAzkZE+RBfUUR5Jqjkx0hARIgARIgAYcJjHBSqTi5b2e4MCbIGa7cKwmQAAmQAAmQgMsJ0BLk8gli90iABEiABEhgUAg47Q4blE7e3J1QBN1c3vw2EiABEiABEhhCAt5zWTkJiyLISbrcNwmQAAmQAAm4hYAVTHRQBDm5b4cYMibIIbDcLQmQAAmQAAmQgLsJ0BLk7vlh70iABEiABEhgkAg4nCI/SL28mbuhCLqZtPldJEACJEACJDAkBMwXdvUxJB1w5ZdSBLlyWtgpEiABEiABEnCAgKNxOw7GGzmAArtkTJBDYLlbEiABEiABEiABdxOgJcjd88PekQAJkAAJkMDgEXDSEuQ9Q5BQBA3eocU9kQAJkAAJkIA7CXSmx3tQqThIlCLIQbjcNQmQAAmQAAm4h4DT2WHeE1gUQe45OtkTEiABEiABEnCOgFmDGArcFTBFUJCH21NPPSXr1q+X+PiEID/h3c28p+W9y5o9JwESGN4E6uvrZM6cOfKNb3xjeIMYotFTBAUJvqSkVGov1Muc+YuD/IR3NwsdcYujldW9S8abPb9yRUT/7/vWGfLg+5FygH4isOadd+TUqVN+GpKnxkIRFOR0RUVFy9Rp0+VLX/5KkJ/w5ma4kISHhlAEeXP6eux1e/twkEAdQx+hAp6NBLxE4Pz583KxpekmdRkxQQ66w5zMPHOIEEWQQ2C5WxIgARIgARJwDwGzlTq7gKp7Bht0TxyUhEH3gRuSAAmQAAmQAAmQwE0nQEvQTUfOLyQBEiABEiCBISLgQZeVk6Qogpyky32TAAmQAAmQgFsIWMick3FzTu7bGYgUQc5w5V5JgARIgARIwF0EYAVy0hLkPQ3EBVTddYSyNyRAAiRAAiRAAjeLAC1BN4s0v4cESIAESIAEhpqAk5agoR7bAL6fImgA0PgREiABEiABEvAegatp8o51PDh/GIpDbty4UUJDQ2XEiBHqobtFEhMTZcmSJXJFq7seP35cDh8+LM3NzRIdHS2FhYWSl5cnYWFh1vOjR4/KiRMnpKamRkJCQmTy5MmSk5MjMTEx/R4ZRVC/kfEDJEACJEACJOBRAi6wBO3cuVO+973vSX5+vkRGRpoYwr8XLFgg1dXV8t5778mbb74pFy9elPDwcHnggQckNjZWMjIypKmpSdauXWvbVFVV2STce++9cscdd8jEiRP7PSkUQf1Gxg+QAAmQAAmQAAl8EgLJycny5JNPmviJiIgwiw7+QtxUVlbKQw89ZOLnxRdflNOnT8uHH35or+3evdusRNOnT5fPfe5z9u/f/OY3ZiUaiAhiscRPMov8LAmQAAmQAAl4hsDV7LBAlthg/+0HB7jB4uLiJCEhwR6w9MAttnfvXvs7f/58SUpKkkWLFsnly5eluLhYLl26JNu2bbPtp0yZIunp6TJt2jTbHlahurq6fvSgY1NagvqNjB8gARIgARIgAQ8SsJCd4OJ2BjK6VnVfwVLzzDPPdH4cLqyCggIZM2ZM52sQLXBrvf7665KammpuLmyDR1lZmUyYMEFyc3NN3ORpLFB7e7ucPXvWxBDiifBeVlaWWY8QS4S4IQikCxcumLDC54JtFEHBkuJ2JEACJEACJOB1Av0QCP0daltbmwUsw6UVaJMmTTJh0lUEwZIDcQPrDgKh8RzBzSkpKdLQ0GAfhbDp+relpcW2xfuIIYqKiur8DgREw7IU+GznG0H8gyIoCEjchARIgARIgARIoG8C0SpGHnzwLvnGN77RuWFPVpm5c+fKT3/6U7MCNTY2ym9/+1t55ZVXZNy4cde5tAKf72k/ffcmuHcpgoLjxK1IgARIgARIwLsEYAGyh3OhwAEnFKwyfbVARhgsOrASwQ0Gi9GRI0c6XVmI74mPjzcXFwQQrD34izghZI3V19d3fgW2gTUJrrH+iqW+e9rXKPgeCZAACZAACZCAtwh0iqGAKBrEv0HEGyGuB26zQIOLC64uuLLg4oIgwjb79+839xdcZoHYIIgmxAvV1tbKsWPHLA7ozJkz9nl8FiKov42WoP4S4/YkQAIkQAIk4EkCwQcMOzW81tZWC35G7BAsQhAyEDwIfkZRRKTJ470PPvjAiiVu2LDB4oNmzJhhafAzZ8604Og9e/aY9Qfp88gsQ8xR1zihYPtPERQsKW5HAiRAAiRAAiTwiQhA2GzevFl+8pOf2H4gfsaOHSt33XWXzJ49W4qKiuR3v/udPPfcc/LCCy9YGvwXv/hFWbhwoYkgpMYfOHDAYohee+01E01f/epXZfHixQPqF0XQgLDxQyRAAiRAAiTgPQL9jZnp1wiDMDTBenPPPffInDlzOncNIYPYILi7EPtz//332xIacJvhNRRWDGSLof933nmnzJs3T2BVwnMEWOPzA2kUQQOhxs+QAAmQAAmQgMcIdIQDBaFUHBwXRA2Cm/HoqUHUQPTg0Vvr6/O9faa31xkY3RsZvk4CJEACJEACPiEwtNLHvRBpCRrCuWlvvyJNLRf10SpX9N9o4WGhGiwWLpHhodLQ1CqtFy9ppHy7mfyQdhgbEyERuo2jJs2bxOTipTZpbL4oLa2XLKcgMjJMoiMjlEHITerBzfkazDPGWt/YIm06lyEhIyQqIkxioiJ0Tv1zaqq50CgtF9v02AzUpL3FjleM008NGSutOHb193nx0mWbQ8xntI4zVOfWTw3nnladUxy77TrusNAQidLfqZ/mFGfeizrGxmacb9sEP8nIiHCdz3AbL5u/CVAEDeH8XmhokjXr98mbH+6VuoZmFQK3SNH4UXLrvIkyd1q+vPzOdtm865icra6TCBVFacnx8pl758n0iaP1edgQ9nxwvvrg8XL5w7u7ZKOOERePZXML5Z5lU2VCfubgfIFL9gIxu+dQqTz7h41SUl4t6SkJOscT5N5bp0lyQoxLevnJu/Fvv3pXtuw9biIdgh3i4NP3zJWHV8z65Dt30R4g9PYcLJXn39gih06US2J8tCyb0zGfWen9T9F10dCu60p1bYNs3nPCjl2co8aOTpfbF0yS+/TYhZj3Q4PQ23fkjLyk59ud+0tM5C2bO0FW6bkoPyfND0P8eAy45/LPfdegzM2QiyCsFrt9+3Z5/vnn5fOf/7wFSyHN7fz58xY9XlNTY4FSaOHh4bJ8+XJLkUMRJdQVWL16tUWKo+okagugTsBtt91mqXZbtmyRHTt2XFNUCZHo2DcWXfv0pz9tAVU3Kuw0KKR72onegozOSpGV+mNLjo8xa8GO/adk3Y4jkqc/vuSEWLl76VS9Kwm1O5StejLadaDELjLTJ+X2tEfPvAbryGvv7zGL1hceRNR/iLy9bp/kjiqTkakJkqQXFj80WA3OVl2Qp3+3TmZMGi13LJwkuLC8v/mgTB6XZeLWL3fVtfVNMjozRe5eMkXHFG5z67eLiE6n1NY1yXOvbZY8/e0unDFWGtWai2N3Qn6GxMVE2sMPDcfu4ZNn5S29Sbtz0WRJUsF+rLRSNuw8Ysdyhv5Ocfx6uWE+W3T+Xnp7u8TFRskXH1pktWlWryuWgtFpkpIYKwlxHy/P4OWxou+40XbUiwAzsMfakB/BKHSEegB4QLiMGjVK8vLyTNSgPgACoCB6ECWOegAQNYgSR5rcpk2bZN++fbYQG8QPBA4OYIghCBvUIEDEeEDkoMokVqg9efKkBV3hdUcPiBscDJFqQsedFR6pSXFaL0HHWHFeYCE5rxfKcbkjVRDE248Q5mi4G06dqZbTZ2s8LYIg9s7X6ljKqmTOlDGycukUIwWRV3Gu1hj4RQQ1qbuvXMd0XC8eX3p4kcycnKvWgwrZomM9eqpS0tW65xcRhDnMHpmkVpFCX104uv6MW1ov6jF6QU6cPid3qTBYqtZLzO/aLYfk5JkqGZWR5BsRVNfQImf0XFNVUy9LdU6zdWwQ72cqasxyEhutrvnw2Buc5dz99kWtUVOhlnbM3arl0+xcBLfY+h1H9TxUY3PrJxHk9Gx4TwKJDKkIgmCBCIIlBzUASkpK5OjRoyaC0CBsVq1aJV/60pesIuTLL78sO3futMJKKIz0xhtvWA2BFStWyKJFi+wzEEoQSRBPt956qz3QIKKwCu1//Md/2Aq0+D5YgYayRWnsDx6BBkEGYRSpri4IutGjUizWAG2EvhejJ50RIbeY0PNya2ltsztKWAvSkuMkXu/AEPtUND7bLjCnyqpliv7bDw3WkXPn6yUjLcGELgQPXGBTJ+SYa2z8mAzJyew9C8JrDC6oywQCITY6UudVb0J0bgPHsNfG0lN/cTNSfq5G5zJGUpNjTQjEx0TJrMl5Ulldr1a/Ohmbk97TRz332jkVPw1NLVeP3Vg7N2XqcZyXnSrFh0+rJXOUWUq83HCTUqLnm3i90UxLiTMBi/Pr9Ik5dtMJIeQ397yX58uJvg+pUxeWmYqKCiuB/cQTT5jbCqWwe2o4MFFkCel1sPDA2gNXGf6NapGBlpWV1WPqHb4DAmrt2rUya9YsueOOO3r6miF9raauUUrVClLf3CIFagWK6BIgjADqddsOS6xeRLMzvH3RbNO5q1ZLEERd9FURCAGYlBAtl1X8NTS2Duk8DOaXN2vQN9wlEEBw+aEh+B1CCONEULif2vrtR+Rv/veL8sT3n9M4kk1yrKTST8MztzQsJEnqvg7E5YWGjjBBhLlu1rn2S0Pg96W2djtWAwH8uGmDwD1/oUkt15c9P1QEtsO9iRuxzhtO9RAkq7jDe7AK+a3hXOvUw4ushtQShMXSsEga4nNQMRKWH8T5wJoDV1V1dbU888wz5vaCywulslFECSIGcUKwAL355pv2/uTJk20FWsQUZWdnX1M+GwWVdu3aZft65JFHzL0WKLzU26QdPHjQ9ot4JbS9e4tl+qyPizv19rmBvG7ZQ3pyfe7VTZY9dPuCyWYxuOXqQne4U/lIBRCE0MSCUeY+83qDqO3wT388EjxHu6L/803DUHSsyDjpairGSchHo7Tp+syqeXKvuhRwocQF9I21e2SDxrfBIoRYIT80HJuYt2vd6B0XFRzTHjfSXjNFHRZn/Z1ec+Bi7Dik7cD2wZRizq4dI4ZrY/TB6K4fgsMxQdd/oetfGVIRBLcWRA+ECwKdx48fb1YhxPkg5gclskeOHGkCB1YgWH2wPdYdyc/PNxcYxBGsR1hFdtu2bQLxsmzZMiuhjSqUaIgDwnv4PAKrc3JybhgMDZGF+CR8L9qZsnL9zOCnS+IHCLPzB5sOmDl9SmG2zC7K68y8KKuslR37dJ0UzUZZNGu8mWZx1+LlFqKKAG4EuMCQaoyGcyruuuD2gzvQLw3WH1h+AunxGBeyUTBWlEHwUwpukbpHYDEIU2tts8bObN17Qmr0Lru0vMY3IigsRFPE1S2E+YNFEw2u6wZ1k2Ge8fBLi9BxhujNKAQt0uPRYP2B9RJWXD9kh4XofCIVHha8S21X51PHijEjYxVJKL5qXQWtrwY28MEMyQzjwh9YJRZByhAbW7dutYXU4B5D/A5EEITR7bffbjFBeA9C5tlnn5X169dbrA/igpBRVlpaanFFEFWIE4LLbOLEiZKZmWmZYOvWrbNtUKob1qJAtllf2CCU8IC1Ce3cuWpp1ov2YLfz6neGwFn9UbEFWc4uGiOjNLgUjHDh3KkCaN+R0xqcF21Be8gY83oL0xNLZppa/fREU1ffbFlxEAYIiIYoSE3y/hgDcwSxh8BKlDnAibVNT7S4gMK6h1ggv2QSwY0JAWBmdhVCiB9BvAjSqjFuv7QovWDCPYTAfggfXDjhBjtRek4yNT3eT0G0iXqzheyvczUNJhLgBoPrCDFusOxhjr3ecCOSnhJv5yEcq0hOwfkICSj47SYl+qeEhdfnyqn+D5kIQvwPgqCR4v7RRx/Z+ALZXVOnTrV/d20QNlhF9umnnzZ3GRqEAtLpYUHC44EHHrC4Ioio48ePS1pamgkgWJYgiOAKw37c0tD/bXq3/ObavZZVslxrU+DCCPcY7jKRgfHOhmK9UEbJE1+88+oJtsPkfq053i0jCq4fuJMenzdS3XuXpLzyglTpSRUWk23Fp2Tp7PG+cPcFSCB2ZKTWBULAbLla9TC/FfrvLTrvy7UeFE7AXm+wErSqEIArN1TvrCFkmzXe79DJChMMI1MHtqaPG7kkqDDI0Zg8xLTBSossTjzW7zwq3/j8CruB8UvryEyNtmSFsrO1ZqFFMP9RjfNC7af4WO+XsYBFKz87TeoQ8I5zkc4lLF2b9xyXR++arWUQhjZ5ZrCPpQ5Xn4PmoGt8p4Pde2f2NySKAJleGzduNFfXt771LVm5cqWNDqLgrbfekuLiYkH9IFh/Ag2Wo0OHDpk4Qno74nzg+oK4CaS7Y7/IAMNriPmB9ec3v/mNTJo0yQQSTJ9uajihwGWwbvthPXkmyj/89FWthRRqJ9mFMwrkWY0ROqzp1Kig/L1/+Z2Zn3GSXaxCYYk+vNog4DCWR+6cpamoR+Q7/+sFFachkpWeYBknCCL2S4N7CHP2tT+5TV5bu1uee32TVRZePGuclkBI94UlqF3FD7LCENOG9H8EP7VpQC0y/+ZMydNxZvhlOs3ShaDZxx5ZLJt2H9daV7utuvD86WOlUDP9Ev1UU0ZjEieOzbI6Zv/2qzUWJA0ROE8LuSJDzA9Zf5hPuMM+c+982ahC9tv/+LxZNBF2gLEn+8kSZAro6sM3v8hPPpAhEUEQMHBpIY19wYIFMn369M6RQPzgATGEQGhYihAgDfFz7tw5ycjIkLlz55oIgih67733NKj4osX4QDQhDgiiB/FE+CxcZNgW7Z133un8HsQUIRYJ2WRDVSwRqbWovwHXEIJHcYRCSKMCLS6cKDoHsYM4mUBmEcztfqhKi5PPbL1Awh2EjDiMMVdLAsBC5LdlMzCfKJKYrim4F9TsjqB3XETSVST4YZkF/H7gKkGaODIXLXhYQ0hQMwhZjrjI+KlhPEvnjFd3X4zW0GkwCwmOXdTRgZj3S8O5COeaFQsnqzUz3jLjYNkbk5PaUa4DG/igIYZtgYpYCNhytXrBmpmn8zlGf6N+itnzwVQ5MoQhEUE4acJ6g/gcZIV1bXg+f/58Ezhwf0HMoJYQrERwZc2bN89EEPaBQogIlK6qqrI7NGyD92bPnm1uMggniCy8h3R6PAIN8UYQT0PZUIEVIgiPnlq+D7LAehpX4DVUnMXD7w1xFblaXRgPPzZYuyBml+tSIMOh4cIIay0efm+Ii0ElbDz82nD8Quz54eZyqOfIi7J4SERQQkKCfPvb3+5xvgoKCgSPYBrcaAFXWk/b//mf/3lPL/M1EiABEiABEhhmBKwoiRkF2D4mMCQiiBNAAiRAAiRAAiRw8wlQBF3LfEgrRt/86ec3kgAJkAAJkAAJOELAg0YmiiBHjgTulARIgARIgARIwO0E6A5z+wyxfyRAAiRAAiQwGAQ0HshZd5j3TEEUQYNxYHEfJEACJEACJOABAk6KIO9JIBG6wzxw0LKLJEACJEACJEACg0+AImjwmXKPJEACJEACJEACHiBAd5gHJoldJAESIAESIIFPTAD+Kid9Vk7u+xMPvucdUAT1zIWvkgAJkAAJkICvCJgGYrHEa+aU7jBfHeIcDAmQAAmQAAmQQLAEaAkKlhS3IwESIAESIAFPE3A6Rd57cGgJ8t6cscckQAIkQAIk0C8CHa6wfn1kABt7LyiIlqABTDM/QgIkQAIkQALeI+CsJch7Eoh1grx3DLPHJEACJEACJEACg0KAlqBBwcidkAAJkAAJkIAHCDhprnFy3w6hZUyQQ2C5WxIgARIgARJwDQEPCpSbwY6WoJtBmd9BAiRAAiRAAkNNQIUQ6wRdOwm0BA31QcnvJwESIAESIAESGBICtAQNCXZ+KQmQAAmQAAncfAK0BF3LnJagm38M8htJgARIgARI4KYTcH7FDO8FHtESFOxhaHPrbI2FYLvi5HYY5hX9n7Or7Dk5guD23d5+RS7rYzi0EJz5vHdu6vfUDIMh9psJP0AC3Qk4aQlyXmR1H80nf04RFCRDnGBD1W4Wgf/4uEEWXFFx0H7F3wKhtumS1OljOLS0+AjfH7eYR5yARwwHtTccDlqOkQRuEgGKoH6B9v+9JkbY3i8m3tz4ioo8vwu9zpnxt5715gHIXpPATSegnoxh4M3oL1Z/mzX6S4PbkwAJkAAJkAAJDBsCtAQNm6nmQEmABEiABIY9Af87NPo1xbQE9QsXNyYBEiABEiABEvALAVqC/DKTHAcJkAAJkAAJ9EVAsweczA7r66vd+h5FkFtnhv0iARIgARIggcEicNUN5qgI8mCOPN1hg3WAcT8kQAIkQAIk4GYCDscDObx7R8hSBDmClTslARIgARIgARJwOwG6w9w+Q+wfCZAACZAACQwCAVhqHHWHDUIfb/YuKIJuNnF+HwmQAAmQAAkMFQEv+qwcZEV3mINwuWsSIAESIAESGDYEPCiwaAkaNkcnB0oCJEACJDC8CTBFvvv80xLUnQifkwAJkAAJkAAJDAsCtAQNi2nmIEmABEiABIY7AZTxcTYw2nv+MFqChvuvguMnARIgARLwPQGTJw4XM/SeBBKhJcj3hz4HSAIkQAIkQAIdBJy1BHmPMi1B3psz9pgESIAESIAESGAQCNASNAgQuQsSIAESIAEScDsBx4sletAfRkuQ249a9o8ESIAESIAESMARArQEOYKVOyUBEiABEiABFxLwoLXGSYq0BDlJl/smARIgARIgARJwLQFaglw7NewYCZAACZAACQwiAdYJug4mRdB1SIb2hXPn6+XAsXLZuveEXLlyRXJHpciU8dkyIT9zaDs2iN9+qe2y1NY1ybsb9wvGi4ax1jW0yPi8kTJ9Uq799UI7e65Wtu09LmVnz1sRsokF2bJodqF1/eKlNjlyolz2HiyRxqZWiYmOkMmFOVKYnyXhYR0/vUPHyuTQ8TLlUCchISN07HkydvRIiYuNcv3wt+87KXsOlkpldZ1ERobLvcunad/Tr+n3qbJq2bHvlOw9XCqff2ChZGckS1hoiOvH1lcHL166LKXl1bJ5t867zn+0jn3i2CyZPnG0JMVH9/VRz71X19Asx0rOyfodR6Sl9ZKkp8TL5HFZMmNirowY4Q+/yuX2dp3P8/o7Pikny6rstzlRz7fTdD7Tk+M8N2d9d9jZZTMcLkPU99AG+O6Qi6DLly9LXV2dHD16VC5cuCB4HhYWJuHh4TJu3Dg5ffq0nDlzRqKioqRdD9a4uDjJysqS3NxcG/LJkyelvLxcGhoa7PmIESMkJyfHtmltbZVDhw5JU1PTNXiam5slISFB8vPzZdSoUfYZNzQIAQigD7cekkq9KIaFhkpF1QU7+eToxSM6Ktzhap83hwLG2Xa53YRQdU2DXNGvvXjxkry9fp+sWDRZCnK9IYBAq6nlopToifO0XuzLK2ttXAERVFZxXvYdPq1zekZioyL1RFtl8xcXE6niNk3H3yjFh0vkwNEyEwatygDCcopxAAAgAElEQVQwRug2U/Ui4/ZWpQL2WEmlXjiq5UxFjcxU8dpVBLVebJNDKgLfWLvbLqKY28y0RM+LoMamFnln/X45eabK5gzi9VjpOUlJjJEYFUTh4UN+Wh2UQ0d/piYO8LusULGHYxfno3M19ZKfnSbxKtQxdq83iNq1Ww7J4RMV0th8UUJDR+hvutp+p/GxkRIZHub1IXb031LD/DGUwRzFkP9aIYD27Nkjv/rVr+T48eMmgmJiYiQ+Pl4ef/xxeemll+T111+X8ePHy6VLeieSni533nmnfPaznzUOq1evlg8++EDOnj1rP9KQkBB58MEH5a677pKqqir52c9+ZiIq0C5evCgnTpyQyZMny9e+9jUZOXKkCS43tEv6Y9xefFLK9GL6t392ryTrSfUnz70n+/QiObtojIqDdM9fQMAZd1qZaQnyZ5+51bDjTqz6fIPsV6tIgVoSxuSkuWE6gupDcmKsLJ4zwebl5be2XvOZnftPyvnaBlk8e4LcsXiqvLdhrxw9WSE7ik9IdmaKnXTLztZIvo750XvmS4leVF98Y5Pgc0UTRpsYcnMr1LtlWAbOX2iUf/7F6uu6erb6gsASVFvfJMkJMRKqv02vt8sqcqt1Tl96Z7t85VNL5fYFE9UadEG+88MX5PDJszIyJUFGpsZ7fZjW/zY9F2NMH207LP/wzYftd/nWR3tV1O4x0TdhTIbEqlDwcsONdUNji7z2wW65e3GRPHD7DGlWYfudf3xeDulvNSczWUaNTPLyENn3GxAYUhEEi8CmTZvk2WeflenTp8tXvvIVyczMlJaWFrMABSxCd9xxhzz55JMmkH75y1/Kvn375MMPPzRRdOzYMVmyZIncd999JoJqampMRKWkpEh2drb88Ic/lLa2NsMAy9Du3bvt+2AFWrx4sX2HW1qJmthx4slM7ziR4i5rwphMOdBeJjsPnJLcrBRfiKDuvGFy33dUrSV6Qh2ZmmB3X15puFssyM0wqw7uILu2E2oliVYX2BQVNNAzReNz5HjJWTl26qwey1fkkFqIcDc9TucYIip3VKoejyF2Um5QJnCJubm6Ky4OCdrHFr1o9KTXXtcLCwTvioWT5b9e2eCVKe2znxd0XkrUOpKaFKu/00RJUPdXs1pql84eZ5bA0+oW9YsIOqtWnwsNTZKl5yOMNSYqQkareB+fl2HuetzIeF0ENaib+lhppSTERdkYk1SshzQ2y/zpY81SDWufn0SQGYPcfW/V5+/PiTeHVASVlZWZVQYiZcWKFVJQUGACBs8hYqqrq/UiEm3xInBxWYyMusHgzsLn0PBaamqqvY8LRlpahxUBFiEInIyMDNsO+8T3vffeezJx4kRZvny5JCYmuuoigztqjAFxBaFX4yaSEqIlIiJM4y7qzWLix1ZT2yjb1AI2Tt1gOLGGuMQ9GQxruFIj1P2BPncXLBB30XrhgLUILSkBf2/R2KdmO25hJYLoS4yLsc+GqWCIjoyQdn2vXoWQ2+OCINzQ5+6xIU3qUsCFBWOYqPFP4OOXBtc0Lo6wbME9jXmH+wsXSlhwGxpb/TJUi9GDqyhFBV+4inPMM0QPhEK5usfg7vR6wxjgksfNCGL2cOMJiyUE0SkVQBfqm70+xC7971A/3c9TPhrggIYypGcnuKkQB4T4HcT/QPCghWosTHJyslluulpqYLqEmMHfyMhIi+s5cOCA7Nq1yz4LMQTrDwQU3u/aKioqzG1WWVkpy5Ytk5kzZ5rrrLeG7U6dOmUWKbQjR45I1qjs3jYflNfxg4RKD+/ig8adNH6YTc0teuEclK9x1U4gBqpUBCHI9qEVsyRDY0b80i6ZBfJKZxB0IFakwzJ5xS4iEFG4wAQa5hsB1Yg1wXx77a4NAq76QoO8va5YMlXgwYVbo+LeLw2W2ladn0i9MQmI9RG3jNCYxXBBwD8efmk4DnGujdKxBi6csHbieG1puWTveb1hDBC2EOqhV+Ob4IaOigzTm84rvprPjrmiGaj7MTukIgiuK7i44ALrLTgZFwzEDcHthXgeBELjM7DmwPqzZcsW2bZtm4khuLimTp0qs2bNMlEVEEIIjN67d6+8+uqr5jqDAILI6qtBNK1fv94eaBBEqenOBuxC7EDnIO4g0PBDhFDAD9RrF8S++AbewwkImVElZeftgpmW3GE1Ceazbt+m45i+xSx4uGDihItTEC6asAjZfOvctuscfzzf7faaBZx68HyFuLYKjZFZ/VGxfO1PbrW4JsTMXNILKiwlo9WlC6HX3Xrk9rkM9A/jwVxCDGGeOpoG+re125i8Oq6e+OMYhPhBsH/nSPVYxTkpRMWQHywKGAPGiXMuBDwa/ov5xPnWT/OJsXnwlNLToTmorw2pCApmJBBA77zzTqf7C+IGQc8QOrDk/PVf/7W9B5FTXFwsP/nJT0zoPPbYYzJlyhT7CgReI/YIBzxihyCebtQmTZpkQgrB2Wg/+tGP9MfRu+XoRvsL5n3EV+BCCXdJoCE+5KJaDBLVReb2QNlgxth9m9MaGIyLY74GXaYmxekF0j0xWt372t/nSJ3GWadR5zA+LtpifXCChdUAJ1i4uy7pxbRBs40CDan0uNuOj9F4oP5+oQu2b2xuNRGEoOh/+vlbJnjwGtwnP/jP1+TPP3u7PHDHTB2fd+K+umKNUCst+l5zoanTHQTrT5VmTEVFhKsFwR1JFoNxKCAGCDdf59VSGxDqzZoNieMY7kCvlzoAI7hzEX6Acy5uyNBwDoarGscuGPiq6UnFyZtpJ/ft1DwMqQiC2wpCprS0tFfTamxsrMyfP1++8Y1vGAO4wBDnE3CT4Tkyx5DlNXv2bEuhr6+vN0FUVFQk586dszggZI8h8Brbwd12o4Zt8EBqPlp4eIT5x51s2RlJdpdZqunGSD+O0wDhIxpEW6MxCItmjrOgWb+1E6erLKB0gQYixuoJx4s/ot7mJFfTiOs0pmD/kdMyb8Z4TYU/Y8d5Xna6WT7Ha3bNQc38O1ZSIRMKRglqDl3UYP+EuHiJdXlQdG9jjtW4ijlTxsj/+dvP2k0H5nPfkTPyf3+7Vr786FJZMKPA3CtebQjaR/wPRA8Ch3HxvKDZbxt3HpN7b52mQcT+ceemp8SZGIeArVRRC5cRblqOasD/w+q6dnvMWjDHWIzekORpQgJif86qeMdcIk1+q9YMmjct3wLB/db8YMEbzDm5sRoYzG/rti/E78AttXPnTrPkwMWF1HhkfdXW1lq8EBpq+SCOp2uDS+z8+fMmhiBUEFcEtxpEDtxfyDBDTNGbb75pQmjChAkmprrHCjk4vH7vOk5POKiRU613Xs+9tknvKiOsXgVOunAV+SHFuCsUmNkRfFilgYmrtNAeAk291iBWUQwRNYCOnizXC0WYvPbudinQDJo8FUHH9YKxaecRE3qoJ4Qg6SmFo03sjh+TpfV1zssxTUN+ZfUWOwHHx0ZLwdVsMbezKFZxs08F3n6tbYW6Vqs1fRpWn0IVd8vmTugUtLAmIOAbxQSz9Vj2sgUB1gGUBZihRS2LVdSeUVGAm6OoqDCrnYOsMb80ywZT9+UYHdfrH+yxwGEkaMAKNHFsplpJvPd77T43qMWWohboaRNyNBOsWp59dZNtAo81snH9kunXfdzOPfee/XpIRRAECzLCduzYIe+//76JHmR3IfYHwgXZWxBEPTW8DgsSrD4QQgiMxl12SUmJiSJYi1BE8be//a39G/WFUIco0LBNUlKSBVH3Fo/U0/c6+Rr8zyg4h4BZ1OOACXpyQZbWCMrTQmz+ObkGGCJWBneXGWnxdlKFgPBagyUAlp5TKnBu0TMnXCPb9hyzCsoTtIow5rBU39uy66i6xKJkptZ7KtTXMddZKgiQHo9so+1adRri4NaFRVqR19kA/MFijKrJO/eXaMp4tWRpQDsywmKjNXsoPsburgMRCBD3qHoOK5HXYyxwF4106kfunGW1ZbZoqjgyi26fP9Fcun5yn2CsKH5595Ip8sq7O6zqOSwji2aNM3HgpSzO3o55WCoR5I6bsNUazI/U/0h1a86fNlZvUrRyu0fdtr2Nl69fT2BIRRB+ZLDOwKX14x//WF544QWz4sAFBqsOXGCw3PQkhCB4IJqefvppsyIFagEVFhZaIUXE9EBYHTx40GKCtm/ffs3osd2qVavkj/7ojzQF3T1+XxTnwuNTd8/R/iKCpMOlcP3Uef+VCL2r/sKDizyZBRWgj0KHX//iXR1T1Rk++vGcZWfoRUOLJQZaV3cfjv9508fJXH0EPtr1fbfP8MqlU/UCOfXqcdo5wutcmlMKs+U//scXrnvd7ePrrX+4aM6YNNosWz3Na2+f8+LrsGzdsXCSFoWcdHWe/Xc+gqUSIr1IH178HfbruHI4JqhffXHJxkMqgsAAIgeuqr/92781AQQ3F+KEUMUZbjAEJ+O17g2fmzFjhrnBGhsbOzM1YBGC1QdCauXKlRYXBMHUPQ4I28EV56ZiiV3H2HEx9J5psfs8BfPcSxf+nsZjs/Txf67b5Ebj6+Oj1+3LbS8Ee5zeiIHbxhVMf/w4pt7GHew89/Z5L7zu5d9hMHwxPjyctMZ68Tcx5CIIggeCBZaZnhpcYj01uLDwXm/v4zNwt+HBRgIkQAIkQALDncDwuK3u3yx7f/W7/o2XW5MACZAACZDA8CRAFXTdvA+5Jei6HvEFEiABEiABEiABRwi4zWWFTG6EvMC7g4QlFCFFchRigfFvq6qv4TFdQ1cC71sBWh0Q4noR8jKQ9H+KIEcOM+6UBEiABEiABNxGAIHt7jEHQcT89Kc/tTI5iA3+1re+ZRnfb7zxhrz22msW7ztmzBh55JFHZOnSpRYvDHH00ksvyZo1a6z+H8JpUBwZSVYosdPfRhHUX2LcngRIgARIgARI4DoC/dFXsABt3brVlqRCSRxkicPy8+GHH1qpm2nTpkleXp5ts3//fiufg8LIKKmDZbRQ+mbx4sVW+gavIVkKQqm/jSKov8S4PQmQAAmQAAmQwIAJoKQNih2jjA1cYLm5ubYviKCNGzdKTEyMfOpTn7ICyrAWQejs3r3bRNGGDRtsOwggFFHG6hAolQMr0EBEEAOjBzyN/CAJkAAJkAAJeISAesFgqXHygeKwDQ0NUlZW1vmorq6W5uaP18MELWwDaw6sQBBAKIUDYYPYIFiBEAME9xhcd1gnFO8dOXLE6gGi7h+KHCOjHNYfLIgOtxkWPe+pnM6NZoeWoBsR4vskQAIkQAIk4BMCTsYENTU1yiuvvGLWmkCbPn26rFixQm699dbO11DE+MUXX5SHHnrIrD67du0yAYMF0xEAjUBnxP9A/GBlB1iDIJzwFxYkiCRYfjAWbBdY4xNiqL9xQRRBPjmwOQwSIAESIAES6IuA0yHRERGRsmDqArnvvvs6u4GixCh8HGhY7urkyZOWzTV58uTONULxPkQOWtelrAL/DrwHsQTx03WbgLALbNP5ZUH8gyIoCEjchARIgARIgARIoG8CsOKMHTtW7rzzzl43hLsLgc5whb311lu2WDqWvoKFZ/369VJZWdmZHo+dwJUGkQPXF/5itQe4xRBYjQbhE1haayBLYFEE9TpVfIMESIAESIAEfERARYST7rBgLE0QLKjzA/cW0uDxF9lhcH1hjU88b21tNdcYXFtnzpwxqw+yw/AXS2VhiS18BktkYQ1RWIcggCCU+tsogvpLjNuTAAmQAAmQgEcJIDDasRbEvpcsWSILFizoDGJGfBBq/sBFhjVE//Vf/9UsO4gTQgYYssXQkCmGWCAESuMzsB6hhhCsRxBL2dnZAxJ4FEGOHQ3cMQmQAAmQAAmQQFcCCGTGI9BgvYEbDTFCsOasWrXKRBGKKP7yl780QXTXXXeZ+IEIWr58ubnM4Ep7++23zS122223WbHEgTSKoIFQ42dIgARIgARIgAQ+MQG4uebNm2eFECGEkPoOdxisO3CbIR1+9uzZne4wBFnDQoTX4TKDcFq4cKHk5OQMqC8UQQPCxg+RAAmQAAmQgPcIOBkTNBAaEEF4BFpcXJwsWrTIHj01WJFg9Rmo5af7PimCuhPhcxIgARIgARLwIYFAoUQfDm3AQ2LF6AGj4wdJgARIgARIgAS8TICWIC/PHvtOAiRAAiRAAkEQCCRuOekOczTzLIgxDmQTWoIGQo2fIQESIAESIAGPEXBSAHkMRWd3aQny6syx3yRAAiRAAiTQTwJetNb0c4j92pyWoH7h4sYkQAIkQAIkQAJ+IUBLUD9m8oro/7S0t99b2+Ur0u7zcb6zbq+89VGx36fSxvfNL66QcbkjfT/WESNukdCPa7D5erzD4TyECaT7ZvAPYyeZXpEgSkYP/pA+0R4pgoLE53/p0wEC47ysC9K1+3zA+w6flj+8sy3I2ff2Zp+9d76MyUn39iCC6P0w0T/D4kYsiOnmJiQwKAQoggYFI3dCAiRAAiRAAu4mADuNozFB3jMECWOC3H3MsnckQAIkQAIkQAIOEaAlyCGw3C0JkAAJkAAJuIqAWmqcjQly1WiD6gwtQUFh4kYkQAIkQAIk4GECHnRV3QzatATdDMr8DhIgARIgARIYYgJcO+z6CaAl6HomfIUESIAESIAESGAYEKAlaBhMModIAiRAAiQw3AlYbpijMUFeJEwR5MVZY59JgARIgARIYAAEnEyRd3LfAxhqUB+hOywoTNyIBEiABEiABEjAbwQogvw2oxwPCZAACZAACZBAUAToDgsKEzciARIgARIgAW8T6KgY7WSuvJP7doY9RZAzXLlXEiABEiABEnAXASuW6K4uDXVv6A4b6hng95MACZAACZDAzSDgsADyosCiCLoZBx6/gwRIgARIgARIwHUE6A5z3ZSwQyRAAiRAAiQwuASuVglinaBuWCmCBvc4495IgARIgARIwLUEnFxA1bWD7qNjdIf1AYdvkQAJkAAJkAAJ+JcARZB/55YjIwESIAESIAES6IMA3WF9wOFbJEACJEACJOAXAh11gvwymsEZB0XQ4HDkXkiABEiABEjA3QSsTpBzefJO7tspsHSHOUWW+yUBEiABEiABEnA1AYogV08PO0cCJEACJEACJOAUAbrDnCL7Cfd75coVuXJ1HwHjpRdNjV0xYEzdW2BMfb3X/TNuet7hY7/WvIxRdh0PxhjYooOAzm0XFB3W6Wu36YmHm8bdvS8f91fHoYPtGF/HMdwTo+6f9+LzwG/UL7/Pnuag6zzi/Y6xdsxxT9t79TU/nm+vmwv7IXLZjO5cKIK6Exni55cvt8ueQ6flF7/7SNouX5b29iuSlhwns4ry5O7FRRIVGT7EPez/1+MEc6ntsvzXK+tl/5EzgjFiXEXjs2XJnPE2ppff3iYnTleZeAgNGSHxcVHyqZVzJT87XWKiI/r/pTfpE7OnjJH/93O3S8vFNh1Tx7jKKmvlX375tjQ2t0pBbrosnjVeFs8skHbt0+ny87J59zFZvW6f9TA1KVbmFI2Ru5dOkciIMHvtw62H5Pk3t0qbMnN7w3ydraqT/3h2jcUaLJ1TqMfqGNm484hs2HFETp2pkvycdPn2l1dKtM5jyAjvG59bWi/JwePl8tr7u+VYaaXEx0bJvGlj5fYFE2VkSrzbpyzo/rXp73TL7uPy69c327F4WX+zWemJMmeqHq9Linwxlxf1d1tRXSe/fm2TlJSdl4uX2iRaz0cLpo+1c9OokUlB8/LChrjV8vrN9GBzHlIR9Otf/1oOHz4s8fEfnzimTp0qU6ZMkbq6Ovn9738vOTk5smDBAvuLtm7dOnuvqKhIRo0aJeXl5bJ37145ePCgvY8L0ejRo20fBQUF8uqrr8qZM2fk0qVLnexaWlokJCREsrOz5dFHH5XwcPcIC9xFJyfE6Ek1X0aMuMXEQvm5C7J+x1GZMCZD8kalelAI3WJjGZc7UuKiI81ScPnyFdl9sESSE2NkZGqCnK44L/ExkTI6K0Vfi9UxhklKQqyEhoYM9jE/qPtL0AsgxvXi6m1Seb7OxN6F+mb7iwvi1MIcGZuTJh9tP2Lir6GpRbertz7gZIR5njIuWw6dqJC6xmYVgCFy8kz1NZakQe3wIO/snI5l1/5TUqHH6KW2NqmuHWXjiggPUwGYIWfO1siZyhoV9CoBrzcEDnJvnN8dLCN1Dc3yu7e328Vy3tR8vXBelnc37pcx2akSq0IvJsq9or0/hPA7xQ0YjlGI18t6bi1REb9p1zGZNDZLMtMTJFLn2cutXQ9KCPnMtEQbK35/+I1+sPWgpKbECX7fsXpe8lPrsDw7MyIn9+1Mj0WGVAS99dZbJmCWLl3aOT4Ik6amJikpKZFnn31W8vLyJCIiolME7dixQ8rKyiQlJUVGjhwpmzZtkm3btpkwCgsL0zuWto6DOjNT8vPzpbKyUkpLS6W1tdW+47JaV7Zv327b3H777fbcTW2EnmyyM5Lk0btnS0RYqN19vb2uWLbsPWFiKEMFg9esQfhh4CS6YEaBjNAnIWrpgUjYse+ElOlFMjI81E4+0yaMlvm6DYSQl1rLxUvy9vp9cvhkhbTqnWWgFeZnSq6OBULhuVc3mRAIDwsxFhAKELuTCrJM8D3z+w12Rxqmog9aAeLX7Q1zWFpeLbsOnJKxo9NN7KDBolWgwnCyirvaukazlvilXdSbqUqdpx37TslXP71cls8rtN/lRrXuHS89Z5YSv4ggHKdjVMDj9xiOc5GeK196Z4e8/sFuqai6ICl6A+N1EYQxxqnIWT5vgiTFR5uwhdBbo6IWVtsL+hv2kwjqcGf65dc4OOMYUhEUGhoqy5Ytk3/5l3+5ZjS1tbX2PDk5WY4ePSrr16+Xe+65R60CH3cXIgaC54033rDtnnzySUlNTbXXamr0zlP/wsLz1a9+tXPfsBLhvb//+783UfTAAw+YcHJbg0iA5QTulOaWS3pn0iohetGEVeQWfd2LDRd9nEghEhqamqWl9aJZgzBWnIgwnxATuAtraGyxsUaoOPKC6RZ9jIkK15NplPb7olodL+ujTWZMHG2iZsPOoyZcA25BMMC4J+Rn2LyWnatVK1CLXTzhAsXnsa3bW+2FRnV3VZsF7N5bZ0jrtkPWZcxbQMhGKRc/tbqGFimtqDE35sjUeHOFNbVclIXqPqnQeYQrFMLXLw2uady44HfZrOPEOQk3ajiuvfDbvNE8YBy4GcEDDb873JSkq1WoHeckdX2y+ZvAkIqgvtDiBwarEP42NzfLrl27zAUWaDhY8frFixdNyMTExNi2EEoQRT1dROrr6+Xpp5+2O5p58+bZ/uAWc1tD3+v1ovj9p16TYo2hwY9y9uQxMlHvSnDX4tUG68a7G/fJb9T/jgvnhDGZagkZZS4xuBRe/2CXWb1gmp5SmC333z7TLjIQhG5tkCpwgXzrsbvshIm4pg+3HZaP9JGCC6Wa1CF4/tsfLTOBA7fm+5sPWhxNurrLECeTk5UqRQXZdse5T+d7rcYEbVXLn9vbuu2HdRy18oDOU5gK3EDYrNv7/Un616pCHb/NJL1oQuyh4UKakhSnlqBKEwp+ajgXwfL1/Z++JkdLEP8UqfEyBeaaj/aJ26/rfOE3DNfu8dIqWbFwsv1GfdX0GglRy/YxgSEVQbDWbN68Wf7u7/7OeoTYIMT/FBYW2nNYchDbk5aWJq+88orF+gQaBE9kZKSMHTtWDh06ZPuA+wvP8XnEC3VtsABBSG3ZskVuvfVWWbRokURFRV2zTdcnx48fl927d8u+fR0BrJvV7TZx8scirNcPDsIbNjb1ta/UYNlpE3LkVFm1VNXWS426FiCCQiK8GVyK316hCp9H755jY8EF/7xaE7Izk+We5dPMRQahdE5Pusf0hPuRioE5GnORkZYwCFSd2cWxkrPyb8+skVqNA8Jdc+6oFD15TlJxcEGSNLgb1iG4wRBDkqaiaHRmityj8/r0S+vtIjoyJcGsRjC/4+Q0Y9JomTMlT84qA5jjcTfqtobYppMa8Aw3H8ZXmJ+lLoTq4aCBbD4QG4O5/tgSgpuvEXbsesGN2Z/jCWPEOef+26abGDquIr+6tkHO1zWZ8A0Iwf7s063bIvh7/7EyefW9XTJf46Dg0oV7zG/NSQ3kRXk1pCIIBxdcVBBDaLDQ4HnXBkGTmJgozzzzjMUCwfqDhh8nRBLcaTDPnjhxQhobG819hniiOXPmdFqOYC06cuSIIAYpU2OFZs6cKWPGjLnme7o/wR0Q+hKIGWq/cm2/um8/2M/D9QIJPzWyFeBO+f2anRpzclYS46I7s4gG+zud3h/mDLEjY7LT1C12SX5SvUaqa+qlUd19CzUWyO4s9Vd08Fi5BQlvLz5hMQluFkFnztbKy2t2mMsS7r5bdc7G52WoMMjQWLYwuaBBtCc0VuTND/daoPSXH11iwdKYX1i/ICgQX7Fmwz4Vge0abJqorpY4zahKs6BiUZeh2xosWodOlFswO6wgm3YflVLNrDl5+py5NvcfPSMTNXD2Y5HgthEMvD+IXUOsnrlzr56rcG5oblaLtLLAw28N2ZkrFk22cxECwN/ffMiy42AB9YsIgrg9qMkJsMDixuyPNDMVbk1Ycdn8TWBIRRBcV7D8BCxBAdSBmCA8hxUIVp3Y2FgpLi6Wc+fOXRMbdNttt8mMGTMElhsEWa9du9YyzpARFnCfnT171oKhYQX6/ve/L5MmTbqhGwwWJTweeeQR69bf/c+/t5OA0w0/RggwpDLCDYSTKoQPXCtI4URWRroHQw46xG1HfRGMC8GzyApD4CxcYxAGI3B3rYARcAmxtEaDjd3sk8cdFaw8DY2tZiFArE9ldb2KgxrNNIm3+AmY1mHJ00mVKhV8iK2w8asIqq5psG1hUWnS2C9sA0EUre7PVGXgVhEBa0e9irsL9U0WA7PnUImO9aKcVwsBxGDWyESNd4IIcvrXcvP3j+M2UQNocaFs0jFDCCHN+rQKVtQjAaIAACAASURBVGQ3xsb4IzMMZHs6FyXFx+j5KMqCwCdrUL9cjaW5+TMxeN+I4xnWLQg8BPrfNn+izJqc67kElGCI+PAnGcyw+9xmSEVQnz3r8ibcYAhifuedd6S6ulomTpx4zUcTEhLMbYbX4er693//d9mzZ49tA0GxevVq2blzp3zqU5+SCRMmmKBya8NFH1YS3HEiUBYnWZihD+tdyv23zfCkeRbWDsRR4KKIiwjM6BCUyKZCzE+CulQghhL0BBuiAuGcioXiw6c7YmZcHFiLOQrc+WPe4BLJSItXS9BI2ft2qWY5tuqYoq1W0Lbik5KqwZYJKmj1kJSaC02yV8e4YMZYC7BF1hgE1eisZIlTJhXn6nqMa3PDcYs5vE/jgO5aMtWOz9ardXPWbCiW8eruRH0nN8dxfRKGSJnOyUhW4dqgWWG1ckHdQjX6QAzYn35qqWSPTP4ku3fVZxHfBFctkhQsaF/dRRC9iHsr0sw/lEHwQ4NV779e2WAu7OkTc/W41ppdV+O9/DC+wBhMAOl/HL258uCdjydEEAKd4d5C3aDTp/XimJ5uFwhkeMFFhtigjIwMc4+hBhAa4n3gyvroo48sZgifWbVqlcUdOXoQfMJfDU48uw+WqntEY0RUEOAuBRcaxNLMmJRrd6Fea+h/rV4ocJE0F482vIY5nKyB0aEqAH72/AcmAmAxQmwQYi5wkc1Kd2+xski12ExTC9aqZSoGtO+wZMEdtO9omaaNl9o452gxxfnT8/WiMcrcZagx89ZHe238cPlhrrHNk9940OY6Qlns0tcOHC9zbXwJfj+IlQjESzSrCIKYjYzoeA0sPth0QF0Lx9WVe0QtRI3yD0/9QQVShiybq+5CPZa92uAegVX24TtnmbBdr/WfkFyBUgeoF+XF32dvc9Gklsztxacs0B8hBzhm23Vu4eqdVZRrQdJeb3DFH9KbsXf1eG3Rcy9qeB06XmHDmq8Zf9M1w3OUWjb90iCEPKhTHMXvCRGEOkEQOXBvHTt2zNLccQFFLBHcXHB3wbqDkxGKJ0IMLVy40AokolgiApzhUkOhxUDDtqg1tHz5clelyeNCCfcXYkMwRlgNcGIdryfYnMwku5B6reEEGq0WHbiI2jTuxcal/0NsEGrJQOxhvLCmQAjA0oB6K5NVOMRqcUW3tss6Fli4YBFAu+WWEeYmQeFD3DHjooFxR0aEqosv1saGuANYgNDAovjwGXt9wtgOYVCun8Nr1SocvNIgWGHNQtVkZNNgPhHfBbEwXzOJMD6UCEBGlReP3+7zgFgYxMhs1mrKmPvoyAgrd4CyAH6JkcGYwzXrNlHnrOu5CK7qQhWzyOD0g7UPJUdg5bp1bmHH71Xn0nzy2uDaDFPrrt+aky4xJ/ft1DwM6RU1Ly/PUtu7NwiUuLg4yc3NlaSkDksAhNDdd99tIgfvB0QP3GMQQoFiidhuyZIlcscdd9jFFu/jItzQ0CCvv/5651dBKCHmZ/Hixa4SQcjEmKn+aDz80nCRxMXxgTtm9jqkLz28pNf33PoG6sPAkoNHb+2ABnnj0Vsr1eBiPFZraQCvNrgEczTrDY9Am6vZNXj4sUHIFWjMGh5+bgka+4MsKTz82mDNhKj7//50pV+HyHHdgMCQiqC/+Zu/6bF7EEDI4Jo+fboJGDTUAsJr06ZNs+cQQnjv8ccfl8cee6wzfgKmeryOB/79s5/9rMfvwIvYpmsBxl435BskQAIkQAIk4AMCbg4HGQq8QyqC+hIgASHTFUpPr/W1D3zWTeuCDcUE8ztJgARIgARIAAQQD8SYoGuPBf85PHmskwAJkAAJkAAJ3HwCHgwKogi6+YcJv5EESIAESIAESMAFBIbUHeaC8bMLJEACJEACJDAsCFiKfCD9zYERe9AQJBRBDhwI3CUJkAAJkAAJuJGAVgVg60KA7jAeDiRAAiRAAiRAAsOSQNCWIKzZhYVIR44caenpp06dsvW5UJUZ9XZQeBCVm9lIgARIgARIgATcRqDDGea2Xg11f4IWQViLq6qqypaegAhas2aNvP3221a1+aGHHhIsZIqqzGwkQAIkQAIkQAIuI3BVAzlbJ8h7vrag3WEHDhyQXbt2WdFCrOZeWloqhYWF8tnPflZefPFFOXHihMtmnN0hARIgARIgARIIEDAdpP9x7OFB1EFbgrBYKRYnhfsLa3GhqjNE0JgxY6S+vt5cZWwkQAIkQAIkQALDlID3DEEStCUIa3w1NTXJm2++aQuRJibqApeTJ9tq7c6a14bpwcRhkwAJkAAJkMAgEejQJx0J8oHooMH+O0hdvam7CVoEYTFTCKGXXnpJKisrLUAaK7vDMpSZmWliiI0ESIAESIAESMCdBDrcYCqE9B9OPNw56r57FbQ7DIHPU6dOlZKSEhNA6enptgBpfHy8PPHEE5YhxkYCJEACJEACJOBeAk6uHeZBb1jw7jAsRArlePbsWdm4caNUVFRIe3u7xQJhEVO6xNx70LNnJEACJEACJEAC1xMI2h12+PBhiwXat2+fvPPOO5YdBuHT3Nws7733nrnI2EiABEiABEiABEjAKwSCFkHbt2+XDz/80MYFQVRTU2MWIFiDECxdVlbmlTGznyRAAiRAAiQw7Ah0pMg7Ew9k3iAP+sOCFkFwg0VERMjXv/51iwlCPBBqBkVHR1twNMQQGwmQAAmQAAmQgDsJOFYfCPrHgwIIsxS0CILowaOr2EE8EGoEoTEmyJ0HPXtFAiRAAiRAAiTQM4Ggs8Py8vLMBfb8889bUDSqRzc0NMjRo0dl5syZkpqa2vM38FUSIAESIAESIAFXEHDSYOFFY1DQIqioqMgqRm/evFkSEhIsSwxWILz24IMPct0wVxze7AQJkAAJkAAJ9E7Ai0Kl99F88neCFkH5+fmSlpYmEEMBKxCeo2o03kN8kJ/b8DpwUFX0ip+nUyIjwiQ+dngU+BwRMkKu+Hs67VgdBkP09W+Sg3OeAK5jw+tadmOmQYugCxcumNVn9OjRViEaC6aeOnXK1hFLTk6WpKQkyxbzc7MDyKvRX0FODMYYHqoXTZ9fUj57/0K5bWFRkFS8vVlqSoLUNvl/bb+IsBCJjdSaZd6erhv23u/noBsC4AYkMIgEglYtqBFUVVUln/nMZ6xA4tatWwUry6ekpFgV6QceeEDGjRs3iF1z4678fnrtYN6R6ejvsaYlx+kiwNFuPMgGvU+NLW3S1u5/O0n7MBjjoB8c3OHwIqAnd2dFtPeuG0Fnh6E20J49e9SsfkWOHDliwgcwsXwGiiUiWJqNBEiABEiABEjAfQQC8sQ8Gg4+3DfyvnsUtCUIggfp8QiG3rRpk9UKQlYY3GMvvPCCWYfYSIAESIAESIAE3EnAxI+Txhon9+0Q0qAtQagRVF1dbUtmrF69WiIjI6WgoMC6hWKJsBCxkQAJkAAJkAAJkIBXCARtCVq4cKFlgMEVNmfOHFtRHtWia2tr7TnrBHllytlPEiABEiCBYUfgqg/M2Zgg71ENWgRNmDDBRA9ig5AdhuKJbW1t5iK75557JCsry3ujZ49JgARIgARIYFgQQOkTZ/1Vzu7dmUkKWgQhPT4xMVHuv/9+6wlS5LGSPIQQssLi4uKc6SH3SgIkQAIkQAIkMCgEHI0JGpQe3tydBC2CXn75ZTl9+rR85zvfsRig//zP/5Q1a9ZYAcUpU6bIY489ZoUU2UiABEiABEiABEjACwSCFkFNTU2CBwoibtu2TeLj4+VP/uRPZNKkSfLUU0/ZumJsJEACJEACJEACLiWg/ipHY4I86A8LWgTB+tPa2mop8hs3bjQRNHfuXIsFwkKqTJF36UHPbpEACZAACZCAErgaGz2kLBBHjIXXP/zwQ4spxgMrTowdO1ZmzJghzc3NUlxcLHv37jXNgYLMKMeDsBtkqUOL7NixQw4ePCh1dXUSEREhSNwaM2aMREX1fymkoEUQOokCiRs2bLDg6BUrVkhOTo51GOnyISEhQwqWX04CJEACJEACJNA3ASdjgoIxBEH0YPUJrDqBf0PUwMMEYZSbmysnT540gQSPEwQOyu9gOyzPhUd5ebl89NFHJoTwXsAAg+z1gaxaEbQImj17tlWF/uEPf2gxQFBtWE0eHRo1apRljrGRAAmQAAmQAAmQQG8EYDBBWZ3p06eb5QYC57e//a0VXd6/f7+89tpr9vrXv/51WbJkifzzP/+zHDt2zETR8uXL5YMPPjARdffdd9tyXVix4v333zfBNBARFHSxRBRG/NKXviS/+MUv5L//9/9uQgjCBzFB3/3ud201eTYSIAESIAESIAH3EkBMkFOPYNaox3fD8gMPEv4NSxCyzPEXz2ERglUHIgnP4eqCxQdrlV66dMnEEJbrCmiQRYsWCRZ4R7b6QIo2B20JQofRcSiw8+fPm6+u6xcuXrxYYmJi3Dvz7BkJkAAJkAAJDGMCTscEtba2WMwwrDuBhqW1YCSZOHHiNeQRz/P888+beIGuyM/Pt6LLiPuBVQeeJrTs7GzbX2VlpQmlsrIyM75ACMGqBBcZ/qKMDx79jQsKWgTBT4dgJZir8Bd1gdBZVIyGRaiwsNA6y0YCJEACJEACJDD8CECsIFGq64LqsbGxJk66NwgaCBuU3oElCAIIYiY8PNwsQbACwdACUYO/2Af+NjY2dlqSsE/oEGyPBuOMYyIIgUoIRoKqg1nq9ttvt07DKoSOO5p2150en5MACZAACZAACQRNIJig5aB31suGUVHRsmL+bPmLv/iLXrboeBl6AVlf3/ve96z0zquvvmqxQDC24HlXL1PAqgSxgwa9gfe7WpsC2we26fPLu70ZdEwQfG6w/nzuc5+zFeThr3v88cdtsDBPwbTFRgIkQAIkQAIk4E4CyAwbof9x6oH997ch1AaZ5khxP3TokFmHYPWBpQgNNQghblCWB3+RqY6MMJTrgfjBdshSRxtISE7QIghfBpMT1BvMW4F1w/ClWF2edYL6O/XcngRIgARIgARuJgEERaNgojOPYEYCgQOXGYRLwKKDsBq40BAHBDEEPQFBhPd37txpniYkZyEuGQHR0Bx4H/vC+wjJgXFmIKV6go4JwhcEOgwr0KlTp+Q3v/mNiSGkyEMYsZEACZAACZAACbiUwAAsNYM9Eri7jh8/bvUGEQANSw4ywhDLgwBquLkQJ/T73//eCiainhBK8kydOtXihZAt9u6778q6devMaoTPwpI00Az1oEUQvgBiB23VqlUmgJCfDwX26KOPMih6sI8U7o8ESIAESIAEfEYAae6o+4PaQBA8MK4g1njp0qUybdo0K5iI+CDECaEmUF5enmWWISMMlh7ULISIwtqlSJeHNwqhOTDODKQFLYLQAXQY5ij45lArCIOBmQo+PSg0NhIgARIgARIgAXcSsBT5gQTuBDmcYAxNWHQdRQ7vuusu2ytEUNesMITc/PEf/7E89NBDne8FSvRge4TlwPBy3333mSbBeGBFGqgG6VMEIXcfy2QE01ABMjMzM5hNuQ0JkAAJkAAJkMAQEHBQAwU1GgQ3Q9Tg0VPD+xA1vaW6BwwvvX2+p3329VqfIgi+O9QFCqZNmDCBIigYUDfYpqauSU6ePif7jpaZCs5MS5SC3HTJG5V6g0967+2jp87KcR1rdU2DqfmEOPUJF4yS7IxkzQII5p7CnWOua2iWdzfsU193u40DY0M2xuLZhXKhvkkw7sbmVut8GzIgrojE69iXzpkgUZHesaiWV9ZISVm1VFZd0JHosZqeJKOzUiU5KVbqlcGBI2ektq7Rxh8THSlTJ46W+Ngoy/DwcmtruywVVXVSfPi0nKupl6iIcMnLTpXCMRkSF9Pzid2L4z1wrFwOn6yQ6toGiQgPkyWzx8vozGQvDqXXPrfpbxTH6tbik1JzodF+s2FhITImO00KRqdLYjyXg+oVXk9vePC03acIgtkJpqtgWn9MUYG0tnPnzlmxRRQ4CtQaQho+3G14jpoBCLhGZchA4DUiyBE5jiqR8AVCqKFWEfaD/eKBfeB97AcB3NgmkG6HsQTKc2OfiEQfSER5MEz6u4123S6Q7206IHsOlsqIkBGSmhgrC2YUSEZagkSEhTpqyuxvfwe6PeYIF5K1Ww/JPr1Q1je2qEgYIe1X2uWSvo4LpZdPPjiZPv3btZKsc5eUECOheixDDE2dMFrKK2tle/EJu7CgnauuM0GUk5kic6bme0IE4Ti9eKlNig+Vyq59J+zigeWp01ISZO60sTIhZJTsPVgiW3YfVRHUJCE6dlxEY2MipCAv0+bXy62x+aJ8uO2wju+4VKkIiowMk4zUBPnc/Qvswhka6o/FpI/oueid9fvkaEmlCoUWyUpP9J8I0vPNeT1+128/IuXnLti1IURFemZ6gjy0YpZMjh4lYT6ZTy//5pzse58iCO4tBBwF0/rjZ4QfD6Ll17/+tbz55ptWNhuCBEJqwYIFcuutt5rAeeKJJ2Tu3LnyZ3/2ZxYMhYZgKiza+uCDD1og1MGDB+Wll16St956y/yDOIjnzZtn/sTbbrvNFl/btWuXCaFAQ00jxDZhnz/96U9dk9l2RUXA+u1H5XjpOfn+Nx+RVL2j/rdfvSvb952U2UV5epedohdUD0rtbgcQhA6sPx9sPmh3l59/YKFaRNrlf/3fN+TwiQpJT46X+dPHBnPYuXqbT987X5bMKZToyAjrJ4QQLAYLZo7r7Pfqj/bIXhUT6SnxEq4i1wsNv7Oz52plpx6X0VER8v988W4JCR0hv3j+Azl68qwJ9f/63Vp54M45MkdFESw/G7cflp16tw0xNHl8jheG2WMfIeBN5P7uI3n8kSVy2/yJUl5VK9/8wW/0NzpG0pLjJEXFrx/apLFZdlzCsvm/f7HaD0O6bgwd8STh8qm758jI1HgT6CfPVMkT339OxqqgzVThN1IZ+KFZPJD+D1Zppxr277XW51kXRRD/8Ic/WGXoGTNmWJpa11ZSUiLbt2+3nH1UkIZVJZiGwos/+tGPLMDpi1/8oowfP96sMXgd1iEUR0LWGSw5+/btsxViAyIIJ6FARDkEz8svv2yWIaxun5iYaCn7aPg3RBWEFGoSBD6DbZ966imrLwAh1R8LVjBj+yTblJSfl0uX28zqgzsR3FHCxA6T9M4Dp9Q1pq+FeMddciMWMD23tbV/PDdqXcBFMkYvrH5oONdA+HR17eGkGzgH4ViG67OuvllWLpvmIRF0Rc6dv6DzFC7pqYma5hpuYxqVkSRV5+vNQlSmrrKRah1JTYrXY/qyjM/PlOdeWSf5uSPFy0stX1BBUFJerVa+GLWMJNhfWMUWq7DFmE9X1PhGBGE+42Mj5VjJObnFw+7pvs4lcH3B2p6g4gc3IaFqfY9XlyasXrgxC7it+9qHZ97T3yh+pw5qIM+g6NrRPkUQxAjy8b/whS+Yi6l7g7UGFpwXX3xRioqKghJBECRIj0Oho3vuuUeWLVtmOf5oWBMEef944N8ZGRlm9YEYO3HiRGeKPrbFBQRuNFiRsB0sRhBNEDsowgSBhDvQceM+vuvG6xgPXGVI94fVCRYht7QqtY6gJasLBWIADXeWOLGeOVtr/mo/tBA90SB2YkphjpxQEfB//muNuYxwgZmrJx8IQK83iJ2NO45KReUFSdC4AtxVjh09UmNjOgReux6/lRpXAndRZESYxXx5xY2Ckyhil2DRa2xqMRGAOYWYO6vxQe3tV8xCBDdnk7r61Htmr585e96293JrVlcY3Cf4jcbqMQxXCeZvjFr4KtW1eUEZ+KVF6bja9ZwDYeC9+/vgZgFWEYifgBUWxzKOW1i/MP5Yn9yQBUdjeG7VpwKAaID4QN4+4nK6N4gJVHGEEIG4CabBDYYiSYj8hgUoIIDwWYgqWJNQFhtVILF/RICjoNLatWvNchNoXeN/UD57y5YtZrGCBQgpdhBEXRssP4gPQv0BuPkggAJ1j4Lp983YprnlopkquwbH4gQLVwN88npt8UXDGCN0XLBs4e55vwaB4zlOtHY35nEfPOasSAUeRCtEHsZ7orTShC3cYfiLi8vhE+VQ82Zyj/NQnAxuLtJTEk0EwDW0U+OCMG9lZ2tUCDVpPFeMzJ6SL6fVYgIrGMZ7XONKEBSOWDAvN1i1mlsvmbUSwh0NPMACNyu4iLJ5kwDEe4WK9e37TqmwDVeLfKKnYxN7nAW/qtkeBxvci32KoI4A1rZOd0V/4n56+3rE5pw9e9aKKwasS/geuKkCwctdV5ydOXOmbYe4H1iNYOlBw4kHognFleASwxpmqCgJtxmKLqG0NsQTGvaPgGosAIsiS6gvABHUV0Nf4FoL9Ak1ka44fD/UyVf7G2j2T334yYwJcQCrAcTPvGn5ct9tWuTqyi0WE3TweLlZv7wcE5SSFCd/8djdFl+AOC8Euf/jU3+w4GdcLEeNTDJT+679p9TtGyHj1eXppQZhk6pzNGdagazbelCefuF9E0EYd1KCJjJoDMWy+ZPkpdVbZNve4xoTFa4B0RlXA8S9nRmGmAf8FnFO+bh1JGR0dXV6aT7Z1w4CTXoTur34lLy4epv88aq5MkFduF6J0+vPHA7Gdbw/3+f2bfsUQRAaiJlBvSBYW7pbV+CygqBBPM8nSXtFHNAzzzxjq9PDogQLzb333mvssrKyzMIDQQILElx0XdvDDz8sEEp4D1arTZs2SXFxsQkmxBuhYZ+IXUJQdaCy5I0ywlAaANUqA3WSsO+Fi5de892D/QR+6ct6NwK3UKA1XHU3JKlLxS8Hb4O6SHZp9lBEuF441R8fq+nTcK3MmDTaUubLNIPKyw3ZJZgvuIi0DJhlDs3WzC+Y2GE5QbwBLAZ7D5fKvOkFJhC82MaPyZQsFXT33THLjs3NO4/o+BpkpN5BZ+rrn3toibRebNOiqm2WKn/g6BlzHXm54ZhFzEiNjqf14iUbCuLaqs43mPvESyUOvDwPg9133Ji9/sFui71cPq9QFs8aZ4kpfmxO3oZ40dDUpwiCWwlLZCDzCmt5IDg6kDKPYGis6wFxActLsIUS4QbDfrtmbMGiE3BPYSmOI0eOdB57EGEoqb148WJbKwQuLQijQMO+8Hm8hqU94GJ7++23TQwFRNDGjRtlx44dZh1CUUeM4UaCAu4/xBkFxoV1TBDI7WTDxRGuE5hkcbFE/AhEAeIMkB3ml1RNjBGuBMRWNDRqzIjeVV9R8Vdd22h/vXyhhKUSVh6MCTcGOjITAoj/Qf0jXESbNK4EAdFoONEmq/XEiw3jS4iNViEbZ7E+CIpGoClEHYQBLEOYa9QTOqhWv7EaFI1gaS83xLKhdhdED9LjcZNS19hsGZzL5hb6JpPIy3PU377j9/mO1vWCFRo3LHcuKtLfZZxvzrf95THctu9TBMECc//995sFBanosMIE6vUEgpgB7O67775GmPQFEdak/Px8c2+hDlBhYaHFG2FRNKwPgtcgdLo2BD4jbf7HP/6xnDlzxuJ+0GAdQj8gTiBW8IAowoJr2AcuSNjf5s2bzRr0yCOPWD+DyQjDgrF4IN0e7cCBg3r37mw8Q1JCtLpMkuWsBli+8eEes5CcPF2lVoUYGQ93gsYG+aHBxIyia4irOKaxMqvXFZvLD/EzCCDO1VIAXm2X9OJfXVuvVo8yEwAIgEYtoMt6LEIEQfAgNmaPZlDhYjpSa+tAGHmxHS85a6nycI81NrUKYtqy9TcIV9mp0xoDpJavS/qbOa81kUrLq2Tu9HFmIfJyg0DHhRLF9A4er9DsoYv2aNELKYLb4Qr0S8Pv8YiWPEDRRNywbNa6SLB2oVQH4vludCPpBQ6wyFboMfz7NTtN0E7SYq3I/sNjtLqvMU6v17XqOg+OW2oc/4LBP6r6PPtC8KAWD4QFLDRwDUGEoAUyslasWGGB0zdyLwW6npCQIKgujaBnuK0gaGbNmmV3zSh6iNib7ivSQzhh7TKkzcMCBfcZBA6ywyDO8N0IsMaPEi41vIeYI4gk1CGCqwwB17ASIQ0fDzSIIQRhu+XHDAZz1W2CtMxfv7bZsmyma5XdWUW5VsPCL82yaXLStAjkWPlQCyZu2n1MwjVLDyedonGjpDDfm+4hzA9iyCqr6+Xl1VvN4gMRhJPonKljtT5OtlpHYq0g5pmK8/Y8Q61/Xm3Fh0pkg9b/adVAYQihFUumykytlQMr2DEd44Ydh60eFMT91Im5Mk2P5WS1Gnm54VyBwO/P3DdPXnhzq7y7cb9WOo/Wat/jZZxauvxUMRoBwm+s3aMp8pXmvn1j7W6pPF8n9y2fZuejEARHebw1t1ySEv0tluoDLvmLB0pktz7QVi6bKsvVuuc3EeSW651bDp0+RRA6CWCwnsCKgjidQB0eCA8EHkOYBCuAAoOG8Pmrv/oreeWVV+TnP/+51QyCOIJFB7WIumaBBT6DLDEsuobYHBQ7DDQEO+MBixBEDYQEXGtIv0dfYXFCSj5ifJBBFmjoO0TRk08+aWNwS8vR2hwo3HWP/gBhHQlXK4Ff4wzuXFykF49CnSe1sJmLTIPd1TrU3+PJLXOHfmCuJhVkyf/4i0c6g2ctG04zpALzmKsWg69+5nbLgov0qBUIY73n1hly28IiJLjp/HWMPVLHiWvj7YunyCJdBgQ3JBZbqNa/aK0r5IcWGREqM1TQQfTgwon5hbBHWQA/tZVLp8gy/X1ijBC2uBbAaolxIu7NDw2idY4K91/+4Mvmukbl+kD+CwL6veya721+nCz55EVZfEMRBJCopYMMrZ5qBfUGuq/Xsb+8vDwTNYjRQcYYBAwufrAQIWYHz//0T/+0MyYHAgmuqe9+97t2UkX9H8QCrVy50mKVAktvYB8IrEYcEfbxl3/5l50CqevFFfsIFFTsq683+z1cGOPw0B+n3xsEj18KIwbmChcKXPARU9BbQ2yXl5cFCYwL64Hh0VPDhdJvoqDrHEPUBmp59TR+P7zmx99n93mBnHLbjQAAIABJREFUBdNcnOr2Gi4NNylsHxMISgQNNjBcKGDZQQwQHr01xOQEGkRLIE6n6/YIdsajt3bXXXf19hZfJwESIAESIIFhQwACiBro2un2h01z2BzCHCgJkAAJkAAJkMBgERgSS9BgdZ77IQESIAESIAESuDEBWIDghXEyMNrJfd94hAPbok8RhDW7UB8H7UaDg9sJGVhsJEACJEACJEAC7iTAmKBr56VPEYR09UCF5huJICx7wUYCJEACJEACJOBeAowJunZu+hRByAbDkhTBtEABw2C25TYkQAIkQAIkQAIkMNQE+hRBSFdHNehAs+UNrCjI9e1GlqLrP8FXSIAESIAESIAEbhaBjrgg577Ni1amPkVQV1TNzc22phcqR5eXlwueB1Z0x3ao6YPq0mwkQAIkQAIkQALuIwCRguKejjUHd+1Un4NOkd+2bZu8++67tgYXFiNFvBBq/WAVeVRwDlSSdqqj3C8JkAAJkAAJkAAJDCaBoEUQVozHOl1FRUUmeLCWF1xlqOKMleFRzJCNBEiABEiABEjAvQTMJebQw72j7r1nQSsXLEuBQOlly5bZOl9YsR3/fvjhh+X48eOdi5L2/lV8hwRIgARIgARIYMgIqPpxSgAF9jtkYxvgFwcdEwRLD9beQgA0MsFOnz5tbrH6+nqpra019xgbCZAACZAACZCAOwmYUPFg3I6TNIMWQXB/Ye0uZIetWrVK9u3bJ88995y5we644w5btJSNBEiABEiABEiABLxCIGgRNHnyZMsIw8rsixcvNvFz6NAhe75kyRKKIK/MOPtJAiRAAiQw/AhctQDREHTt1ActghAPBHcYssMggCCE8Ag0BEezkQAJkAAJkAAJuI+Arhrm/Nph7hv2DXsUtAhCevwHH3zQ6w4ff/xxmTp1aq/v8w0SIAESIAESIIGhJeBoTJAHzUxBi6C0tDQpKCjoXEgVafKoEXTq1CmJj4+/pnDi0E4xv50ESIAESIAESIAEbkwgaBGEFeLhEgu0y5cvS3V1tdUO2rx5s3AB1RvD5hYkQAIkQAIkMFQEvJrG7iSvoEVQVlaW4NG1wRo0evRo+cMf/iCNjY1O9pP7JgESIAESIAES+IQEnHSHedAbJkGLoJ64Q/icOXNGzp8/zzpBPQHiayRAAiRAAiTgEgIQQI6uHeaScfanG0GLoJ///Ofy8ssvX7NvZIvBRfbQQw9JXl5ef76X25IACZAACZAACfiKgPdsQUGLIMQEoR5Q1xYaGirJyckyc+ZMW0aDjQRIgARIgARIwL0E6A67dm6CFkHjx4+X3NxcGTt27DV7aGlpsaKJXEXevQf9QHqGyuB+biP0hiU0xHt3LQOZk4iwEAlt9/d8gkt4aNBLIQ4EIz9DAp4n4HhgtAdPqUGJIFwQX331VSkvL5cnn3zymgPh3Llz9to3v/nN6yxFnj9ihukALre36/Io/h58WMiIYXPRjI3w91wGRoc7XA+eg4fH5HCU7iCA3wh/JNfMRZ8iqF0vhlgYFenvdXV1tlI8FkwNNLxXUVEhEEJYZZ6NBEiABEiABEiABLxCoE8RBNGzfft22bp1q6xZs8aWzPjBD35gi6iiYUV5CCWsK5aSkuKVMbOfJEACJEACJDAsCWD5DLaPCfQpgiB2YAVqamqS2NhYCQsLMyEUaMgOS0xMtDXEutcQImQSIAESIAESIAH3ELD1wxzsjpP7dqrbfYogZH7dc8899li3bp25w1auXGkLqKJBJMESBFcYVpNnIwESIAESIAEScB8BCBR7eFGpOIgz6HQKuL6wVAYKJEL4oCEmCOuHvfbaa1JWVuZgN7lrEiABEiABEiABEhhcAkGLoGPHjsmBAwckMjKycxFV1AmCEHr77bctc4yNBEiABEiABEjAvQQsi9Kph3uH3WvP+nSHdf0UMsCQCYa4oECDWwwusaNHj14TK9Trt/ENEiABEiABEiCBoSEA8ePkNzu6c2c6HrQIQswP3GClpaWSkJBgcUGIBYIFCO8hSJqNBEiABEiABEjAnQQ6YoI8qFQcxBm0CMJq8QcPHpTvf//7FigNIXTkyBHZuHGjFBYWSlJSkoPd5K5JgARIgARIgARIYHAJBC2C5s2bJzExMSZ6kCmGIOmIiAiZOnWqVYrG2mJsJEACJEACJEAC7iXgZHaYF21MQYugkSNHmtsrOjpaTp8+bQHRcIFBCFVWVsqoUaMkPj7evTPPnpEACZAACZDAcCUQCIYeruPvZdxBiyCkyEPkTJkyRXJycqS2ttbEz8mTJy0wGiIIQomNBEiABEiABEjAnQSctAS5c8R99ypoEYQsMFSLRpr8u+++a4+qqipzgy1dutQsRGwkQAIkQAIkQAIk4BUCfYogZH+hGCLWDtu2bZuUlJSY+2vs2LFWLwhxQt/+9rfNQsS1w7wy5ewnCZAACZDAcCSAmJ0RDpqCHNy1Y9PVpwg6deqU/NM//ZOtH5aWliZz5841l1dubq4cP35csKzGxIkTHescd0wCJEACJEACJDBIBK7GBQ3S3nyxmz5FENxfu3fvtsVTMzMzJS8vz6xAqampEhcX11k52hckOAgSIAESIAES8CkBqxF09eHTIQ5oWH2KIFh8vve978natWvNJbZhwwaZMWOGLFy40IKiMzIypLm5WbB8Bh4InmYjARIgARIgARIgAS8Q6FMEJSYmWtDzrFmzpK6uzqpD79+/X95//30pLi4WuMt+8pOfyOzZsy1rjHFBXphy9pEESIAESGC4EnDSVuFFM0ifIgh1gBD0jAdigeASw2PChAmyYMECqa6utowxrCIPAUQRNFx/Vhw3CZAACZCA2wncog4x/M+55uS+nel1nyKo61dirbCAIMIyGcgcw4KqsAzhgawxNhIgARIgARIgAfcS8J5McZZl0CKoezcgehAzhMfKlSu7v83nJEACJEACJEACJOBqAgMWQa4eFTtHAiRAAiRAAiRwDQHLDnPQFOTkvp2aSoogp8gOcL8V5y7IrgMlsnbrIUGV7nF5I2V20RiZNiFngHsc+o/V1jfJm2v3yKETFepGvSQFOqYvP7rUOnZB3ztwrFze33xQ16Nrk+iocCkany3L502QiDDvZRwePlkh7208IMdKKiVM+798bqHcubjIxtrcclE27Tomm/ccl/rGVkmIjZJbdZxTdW4jwr33U1y3/YiNpexsjc5bxP/f3plA11Uceb/wIkuWbXmRZcmrJO/7voHBrAaMCQETEsiEEJL4yzBMyDLJJJM5w+SQZGYSEubMJDPfR0gCCYSwh8Vg1oB3A7Yx3vd9tyTLlmTZsuyvf2VaeX6WbG336d2rap975Pfuffd2/atv97+rqqvljhmTZHDfHCk4XKL63LR9v5QdOyGpbVpLZqf2Mn3qcMnOzHArSVs2faNsQA2OnzgpW3YedDKulR17C6Vd2zYyalBvmTy6r3Tp2K4Bd06+nxYdKZN1m/fImwvXOF0el+7dOsmYIX3k4tH9pEWLAEfTBEJRWXlKNjt9zvtwg2x0bZZ3EX1OGpUvOV07JrAmCXiUU1kYiUqQyCRFz1tW5l60des0I3VpaakutedgVVphYaF+TwwSgdocPXv21NVo5C9i6w72LmOlGqSBgyDufv366R5n8+bNk4MHD8rJkyercCT5I/fnuiuvvNINVq2DxLjW96buKzfsksUrtkiKG0DbtGklG7budzKJ5PZwuZnapQaa7bPWFa3jhadPnZZSNxjS2ezYWyBHSssdCTpzk3Vb9sqSFZvlhCNAHRwpoKPduuugdHWD5vCBPRWHMJWTJ09JmSM7TmWqy57ZnWTaJwKs2+Ji6NyAUlRcpqRg/6FiWbVxl7RLb+PIQ/cwial1PX6iQg/kXbZmh1xz8VAlQegZcgv5aZPSWokves7O7OAIfa4OpGEuR137nf3uCkdkyyU9NUVOufY9Z95KycnKkHRHBpE7CoX+aPvuQ/L6/NXCO9w+PdW12SMy15GFgXnZ0rFDW2kdckKr7dj1PW8tWC37C45I2zYp0qLlRUriMzu1k4z2baWt03GUSjSoa+NppMlHGHajJ8D6hRdeUCJTXl5elW+IhIxLly7VPEXEIPEZMjNgwAA3C2khY8aM0fNz586VzZs3K0HiPKvX+H/37t1l8eLFsn79er0vhRd7w4YN+n+W/1966aVJQ4KOlVfowMlM+gdfm6GdzP976j0lBdtcZzTEDZQtWodvFo11Z/KovjqzetN1Npu2H6hqwSvW7ZQN2/bL395xpfTrneX+v08+XLVN3lm8Vq1gYSNB2V0z5OqLh2j7/L9P/uWsN3Xhso1yzBGCay8dJpeOHSBz5q+UVet3ybLV20NJgga4gTCrSwc5UHBUHvztnCpZIQKjBvdWfbZPT5Ptew7Js3M+VDm7OUtQmElQxclKOVR0VN5etEa+ettUuXLSYNlz8LD80y+e03aNpatHyEmeVyQWLywkWKZ//M1bpI+biPH+vjZ3pb6nw53FtrWbuIS5nHSE/bCzdmF5v/6yEfKpK0e5d/SEfB99Omtu75wuTu4uYRbxrLobATpXlU1OgrD0fPzxx5qI8Z/+6Z9k0qRJSlSKi4u1tmzYCqm56667hFVp7GH27rvvyuOPPy79+/dX8sSqtZ///Oe6tQckiB3uT506JSkpKbq3Gf+ncF+SO95///26tH/mzJl6TbIUrCQnKyulu5tRdnOzZqxVg/KzVabla7ZLvz5ZjrCFjwRhDcDScejw0XPcPkdKyp0brFIG5+e4GVgL6ZXdWdZs2iNvrN7mrEOVyaKaWtejU4d0tQYcdLPKVk6e2LLaWYEgsrg2W7ZqIRNH5MtSRwzobMNYerrBvqObKZeWHT9r0W1b5x4aPbjPJxZdUTz69ekmi5dvknJHAsNcio8eU2smVoKcrI5qKYDYXjZugOw5cFh2O9dgVEjQPmepPOIseli4kDXd6bV3TmcZkNdNPli5TQkC1tswl5KycufaPOD0mKZydspoKy1LLtJJ2+EjpbJ198FIkSBe1ED3DgthY2hyEoSFBsKTnp6u7i2/Gz2WH8hLWlqazqohK3yXm5ure5ZBnCAykBryE/Edm7pCdLjWE59YV9fRo0flmWeeUTWx+euIESPUYpQshdgZZE1PS/2rNczNpFMciSgsLlWze1gL8QNnMoqfPRchLqaVIwQr1u1QorR11yFZvWm3FB528p4+Q17DJDP+do2VqGbKddQRPs4xcNARYek75WaiDKJhLN5tjcyx4vL/i2LiRWi7WMF6uQEU8hDmgvsP4t4pI11SXewIsuMS6uosYjv2FKjbNyqlxJFbLF9dOqZLS9cvodc0Z9XFurdrX6GccOfCXpiAFTr3NO9kmnN70aZbuskL7XTzjoNK8KNS9L3kqKZvioqM9ZGjyUkQ5AcLDjE/L730kmzcuFFjfvLy8nRbjniSApGBOEGYIEU9evSQ3bt3y8MPP6wxQBwQpaysrLPwIOM1+YxwnRFrdMkll0hGRkaNmHFP3Gi42SiQrry+/Wq8vjFO8ELSPmOtPa0dQWDgxCpCbFDUytD+PVxHU65mdlxjxAYVOncgFjENrIlQQSYSlfk4Cu/qI4YmqmWnCxxGrxCh6VNHhD7QtNJNzCAG6I4JC4WBk2Ba9BglXZ50cp5iUqkLFM60UAgCfdIJ5yo7/YmFPcxtl8kyCzLoc1t+Qtx5R1OcPpEdd5mVOiAQQoLV5CSIrTlwc3EQq7Nz504lNpCZqVOnaqA0BIZtOiBAuMf4jq06iBFiH7O33npLt/KANJHRetSoURovRA4jCu6kbdu2yZtvvqnxP5CgwYMHn1ezPHPr1q2ybNkyve7Agf3SOzfvvL9p6EkGR8Z9Oh9feAmxAKW4lzSKDB4SBMl7Y/4qFwS+T2NGmGkSjHjGctRQVJPn962c1dGF7qt+WSHFYIqM8W6z5Klxw2pS5IgPcUC4N4f06+6OHtLZWRXCXLCI8J5C1mPd7MTPQBA4olJoo1gsYydgWC4J/ockXPQJCQyzvMjAKk4moJWfWNp5RyF5yB4lfZ7RU7D5osPYFpqcBLHxan5+vjz00ENqqfnoo480PuiJJ57QVV379+/X1V+QEdxdWI1Y0XX77berq+xTn/qUWnWw2nDNG2+8oZu9XnHFFfKd73xHdQKhIZboxRdflAcffFBGjhx5joUpXnmQJI4vf/nLeuqBB34UeIwKfmk6VlbW4NZjgDxackxfSAaPqCxJjcUamSdp0HRf/ZrVJwSdHnAxNX5mFq+bsH5mdQ2EttjpFHdKkYs5wG3E8vKoFeQkwH2hiwPCSnLP56/UlWJhL8jSwekRggfxYdICmSUGDOIepZVELP2HCGGZxQJGYSXg0VIXguD6o5QIrAxjctnJuaWPuHeSFBZY2ysrT0tBUYlL0dFS0x9EqZxxhwVnrgnuzsFpoclJEKIx2GNaZlk7K7pY/s7/IT+4pbAS3Xjjjeoiw31GIDRxQN4cjVuL+J6+ffsqIXrsscfUfUWBTMyZM0eWL18ut912mwZZ40pLxkKgITNNXAiQAIIuWVZd4DrcqyYPdp1OUqirUaGj42EGRmeDrj5ctVV2uniDqRNcnqCILDX2gGENYeUJ7iFWhy0hFYIbSPp0j87qE2QllmStCwJ/xS0jz3Mriq53brA2zgIbZEBmozbK89yMGDZimw4Wlshetyqs2K0sgszO+3CjfHb6BE2JEJXSzcU5Ie9uF/C9z8lK3q4dewpdvq/9cuenL5YObgIT9tLOTUDye3WVwy7gfa+Tk2BoiN5Cl8/rCtcHkZokaiWKHoWG6KjJR1UCm3FzQYQgM5AbYn6IBfLuEIgP1iIIDNYgCgMmy+uxFhEblJmZqeSGYGm/4qvSxWCwhB5XGgHXM2bM0ADq+DijhgDYmL/1iQKLXeDl/7rl1ZAAZpysrMnr2TW0pllmWSx53+iWwkNydEn1I6/JmKF9VMZDhUc1BQCzsCNultndrUSZMq7/OSvJGhProO5FEr35Sze4FV8H5WO3/H33/sNKbMe6/DjkPVrpvnvduf6WudV++w4Uq5totEs+F8bywcqtau1Z55JdsirqqVeXuBVSRRrw/YaL8Vrl0j2ge2Ir0DOD6tihua4th3dgwXLdtXN7uWLSILd0fKes3rhH5WNlEas3O0coWSL5jiAIrGZ86rUPlAQR+N27u1sh5tJXRMHqxViAJehSt7qPRRm/fOJtR9bdPpmO/OX37ipZnTuE8dW0OtcBgaQgQcQBYfWB7EBgWDZPPA6WHYhMdcWToBUrVujqMk9uyDVEwyYuiFggdrhfuXKlxhjt2bNHD4rfEJbr6NiSoUD6RriBkuBK8lbQ4fR3BGj88DxdwhnWgqWHGTPLUckrQ1ZdEpMddZ9x8bFsGmJEoYMdObCX5DvSF8aYIGJFmFWS9JGEcshHXhn/mXggiEFBUalkdm4nw1xMVF830ISxlDoZkYVo/gkj85WkkwgS9x4DJpmFWzmXAsvKW7jEgnwHPmEuzKKJWZtxxSj5iyP2LJdv1zZVrnVZwbEapEXIesn7h0zIxsIF8ul079ZRJy+snvKW+LDrEzfttEuGuiSQ63WihtWSTO/0vUxMo1bC6LIKUgdNPvpDZgoKCnTpOuSHmBisNrjFiP3BugOxIaC5ukGROCKSKZIbCAKFpWjatGnqPoNAEQsEySoqKqpKkgigXIubbciQIUlDgqgXadpzpnbUlTRRKcy0vnjLlPOK89kbJp73fFhODnL5jjhqKiTTu2rykJpOh+r7y527gKO6QtK5qBbigoY6Cx5H1Auxa5eM6a9HVAvknQkLR6SLYz+Q+CBJUJD3Dko3TU6CWB1GHM/QoUOVAEGKmGFgneEccUC4vYgDik1syDUERt99993yuc99Tn8LSeLwOYewCLF0nt/HutcAk+s8aQoKXLuvIWAIGAKGgCGQTAhUZ0xovPqFjwY1OQmCnEBaOKorPgaounMQIdxgHDUVcg5ZMQQMAUPAEDAEDIGAEQgfB5LoJLUIWLd2e0PAEDAEDAFDIMwIhJCjBA53k1uCApfQHmAIGAKGgCFgCBgCGhDU1ESIWF0SHhOn6xc++Q3SSYBMSAy5/VjwxOImHxrDOR+Mz3kOdprAvYc3iPjh+ixyMhJkL4YhYAgYAoaAIRBxBCA/HEHm66oNwSIlzrtuE/Tf/OY3SoSI5yUx8fTp0zX5McSGVd1PPvmkpsDp1q2bfOELX5AbbrhBw2YgSSRFZputdevWaYqcWbNmydVXX607RtS1GAmqK2J2vSFgCBgChoAhYAjUCwEsN71799ZdH9gBAmsQyYxfe+013c2BlDa7du3SBVPjx4+XxYsX67ZXixYtkssvv1yJD6vCuQeLokiozG9YKHXrrbfWuU5GguoMmf3AEDAEDAFDwBAwBOqDAJab3NxcTYMDCcISRIobEhvv3btXFixYoPuCkupm4sSJSm6w/LAtFsSIvxAndom45pprdGstfstm5yRf5vq6FCNBdUHLrjUEDAFDwBAwBEKMQG1cVvUVD3ICKcEy4wsuLGJ2SHlDYcV37KpvSBB5ACEv/J/EyWyQTg4/YoDYRuv111/XBMqku2ETdVxkJFPmd6wA535lZWUaR2QkqL7as98ZAoaAIWAIGAIRRkDjggJkQWUu4PnFF+fK22+/XYUihIZYn+uuu65aZLECkRAZ8kQCY1/YRotCjkDIEVtiEQ9EUmV2gOD72GshTNwLglSXXEhmCapWLfalIWAIGAKGgCFgCNQFgbbO6sNuDcTq+MKqLfYEjS8QGoKgCYDesWOH3HHHHbp/aPzenj4Jcvzvq/vMPetajATVFTG73hAwBAwBQ8AQCCUCZ3ZVCKrqrVzyY1ZojR49+ryP8MvgWQVGEHT//v016Jl4Ie/Owr3FFlr8hQjh8uIvpIql88T/+OKvrSnp8vkqY8kSz4eOnTMEDAFDwBAwBCKBwBk/mF8qH8Tf2sLE0ngCnN966y0lTVOmTNFgaVxa2dnZ6v5iz0/IEq4yCm4urESsCsM1RhA1MUjEAZF3iPgg4o7q4grjvkaCaqs1u84QMAQMAUPAEAgxAkEQn/h7XggeCM6qVavkkUceUavPhAkTpF+/fmrxwcIzbNgwJUEsjSenEKvFID/sLwrRGTt2rOYXIvia+CD+QoYIvo6NE7pQPfx5c4fVFim7zhAwBAwBQ8AQCDMCzp1UV0tJncStRdQ1eX2WLFmiViCsOsQDQYZYLk+enzFjxighev755+WZZ55RAjRjxgy57LLLlASNGjVKV4iRcPGdd95Ra9G1114rU6dOrVNV/cVGguoFm/3IEDAEDAFDwBAIFwIBLgyrNRAEPxP/w18sN7jAIGbE/+Tl5WkQNdtf4CYj7ofvySidlZVVFRME4WFpPBYhSBLL6CFU9SlGguqDmv3GEDAEDAFDwBAwBOqMAMSHTNAcNRVyBHHUVAYMGCAcjVGMBDUGinYPQ8AQMAQMAUMgBAgkgzUomWAyEpRM2rC6GAKGgCFgCBgCQSHgGFCgMUFB1TvA+9rqsADBtVsbAoaAIWAIGAJJgUACTEAJeESjQ2mWoEaH1G5oCBgChoAhYAgkFwKxS9mTq2ZNWxsjQU2Lvz3dEDAEDAFDwBBIGAJhtNYECY6RoCDRtXsbAoaAIWAIGAJJgoBag2qRyydJqpuQahgJSgjM4XpIq5bNI1SsucyI2FOw7tsKhqvNUtvmos/wacZqbAgkLwJGgpJXN01WsxY2U2gy7IN4MBlVjSAEgazd0xAwBGIRCGM/YyTI2rAhYAgYAoaAIdBMEAgjUQlSNUaCgkTX7m0IGAKGgCFgCCQRAoEa+kPIsJpH8EcSNUCriiFgCBgChoAhYAgkBwJmCUoOPVgtDAFDwBAwBAyBQBHQ1WEWIXgWxkaCAm1ydnNDwBAwBAwBQyA5EDhDgoKrSxgJlpGg4NqD3dkQMAQMAUPAEEgeBBwLCjQmKHkkrXVNLCao1lDZhYaAIWAIGAKGgCEQJQTMEhQlbZoshoAhYAgYAoZAjQjgsArhEq4a5Wn4CbMENRxDu4MhYAgYAoaAIWAIhBABswSFUGlWZUPAEDAEDAFDoD4IBBkTFEYbk1mC6tOK7DeGgCFgCBgChoAhEHoEzBIUehWaAIaAIWAIGAKGwPkR8DmCLCbobJyMBJ2/3dhZQ8AQMAQMAUMgEggEnScojCAZCQqj1qzOhoAhYAgYAoZAXREIOE9QkPFGdRW1ttdbTFBtkbLrDAFDwBAwBAwBQyBSCJglKFLqNGEMAUPAEDAEDIGaEQijtaZmaRp+xkhQwzG0OxgChoAhYAgYAkmPgG2geq6KzB12Lib2jSFgCBgChoAhYAjUGYHwZQoyElRnJdsPDAFDwBAwBAwBQyAKCJg7LApaNBkMAUPAEDAEDIELIICdpkWAxpoAb30Byep/2khQ/bGzXxoChoAhYAgYAqFCwJIlnq0uc4eFqvlaZQ0BQ8AQMAQMAUOgsRAwS1BjIdlI9zlZeUrKj1dI2bHjeseU1q0ktU1rPaJWTlSclGPlFXL8RIWKhoxpqSnSulXLyIiKbKXHTgiytnBrU9u1TZW2aSmRkS9WkNOnT2vbRacnKyvP6NTps63Ta6sI6RQ5T1RU6jtacbJSWjj/QpuU1tLWydqyZbTmlZWnTsmJEyelpOy4IDd65D1F1igV3s+yT97Ti9x7qn1RxNptlPTVmLIYCWpMNBvhXrv2Fcp776+X595YKqdcBzR6SB+55uIhctn4gY1w9+S6xbot++SVv3wkiz/arIMHMl5/2XAZlJ+TXBVtQG0+XLVNnpnzoaxYt0Pap6fJF2++RGZOG9uAOybvTyFAcz/cIC+/85HsPlCkFb1y0hCZcfkIyevZNXkrXsealTtSsHL9Lnn6tfdl/dZ90rF9W227yJmT1bGOd0vuywuKSuT9j7fKH19eLEdLyyW/d1en08FO1pGRIXxMPFcHvCnXAAAgAElEQVRt3C1/fnOZLF+7QydiU50+p08dHql2qy0t4IzR3D9spUlJUHl5ubz//vvy+uuvK26lpaVy8uRJad3azTTattXv+vTpI23atJHVq1e7WUgr9+K1lB49esi4ceNk5MiRsmvXLvnggw9kxYoVOlOBOPTt21fGjx8vQ4cOlSeeeEK2b9/uZjMnqnRz7NgxN3trIfn5+XL33XdLampqUuiN+tPhrN60R267bry0S28jS1dvFwZSiEGXTu2kpat3FMqpU6dl9rvoTOT2GZOczlvK24vWSJ/uXSQ7M0M6djij/7DL2ikjXUYP7i19e2fJWwtXS4kbSKJa5i/dKBu27ZPBfXPkBjdInjp9SrK7ZEh7Z/2KSqG9Fh8pkydfWSK9cjrJ+OF5UlZ+wrXdtTIwP9u9s6mO7EZDXvqjjdv2y5x5K+XKyYOlk3snt+w6JAuWbdI23c29p21SmnQIaXCzQp/lTn8vOALULq2NfP7GSTqOvOX0md+rq3Tu2E4y2qU1+DnJcgPigYKMCQohB5ImbcGYHSE2aWlnGtmGDRvk8OHD0qVLFxk2bJhs27ZNDhw4IO3bt9drPFkpKyuTnTt3ypAhQ2Tu3LmyZs0aJU5cA4mCCEGwKBAovoc8USqdmX7RokX6l+fQ4JOlFBWXys69BVr/6VNHKAk65GZiWIcYXMa3z5eWKeEnQRXOlVBQXCLbXIc6bniu3OBkZQYB2dt78LDsdPJGhQR179pRLhnTX91DyBfFwjvEbHrp6jPy3XjFKBnSr7sjQafde3ZKJHlesQbDX378hOw7VCybdx6Qq52Fdur4AbLXfZ77wQZtzz27dYoMCcLys2t/kRwsPCqXTxgkPbI7ybtL1snr81fpRA3XbthJEG6w/QVHZMvOg2rdumHqSCktPy4LnXWafnfvgcORIkENfgEieIMmJUEQlIsvvlgPirfaYMm57bbb5He/+52sXLlSevXqJbNmzVIyU1FRITt27FDrDoTn3XfflczMTPnmN78pnTt3VnJTXFxcZVG6/fbbq9TG9ViOioqKBAI2ffp0SUlJHt/2bvfC4YPvltnBzUDStd7MRuiM1rhOZ9RgZxUL+cwLmcpdnMyWHQectS9Fsrp0kA7t0zQuaPiAHrLv4BHZsafA/b9nld7C/B/IHOb1/W6gbBnk2tQmBAmrHm2UAaOr02eG0+dWRwhSXFtlFt2ubZsmrF3jPho59zhXX6Z7P7t2bqeWnw4ulmTcsFw54AZTCBLvbBQK5KekrFyyu3aQTGeFJkYmp2uG5PXIlJUbdinR9f1UWOUlrmu7628y2qc6fbaX9u1SHWc/LaMH9ZaiI6VKAqPing+jlSYR7apJSdD5BMQaMmfOHHV5zZw5U91jEBdIC26s3r17C24tSBFWoPT0dD2PZQkyVJ2Fp6SkRIkVROmSSy5Ra5O3EJ2vLok6V3z0mLq76Fh9YbZFcHTRkWPVypSoujXmcwgmPXS4VAdHH2CJ7jp1SJfd+w/LUReEaSU8CGAFOlB4RFq4uK7Vm3bLvz08W7bvLpDcnpmCVejyCQM1cDgK5biLBzpSelxwc3qZWrVqoSRhg3MdHXOulagUgqErTp6SzhntNPibAqGnf9q7fb/re88Ev4dZXgLcDzv3ZgdH1tNSz7RRQiVwg2EhKotYX4QWIzoXq3czTEoSBEnB5YVFB3LTrVs3JTgU/kJcaKgcgwcPlqVLl8o999wjAwcO1M8jRozQWKLYcujQoarYoRtvvFEuvfTS8xKg9evXy5IlS2TZsmV6m48//ljGjBt/1j0b+4Mnbl5W7q9iu4NzSeS5a7DoyKPe6ZjpiZe7OgLb4AfaDQJF4KQbLBk02qa2kemXjdBBZJ4LksaCifUSd0oUClYCbbuxDZd27EaWKL6j+DLjRNXPp531Lxp+znP1qV2uizqIioTx753FBJ2NSFKSII0xcK4rDiw7uM3iC50QFqCrrrpKY4a2bNki+/fvlz179mgs0cSJE/WgHD9+XNatWyezZ89W68/YsWMlJ+f8K5CwPGVnZ0u/fv30HjtcDFKLFsEu3WaWRRwFgXq+4DoiroJl1VFh8LiFsALhAmMmRoHgYZpmGXlqRKwGVUqM+H94F2mfWDFx5U4Yka+uBWLcPnKrbda7VYBRIUGt3QQMt1Cpa6s+DQBWawLeU1xwP0dUCpYudIqs9EsUrD/lx09Kunt/o5AOgAk1bbfcpXXAQk1B1lJnAWrlLJtY4aNTPplRR0egRpEkKTVMp+pXgmEVYmVXTbE7kyZNUusPcUIQnYULF8q8efMEy48nQcQPYS2CHN1///3Sv39/tSKdrxCHxDFt2jS9rKjocNWAfb7fNeRcF+KAXF9T6AYPzO6tnZn9kPPLk7+if5+sSHQ64NPadSzEFpS4zrX4aJnm0IHo7dpXpDmCWAVnJTwItGx5kXOZpKtLKNNZgHAtUPjMqj+f8yo8EtVcUyYqyFro3Lklzi3GwElqAIKis12bznDL5aNSOrrYLqx4BwtLlCRUtj2l7+uhoqPS0wVJR2Gykurky+rcQYpLjsnRknIleRWuPyIuMd2tFkPXVqKNwPmZQBPJruzcWWI4WDZfWFh43ppkZGTI8OHD5TOf+Yz867/+q5Ic3FcUrEoswV++fLmeHzRokLrYkrH0zumiRGePCzAlkPaY61zJpQMpGuWWpEIeolCYSQ/IzXazrRNuNVixG1BKnKwn5AO3eiq1TYr0c8vJo1U+WR7l/3zyNyoyYi0gVw4EiFk0bjHeu00u+P24sxoQLB2VAsHrld1ZV22ykpF4kkIXQDvPpQfIcSsBe7jVYVEpWPWQl4B3ZCVIesceVqrud4HgebqgIewFi1aeC2Qn7QFyFrpVq8QkLlqxxa1QTZdcFwQemeIMQbgygzzCiFXSjqpYg6677jph2fzzzz8vd911ly6Rx0W2e/duXR02evRoXUIPWSJ3EIVzWI4IjubaN998U11lubm5cv3111flH0pGZRF8yHLq424m8v1fPOtM0S1dAGZbmTy6n3auUVlddCauq4Xc4pIGLlq+Sf7hp08703NLl2guQ4YO6K4WhKiUxa4zJXngus17ZO2WvY4Y7NflxdMuGSoTR+ZHZjk1+rr20uEyf+kG+dH/vKRknlVjk0f1lcvGRSfRJ+8oK6K+NHOKJvmc/e7Hzl3fWiaNyneriLJ1ZVxUykUuMIYVYNe7FBb/9Ye3NA0COZBot3ku6D3NTVjCXtSV66x7t7v8QEtWbJZv/8dT6gIblJftZM+JpCUoJgwz7OprlPonNQm68sorNQBx48aN8tBDD1XFBkGGID2sDCPZIm4u4oZwoRUUFOhSemKFIEEvvviirFq1SmOA/vjHP1aBxrUEXN900001utoaBeE63ARZB+R2c3K0kB4u8yxueDLQ9nOusKhtm4GsJJqjUyU3Eh1ubs8uaiGKkh++m7OCTBiRJ/lu0LjK5ZXBakK8DO4EXEVRKrRdZpkku8QihDthoBtMcH1GqbR1cpFRGFfJQecawi0EKWCiEqUtX9Bl96xOco0j7FmuzeKihwDm98rSmCDi96JQ6G8mj+qn6Rz2OIsXOsQCRJbzqL2jUdBXY8uQVCSoZ8+eSkgISGaQxK1FUDOmdTJC4ybjYOUXpIZrie05cuSIHD16VAOl+W7ChAm6BJ57tGvXTpfU4wLbunVrFX5cy30JakymwtLbsRxDc5OpWoHUhcExagNkPFAMjhzNoeA6od1Gve0ySPbK6axH1AsLGAa7bPUcUS1Y93p0w5UZrS1PatJXkNQ1yJVnNcnT0O+TigRNnTr1LHkgMcT6cNRUSIYYmxAx/roHH3ww/iv7bAgYAoaAIWAINDsEIECMq4GVAG8dVJ2TigQFJaTd1xAwBAwBQ8AQaO4IKAlq7iDEyZ+Uq8NMR4aAIWAIGAKGgCFgCASNgJGgoBG2+xsChoAhYAgYAoZAUiJg7rCkVItVyhAwBAwBQ8AQaGQEzB92DqBGgs6BxL4wBAwBQ8AQMASiiUCQK7jCGG9k7rBotnOTyhAwBAwBQ8AQMAQugICRoAsAZKcNAUPAEDAEDAFDIJoImDssmno1qQwBQ8AQMAQMgXMQCDJN0DkPC8EXRoJCoCSroiFgCBgChoAh0BgIhDFupzHkruke5g6rCRn73hAwBAwBQ8AQMAQijYCRoEir14QzBAwBQ8AQMAQMgZoQMHdYTcjY94aAIWAIGAKGQEQQqEoRZP6wszRqJCgiDdzEMAQMAUPAEDAEzo8AWYKCY0HB3fn8UjXkrLnDGoKe/dYQMAQMAUPAEDAEQouAWYJCqzqruCFgCBgChoAhUHsEWB4f6BL5EJqCzBJU+/ZjVxoChoAhYAgYAoZAhBAwS1CElGmiGAKGgCFgCBgC50MghMaa84nT4HNmCWowhHYDQ8AQMAQMAUPAEAgjAmYJCqPWrM6GgCFgCBgChkB9EDBT0FmomSWoPo3IfmMIGAKGgCFgCBgCcQiEj2GZJcgasSEQcQRYDXL6dMSFdOIFuuol+vCZhM0CgWDzBIURQiNBYdSa1dkQqAMCFzl2YAShDoDZpYaAIdBsEDAS1GxUbYIaAoaAIWAINGcEgs4TFD5nmIjFBDXnN8JkNwQMAUPAEDAEmjECZglqxso30Q0BQ8AQMASaBwJYafzRPCSunZRGgmqHk11lCBgChoAhYAiEH4EgfVZB3jsg5M0dFhCwdltDwBAwBAwBQ8AQSG4EzBKU3Pqx2hkChoAhYAgYAo2GAIvkrfwVAbMEWWswBAwBQ8AQMAQMgWaJgFmCmqXaTWhDwBAwBAyB5ohAkDnDwmhjMktQc3wLTGZDwBAwBAwBQ8AQELMEWSMwBAwBQ8AQMASaCQLJYK3ZunWrvPPOO7J582Zp1aqVTJ48Wa6//nrVQHl5uSxdulQWLVokR44ckYyMDJkyZYqMGjVK2rRp47YAOi0ffPCBLFu2TPbs2SOtW7eWK664QoYNGyYdO3assxaNBNUZMvuBIWAIGAKGgCEQPgSCdIXVBY3S0lLZsWOH7Ny5U7Zs2aLkxpOgTZs2KQlau3atkppdu3ZJWlqadOjQQQYOHCgHDx6UJUuWyOrVq/V77jV//nxp2bKlkqm6FiNBdUXMrjcEDAFDwBAwBMKGgDcBJYEpKCcnR2bMmKFWnF/96ldnITl37lwpKCjQ8zfddJM899xzsnLlSlmwYIHk5+fLRx99pORp5MiR8qUvfUk2btwo//3f/y2pqakyceJEadGiblE+dbs6bEq3+hoChoAhYAgYAoZAUiHQqVMnGTp0qPAXIhRbVq1apS4yCA2bP2PdwQW2Zs0aqaiokA8//FC6du2q7i8sSFiHuMfhw4eluLi4znIaCaozZPYDQ8AQMAQMAUMgnAiQJyiof7VFBGtNSkqKurAgOrGlqKhIv8vMzNS/EB5IECSnsrJSDhw4oFafzp0763nu0759e70F13BtXYq5w+qCll1rCBgChoAhYAgYAtUigKWGWJ2nn3666nxWVpbk5eVJnz59qv1N/JfcgwK5oWDtofjvCZyGPPnz/hoIEefqWowE1RUxu94QMAQMAUPAEAghAhhdggyOrqg4IZs2rZOysrIqdHB74a6qLQmC4FBOnjypbjH+QnD893yHtQerkC9cwzM4V9dS91/U9Ql2vSFgCBgChoAhYAhEHoG2bdM1mPnv/u7vqmSFvHgCUxsA2rVrp5exPB6Xl4/z4XvcaHx34sQJPe8L1/A9MUbx7rULPdNigi6EkJ03BAwBQ8AQMAQiggAROIEd7sZYY1i67g8f+1Nb+IYMGaLWHwKgT506pcvhITY+AHr06NG6TB632/Hjx3V1GKSIJfTkFKprMUtQXRGz6w0BQ8AQMAQMAUOg3giwxH3hwoVKYFasWCHbtm2TRx55RCA4rPpiSfycOXNkw4YNmlCxd+/euloMlxfXkEuI32EBKiwslOzsbBkxYsQ5K81qU0GzBNUGJbvGEDAEDAFDwBCIAgKBmYFqDw7kBUsOBxYcLD1Yfnbv3i2DBg3Sg0BorEBYg4grGj58uLrVcnNzlQjhHuM3JFOcMGGCflefYpag+qBmvzEEDAFDwBAwBAyBeiGAtYejpkIQNckSqysQpmuuuUaPxihGghoDRbuHIWAIGAKGgCEQAgTIERRcCfLewdTaSFAwuNb7roeKjsrazfvkw1VbdRlgn+5dZNiAnjIwL7ve90zWH+7cWyjL1+6QzTsOuKj/i2RQXo6MGNRTcrrWfRO8ZJWReh07XiG7nKyLlm+SgsOl0qF9qgzKz5FRg3tLetqZHBjJXP/a1m3xR5tl1cbdTsYSSW2TIjOvHSs9u3Wq7c9Dc11FRaXs3FcoS1ZskX2HiqVtaooMzM+WUYN6S8cObUMjR20qeqTkmGzZedC13c2uHZ+QrC4dZEi/7ior72wUSqVzt+zaWyRLV2+T7XsKXFxJS+2LRg7qJV07n0nCFwU5kUE9YdFQW6OppElIEIM70d/r1q3T7I98JrqbQmS5X07HxmhsoIZpzOcY2L9/v2aF5Dq+4z7sJEugFf/nXkSld+vWTfcZIeCKZ3AvX/Ax4m8kCdMll1yif+u6rK7RNBBzIxJdrt28V+Z+sEH2HjwsrVu1lN0HDktZeYX0zO6knW0y1LMxZEdPdKwrN+yU4qPHpJXreCBFbdq0kk4d0t0genYq9cZ4ZlPdo6i4VGa/97HscgNnxclKadWyhWzddUiyMzOktyO56DkKZY9rs+u27JVtuwtkz/4iuXRc/0iSoJKycnlz4RrZ4sh7uSO4rVq1kI3u/50z2knbtBRJad0k3WqjNyH6o137iuTNBav1L4Pn7v2H5UDBUcnr2VU6pKe6vjr8YaWQ2vc+WK9tF922cu/jNvd+tnfydWiXKm1SotMXNXojibthGPlVk7ytDIAkU3r22Wdl3rx5SoD27t2rAzxL3Di4Zvny5eo3vPPOO+UrX/mK5ghg87Rly5ZJenq63H333QIpmj17trz66qt6H8gNm7NdccUV+pt3331X3nvvPSVJvhCUdejQISVKL774opDRsi55DIJqSBUsC1y5TXa5AeQHX5shXTqmyy+feEdWb9ot44fnSt/eWZEYME+dOu30dFLmzF8pIwf2kr//wtXa8fzDfzzlOqJ9kt8rS3rndA4K5oTet7LylOxxRPaJlxfLA/fdLBNH5MmazXvkJ/9vtly6/YBaDrp0PJMXI6EVC+Bhwwf0ktzumWol+ekjrwXwhKa/JfrEmvfcnA/lq7ddJldOHqwTlm//x9Oycds+6ZbZQbo5a0kUCsnoNmzdpwThJ9+cKXm9usprc1fKq47Qb9l5QK3T7dqmhlpU+qKS0nJ5+S8fybVThslNV41WYvtt1xetd7L3yukk3bOiZ80MtdIaufJNQoIgM+z1ce+99yqRgZCQZhsSNG7cOBk/frxGhN9+++1qyYH4kBjJ7w8Si8Err7yilp5Zs2bJmDFj9BQkB1KDteiWW26R6667rirlNuefeOIJWbt2reYdgHDVddfZRtZB1e12OFPsSdfxdM/KcFaCDtLCzbIGOTM71qHla3Y4YhANqwFm9c2OAKS7WXOOk7WzIwGQovHD81zac5dxdPv+yJCgQmcF2ucGSXSa0zXDucLSnIm9g0wamS+bdux3nWznyJCgPt07y5GScnWHBRt3ENQbeOH7Fjv30M69BZLZOV3bbsf2bXXQvGxsfyW7u53FJCokCFdfcUmZa7sdJdu1XVy3vZ2OB+Z1kw9WblVLZthJEJafzY7QZbRLUzk7Z6TLkdJjMnlUvhQdKVWLbdRIUBitNRd+M+t/RZOQIKoL8WBjNAqboeH24jvW++PmYhaCW6tXr166FO7tt9+uNhocCxLX+r1JIFLHjh3T7/g/9+WgYClih9qCggJ9xqc//emkcYVRv8LiMjU5Yx3AMkLhpcQ1tL/giOC7jkLB/Iw8dKqYnHEPVVa2cLPoDI0POnzkrynXwy5v6bHjctTNNIktSEttLS1dG+dvjutw9x0sFs5HpeAGSnFuzajEilSnFwhPkWufndx72Ta1jbqDUlJaSY/szrLXkSB0HZUCoT3u3lUslW2cjOi1fXqayk7bPX7iZOhFRYZDRSU6OUlve0afrdwEOsdZf7bvPqSu+sgVY0FnqbTJSFBtGhYkhtwAEBYSJ2ElwkIUW3BpkUwJtxeuMYhV9+7dqwiWv5Z4IbJMvvTSS0qOsBqRmbImKxDXbt++XfMWUDZt3iQ53XvUptr1vub4iQqtW6wPmoGFjrbsWLlzEdb71kn1w1O4Q53FB9l8PAzkL82RPdygx51VKCrl5EkXf+bigNJdPBcEiKJEyAUOn3ADzEnnXrESHgSw1NI+0Z+Ph2lxUQuNBULPHFEpJ5yc9LeQdh+LSPwT7+0xF6cY3xeHUW5kgNhC8piMUVq4zgiZK3HbR0ifCdFPCAlWUpMglNa/f3+18jz55JMa1xO7MRvnJ0+erPFETz31lFqN+vXrJ2PHjlWSw+/8y0swNRkmiUH64he/KJdffnmNBIj7EmzNtfPnz9e2s2PHDumSecZypV8EUOhU4TmnYgZGXkSIAecgClEoiKHWH9cB4ZP35eQnBNeThSjIyuwZol3hdIoeKfwltkTPRUWpUVBWLWRAX7RP9Of16TTqFmV8os+IrJgCCtot/SdE3b+lp937Sp90pj8Kf4eEfMgSq09kRZ+8mlG2ataiuTeLS5KeBLHvCCmzp0yZIgsWLDgngBnCk5ubKzfffLOSnKVLl8rDDz+sGScffPBBTaNNZ0UabtJyEx9EdknvIqtJy1iJIFR33XWXXvLgz3/uXopgV/Hgl2ZmQtyBLwTtES/TybnIojJg4urDxI4rCIsQBR0ddvEzkKN2ziwdlYIrk1V9pD7ws0osQIXFJdLeyclqOCvhQQArbfv0Nhov4i2W6LXA6RdLZprTdVQK7yHvI6sb/WQFCxB9Em76KKxqbO2sWoQfkAqAVBYU+mDezxQXUxqlFBZQVmL1ohqvV9/3LhTrG3v06KHkhRTZW7Zs0aXwvkByMjMzdRXZ9OnT5W//9m/VCsR+IliOiANildn777+vK8quvvpqtRjV5AaLvS/XsystR2qbVEeCgoWLZfDMMvG3M2jir97ogoSJFRrucgWRvyIKBWLQr0+WlJYd1zwrxABhkib4m0GG5bdRKZDXrC7tNWh2/6EjOoCg2w9XbZdcJ2eWC5K2Eh4EiGEj99HBwqNywOmTwZO4kUUuR1J2ZkfpHqEcV7RbYoBouwddDB8Tll37C11A/wEZPaS3tHeTtrAXFmfk9shUHfJ+Fh8tc8vkj+sq3QwXJ8TChUgVx4SwcAV1hBGrUExD2VsEyw6rw4jRYRk8sUIUVoaxEgyiwnmWu3fu3FnJEsHRxPawURv7i0CksO5AbpKx0OH07d1NDrnVNX+a/b5aEHa43DmsWmB5PAF7USjIwUxyaP8eLufIEXly9mJdycfMmk6nR7foJEuE8JH8cezQXHnfrajZ4JZRHy09rtaufk6nkKSolI9c4ss1m/bIx+t3OeJeKq/8ZYUUuuXkA9xqIlY2RqEQO5LVJcMluuyjiSEhCLTbNk7Peb0y3aqxaKQ7QFd+NVhuj666LL6dI4BMWmizg/K76+rOsJfWrt/J7NTOTTJ7ufxWh+TJV5ao64+jjyNHrICzUnsEwuggDQUJguSwlP2yyy7T2CB2nvUkiP+XlJQo+WEgZSk98T9dunRRlxdWoMWLFyshys/Pl61bt1bFCZEksWfPnro67UKWodo3g/pfif95zNA+zgJU4fJxfOzMsuKIQncZN6yPvqhRKWdmIS1kmsvLQSK2xR9tUb/8RLdsfHDfHJegLPwzTK8rYg7IHXPHjZPkz28tk9Vu4OzidEl+GbKBR8l9goXg/Y+3ap4g8jxBhiANHTukRYYEoU8sBGTDfsXlllnosoDTXq+cNEj6ujw6kXKfOFkh6tddOkxecG0XCwlt9hKXDiC7a4eqQP8w90v0RWQ3n3HFSJkzb6Va9Ji4kMJiQG43Xb1qJdoIhIIEoQIIyw033KCrwMjx4wsk6OWXX5b169e7papnZiYES8+cOVN3p+UcsUJkjCYvUWwh1uiBBx5QctS2bXLMyLGE9MweL7deO06rSqfLixrFMthtHUF6eh9gekbW6AlLLpUJLgfSuGG5Z6aYao6OXlD0LdPGys3XuFxdbhrNTFpjECLYfhkkR7stT9hWwQtKnEUUg2gzO7WXqy8e4kje4DNdkFMqsYnoNSqFuKfhA3rIMGeZjnpfpO9kVBTXSHIkBQnClfX5z39eRcLiQ8Ey89BDD6lFx3/GsvO9731PV4ixNJ48Qri4WDrPd96awz2IE4IU3XfffboaDEsQlqLYggUoz60gg2AlS/EDh7SMflP96wDZPGRtGaGBo7r3RQP3Iy6jl5u2G3V9niVrxPujZtMXGQs6p+tKChLkV4DF1o5GOXLkyLMqTBA0sUGxheSKHDUVlthbMQQMAUPAEDAEDAFDIB6BYJc7xT/NPhsChoAhYAgYAoaAIZAkCCSFJShJsLBqGAKGgCFgCBgCEUXgjC/M8gSdrV4jQRFt7iaWIWAIGAKGgCEQj0AzCduLF7vGz+YOqxEaO2EIGAKGgCFgCBgCtUYghGtcjATVWrt2oSFgCBgChoAhYAjUhEAIOZCYO6wmbdr3hoAhYAgYAoZAhBCwFfLnKtNI0LmY2DeGgCFgCBgChkA0EQijuSZATZg7LEBw7daGgCFgCBgChoAhkLwIGAlKXt1YzQwBQ8AQMAQMAUMgQATMHRYguHZrQ8AQMAQMAUMgmRAINk9Q+HxtRoKSqXVaXQwBQ8AQMAQMgYAQaEbb+9UaQXOH1Roqu9AQMAQMAUPAEDAEooSAkaAoadNkMQQMAUPAEDAEmgiB8DnDxPIENVFbsccaAoaAIWAIGAIJRyCMRCVIkKd3l7MAACAASURBVCwmKEh07d6GgCFgCBgChkAyIPBJpkTbO+xsZZg7LBkap9XBEDAEDAFDwBAwBBKOgFmCEg65PdAQMAQMAUPAEGgqBMwhFou8WYKaqh3acw0BQ8AQMAQMgQQiEDj9CfwBjQ+WWYIaH1O7oyFgCBgChoAhkFQIeH5iMUFnq8UsQUnVTK0yhoAhYAgYAoaAIZAoBMwSlCik7TmGgCFgCBgChkATIxCkxyrIewcFm5GgWiJ7/Phx2bJ1m7w6+5Va/qKBl50+LScqTkirlq2kRcuWDbxZcv/81KlKqaiokJSUFLnoougaJytOnJAWLVpIy1bRfu1OnzqlbTeltdOnkzeqpcLJeJHzLbRq1TqqIqpcp0+fkooTFdKqteuLWkS8L6qslJMnT2pf5JSbEL1u3LhBunXtmpBnJUaihIjSaA+Jdm/caDCJpKWlyp7dO+UPj/6mEe9a8614ETdv3ixd3cvRuXPnmi+MwJkjR47Izp07pW/fvpKamhoBiaoXAX22b99esrKyqr8gIt+WlZVp283Ly5N27dpFRKpzxdi+fbu0bt1aunfvfu7JCH3DBBB99ujRQzIyMiIk2bmiFBUVyf79+7UvQreJKIcPH5a8Pr0T8Sh9RoK4XcLkaeiDjATVEsGvf/3rMmvWLJ3JJ6IcPXpUvvGNb8jMmTNl+vTpiXhkkz1j8eLF8tOf/lR+/OMfS58+fZqsHkE/+Fvf+paMHz9ebr/99qAf1aT3X7t2rXzzm9+U73//+zJy5MgmrUuQD//hD38o3bp1k6997WtBPqbJ771nzx7V57333iuXXnppk9cnyAq89dZb8thjj8kvfvEL6dKlS5CPqrr3KWc5bdOmTUKeZQ85FwEjQediUu03zOA5ElWYhXDwzES9jImSLf45HTp0kJbO5dexY8dIy4qJPT09PdIyolusBUwW+BvltsvA1bZt20jLiD6PHTvmXH6tmkVfRH+LrJ06dYqsXi8Sc4rFjkGJMWvEj3r22RAwBAwBQ8AQMAQSjIARoHjAzRIUj0iSfCbgktlIlGNkPNTMqLEYYA2KcsHSheUg6gULJrFsiYqpaCo8sWBi2Yt64b3k/WwOLhtkJAYzUWEPCW87cCDjQWfBbiQo4a2wdg/EdXLllVdGOkbGI0FcxfXXX59Qd2PttNC4V02ZMkV69erVuDdNwrtB3m+88UbJzMxMwto1XpUmTJgQ+TYLWhC9adOmRT4AHFl5P6+55ppmMflsvDch3HcyEpSk+mMWDQlqDjNNT4KYWUe5XHLJJc1iNu1JUJTjgWinBLlH3XqJnFgvr7322sivDEPWnj17qpxRtsCbIejsUcZIUJKOuphjo76U2kNPh5OTk5Okmmi8akXdMuKRwooZ9WXjyBr11BVenwQKZ2dnN96LkMR3gvBF2WUdtDcsjMvvjQQl8QtpVTMEDAFDwBAwBBoNgaBZUKNVNHE3MhIUMNanXeZn8kCQEZkZFeZzgp75nu84x2dfOB97TaXLYMpB4Tdc66/he37P97GFz1iScKnF3jtIUXmmr6uvJ8/zsiArxdeH+oEHn5HBy+LreCYT75nm6c/Hy8hzPKaJCGQkgSVHLKZeDurCOf6Cu6+Pl8vjgAyxOvWYeJ1yD69vL6/XL889k1U7WIN2TbpEJi8X+vR19t9Rd4q/rjq9ci62TXjZ4mXlmkQEVsfK6uvAX9oV9ffvV13arcfFv9+x9/XygoNmJU5A8W0TWSixmMfKxfex/ZHXFX/53rdvfw8vJ5/9+x0rDvfj/lwHnkEX3hvfBquT0X/n60PdvP6pG3L672Jl9eeQwV/vsfQy8T0HbTYRstYXy2B7jvrWqml/F3zLbFr5mvzpBw8elEWLFskvf/lL+cIXviA33HCD+pwPHTokP/rRj2TTpk2aH4fCygR871dffbWurikuLpYXX3xRFi5cKGQV5SUn3oIg4iuuuELeeecdee+994Rn+MI13Hvo0KHyne98R90SQb+UvPxkfX7jjTfk3XfflV27dqlJmRgf4iaGDBki//Iv/6LxTciYlpYmAwcOlL/5m79RH/yWLVvkmWeeEZLslZeXa6eJ/Pfcc492TAsWLNB7xxZylyDn5z73OcWsf//+gev60Ucfld///veaOdeXESNGqF6pyyOPPKId4Ze+9CVNEkiHiH7Q33XXXSeDBg3S6+bPny+zZ8+u6lBJEHnVVVfJ5ZdfLk8++aTKS9ZlX5AVvYLJP//zP0t+fn5gsvIc2t1zzz0n77//vtYXXdKG0CVyMUD87Gc/0zZ40003yYABA7Q+JJnj3NSpU1W/q1atUr0tXbq0StaxY8dqrBv6IiHdjh075ITbTsQXkoRCDngWyRaDLmQIfuWVV4SEncjqB+0777xTtm7dqt9TJ3RJ2x03bpwmMMU9tH79en0H0ZcfHIcPH67yETSNfOvWrRMyLvtSUlKiWPJOoEvehSALg3Vpaam2TfSJfnhXKTzbP3/SpElCUkQyQyMr7yAyXHbZZdpuV6xYIS+//LKe9+QWOWkDYPZf//Vfel9P4LmGz+Tdob/inQiy8I7Qz/7617/Wx6Az2hWyUAfqWFhYqH/pL2677TZ9j3fv3q06REcsXOjdu7f2ybRl+lW+R++0V/+e06Zp274gM/3WgQMH5Lvf/a7MmDEjYQS3PphanqCzUTMSVJ9WVIff8GLMmzdPX5DVq1drhzJq1Ch9QfmOuB86CTrRNWvWaCcDSYII8XJCKBgkGVjoWHjZCCQmjobBh5ecTo7Cy8gAy8vOQAIJ8bP0OlS5zpfy3GeffVa3vqATmThxotaLgRxZkJPO5tZbb9XBkc4FcjBs2DAdeCBByH3xxRdrh0VHTb2RkYOBJTZQkd/QKX/00UdKDBKVyh856Fw/9alPVWHEYAhJoBPeu3evDurENw0ePFgxgLzyne+UlyxZIhzoky0l0Duy+QSDkCr05mfW/AUrBlMGqqCXKaMbiB5tChmIY6ItMXhTkJE6sGXEX/7yFx1IPAnat2+f6o7f0iZeeuklxcUH+CMLhB8yjMxkH/bk3lsannjiCcUtlmjWuUHW8gfoBCKDHEwaJk+erL9k4EPuZcuWaf0hA+iUNoyMEFiyfjMYQhwgAugS2Wm//B8Sgb7YfsFbFZD/+eef13eYVUiJeDcZ9D2ppK1CcGlPFPSGXCtXrtRBnToxSUO/vs5gBFH8wx/+oMSPlVOcRxb6LvSIvKweAzf0yMFvfvvb3+o1iYhthFjST/p384MPPlB9MWmkX6FNQXZff/11lQ3CQ73oh9kmAz3TbiG+XMf7SF9NW+UdpfjYRdpJ7ESE39CG+A19AbpP6hKoOSjQmwcCq5GgQGA9c1M6A14wOhjf4TOYQYIovGDMrP02Csy+6Xh5qXhRmblxDb/FSkBhkOKFZwYHOeCg8DJDDiBazKJ5yb2FSS8IqHgyhwWIThVCx0BOoT4FBQU60DCwY+1g8MfiM3fuXCU+EDZkouOgA8YyxD3pkOi86XjofJmBU+h8mXmDKx3y6NGjE5bZlUELy1r8thfUl3N0uNu2bVMdQBbil8NTd7Cg7vfff7/qh0HKd8DoFTm9rMjLvSBR4EMHzzOCKpBW6s9AAWEF3379+unjICu0Sz87Ridet+g5NkiYQQNMPvzwQ22LzLoZIGjTDKoU2i8Dpy/o++OPP5bc3Fzdc4z2G3TBUgGZg8h85StfURJE3cEBEsfkhYHSW/GYpMyZM0fbLrN9SDjnP/OZz6gued+Rj9+iL//OIgcEAbKxfPlyJQ0Qw6AttDyX9gVp8XhC5NElhdWKtGfeR+rEZ/oaCINuGO0mJ+ABcULm733ve9oG6ZPQJd9zb4jfpz/96Sp10R4gIegSS5Lv76ouCOA/1BnCyUGh30BfyEf74zN6ZlsMZMLaU13wPtfQ737xi19UPJhweqLk87bRR/kC2QMb2i79G5O8pCdBAeAf5ltaxugAtUdnSqfDQH/HHXfoy8HLRwdCobNkhs3AwsDItQymdKi8qLEzSO5BB8tgEk9uuJaODXMwhIsZDC9kIgp1ogNgAGA27QkQz2Y2TUfjB3u+o1OmQ6KDpKP1gwadKZ0qciC3T0QXP1CAFdauDRs2yH333adEI1Gdjh/cqQMHJMBbSLy8dJAM8BAAdBZbvHUHDBj0kRUCBNmjs42Vw1v9mJXyLDpkCG+QK1cYvDZu3KgDG0TMEyBkQIcQTg7qiV45sGowsHvZuJa6o1vaMm3cWxP4jgEznshxDaTxd7/7nT4HS2KQLj+vE9oZAxz6Qg8MaLyzyM97RjuNLVgdqT/XITd6RFbaALrkOwhCfGoA5KMt/PGPf1Tig4WICUOi2u1ZQsR8oD2jc6xTkBUIq485Q3ZcdriB0C31Bit0CXkEO/QIHrGFa5no4d7Gkkg7SoRVryYZY7+nPdIn4cKlz6Ke6C+28BkZwAZZfX+EDPHtAb3S30L4aAtMAOnXrIQLAbMEBagvZlIMYHQEvBy8gAwEzLbpeBlEfQwInTAdJbMWZmN0RrjEcE289tpr2qFAMOis6JhiOx86J2Y9xCDgt05kPhrqjTxYBuIHt+qgpfNkECFOhHgeZolYGB5//HHtlCBwdMYMFFgE4knQn/70J8UUKwI4gFOiCp0enaePb2DARlex8Q7UCT298MIL5wzkDJAMfsiOnrkOUsGgz99Y9wgDKzNSnjdmzBi1PARdGNwYFCEg1PVCBTcDnT+yIoMvDO6QWGTCmsKBrMiBtQW98jtfcFtg3UP///iP/6j6T0TBikN747174IEH9B2lzsgFAYgvTGBwh+F2QfeQ0jfffFPfuVj50HGsfJ64Y9WjrSTLJqQM9ryPvMNY8rAGxRcsLPRbvI+Pupg4CBPWa3RJPwMxjJUVjHD3QmrZdNq7SuPv21SfIai33HKLfPvb31arLJOP2IJuaaM/+clPlLyhY+LYcHnS5/r+CJJE/43+CVngfuAUi0VTyXih54bPYXUhiRp23khQw/A77695ybDu0FnwAmEqZaaNlYAXje/ocMmu6wdYOiQCaT/72c9qR8NLxX0YnCBVkB1M2wRn+oEKFxomWe7PYMTLm6iXkc6AzpTOsqaZLbIxEBAjQKcBaaNzZMChzsQl/OAHP9DOxFu0GBQZMCB/DKjMyiAPYAHRwNLFjD2RBZJCzJPfNRwCFj/LZVAg1unpp59Wcgjh8wWdoG/kwQWB5QsXCQMHli3vaoAoQwx/85vf6L0YNGtDMBuKBbNgdAWunpAx6OMeI94LvUEcvJWGv3zHTJh2DXFjtoyc/J7BBj0jCwQLVwTXQeRxB1GwiPF74t9o88hb3WDcUNmq+z1yYu3CzcO7xTtGXbGo4g6kPfL5f/7nf9S6Q10Z6G6++WZ993DfMmji1kU+LJToEh1Pnz5dH4llifg1iCKWAt7peOtJdXVLxHe8uxzonXc3loT756NL2t7dd9+tVg/cRbRpyBC65D2EJHjLCbEx4IHlG1IZbz1JhFznewb9FMQHkktfQ98ZW7Dk4trjvcY674kORP6rX/2qkmZwos976qmntE2gb75P5ITsfDJe6JxTaWAlwFsHVmcjQQFBy+BAJ4GrgBePToOBjhgEiBGzXaxBuJB8MB8DBqsSWJFC3AkDDnEFDAx0xhx0pgyckCg6cGbRPgiQQYeBya/4CEi0s27LzIhZMbJB4GoqdKbgQN0YSPwKImagdLK4Voh94fDBw8gFBgxWfI+Jnd96y1pNzwrqezo/6hNvlUHXviAfHSizZQZWdB1bIFHcgxkmbcHHifz5z39Wyx+DK+SJThf3CqQWIljdANXYcoIz7jY6fi+T1xvPwioFQfEkCDLHgA4RgIQzaPB/X2jbuCshUrRd3gXiaBhwPQniOzDguRAHLIqJIvBgSvsj5ofBHaLHQM87hRUOawbX0G7BBr2hCwKl+Q4C7wdLdIZsHOjNkyCsP5B33hP0m6iA6Nq0DfTAgSyQNXRe3UAOkeGdQ+9gA9FDb0xUwAQSBHmGBEKAIBlYamkbidJlbeTlGt+eIeK0WSactFlIHIU60275jj4HedApCz8gfLy/kEb0CoHiPfaLHGpbB7suuRAwEhSAPryvnc6fl4jOhQ6Dl8cvG6WjjPdH+4A7Bk7uwTV0nhAEOltmHAwmWEXotOlQfcfDeWaaiRgsYyFj8CIYkYBRBkFmRt5CxWwJ2ZEF8oLbAFIXWzDH04HSGUPqsPLQsfI9AwvWEs4xkNDpEFBMh5xsnWusTJAD4g5YUYOLx1uLwAErDwXdcdDhorP//d//1dklusVSiF4htZxPlOUAMgsJwQKC5Q5Sy4DGrJ7Z/4MPPqjyxBYfxIyVD937YFPaNrqHFELu0Suuzx/+8IdKNjjPTBzrEO4oJgK0fwbkRBXaHQeFevN8BnoGfVZQYRmiTRI0zUw/1qpB/Xk/IQ0+IBeXmI+rQtfIx4IByC6WW7BK5ATlQjjSt0BqaZ/onH4HHGiPXj7kQG7aLe0a0gj5gwiCC79Bz8gNkae9QPbi3UwXqkuiz1N/JllM3tCJtz7S7yArn5l8YjGiTTD5RJ/+wNILHlj2wCMsheXxtkT+bG1ZYHQArZeOlYGMl4RcN8wisGKw+utb3/qWWj7oNGItCFQDwsQLiOmde/hVRgyOdEoMSgxOfGZghGRxT/4PwYAsJJoc+NgPBi/M/nQsvtBBMptikIsnfP4a5IHYYX1AZjpdiCKdMh0u98U9QSeEOZqZV23iVQJQa61vyaBB54j1AGLI7JmCbsEDC1Gs/BA93GjoD7Lsl/5DDBI5mFAHBns/q8f1SkEntFUGiPji3X8QAsgNevRtFdclbZTCd8jOX4KOIUwsoQcbSBKz7EQSIOqE+446UW/qT+Edw9JBG6upnXmCwHVet/yW/4MT7zdY4UakbeMWYoISZFC7Vr4ehQkH+bogo7Q92qgn696y5d22EAAK1yA77RyyQBuHFEDgcXFDMJK9oAusepB+Uh34BQ70y8hNO/B6pv+iT6I90G6ZkIEXE53YlZzJLrPVr3oEzBJUPS4N+paXB5cOnQSzw9g8NswGmTmSeAySg0XHD4p0IlgHiCFiIPLuL2bhzM7oWBkocJFAfHCx8VvM9pCJ2Jkqsxe/WqE6E3eDBIz5MaSL5375y19WNx5+cr8Khucyk8KEXBM5wwxPp4Llw1uxkJNOiiXa3jKC+Z3zuCl8LBCfIRtYyPzS2MaSqyH3QVZm2cRuQWwZaCkMLriUiJtAv37FDe0D/BhQOEenzP+Jk4IYUfjLd7NmzVKLRRAFPLEKkGST9kviOQ46f+oO7gSIxhZ+gwUJwkYME/riWt4BZGGw5DOyomsIAe2bQYdFAZAkyAOuY19o45AxLA1BFiYT6AYyBnnxFhDqyQBHu/QDf3w9kI82iyvPy8fACX60W9owxB3LGUTDk0HuAxa4W9Bl7Dsb/4xEfGbCRYwTBXnefvvtKpcYfRWDPDoFI/oh2jYHGNG+CZhGf6zso5Dnyech4jNthvczdgm9XtjEBRnom3k/kdkTfEgQ8WnI4fss9MsiDtok7ZSFKmDBu0Ef7N9RRMJVDgmM7fObWNRzHu9ED64Eee+Aam0kKABg/eDMjDDeVErnR8ZSZp/MQih+kOFl8svM+T8DBh0rL6Z/ISE3mGmxkjDwEzvECxxvZseszXeeWAQgZtUtqSudJYMXnSozJz9o405AZjLwQobiC50F570liPMQIMggMzXIHZ0KsiBzLJni/www8bLHP6OxPtPhV2eZQVbwJjYAy5gvxEow0GLVQnb0jFxYsxhYGAw5OIeM3oKE/Bzg6eVFj8gZJKGl3hAtvzoRAuODnakLeqL+yEtnT/v0v8EFQoEQEejO4IeFh/p6ty6yEisFMUYerD/eZcY5X/h/dThXXdBI/wFP6kp9GNQZ7JATGWjPuHBpy7Sx2PqhE+SibXurl9elX8UJRuDIu8pzYq1cnOPdT8S7GQ8V7Yp2TIFM0+bQI+QWObHqUC8OXJjo27uGeBfpa7yskBv6Iyy+tAeuQ+/I54vvE+LrEfRn2h59C++j1x06jXUto4PLnXseSxeuWt8fozOuoz2ga+TCwgVetGXiibgGLGNlRSbaTmxbCVrOutwffhJCjlIXEet17UVO0WdvPFWv29iPDAFDwBAwBAwBQyBZEfjlL38lq9dukJ/87BeBVfH+H3xX8vv0km984xuBPaOxb2wxQY2NqN3PEDAEDAFDwBAwBEKBgLnDQqEmq6QhYAgYAoaAIdBABJw/zHn4AisB3jqwOhsJCgxau7EhYAgYAoaAIZBcCNgS+bP1Ye6w5GqfVhtDwBAwBAwBQ8AQSBACRoISBLQ9xhAwBAwBQ8AQMASSCwFzhyWXPqw2hoAhYAgYAoZA4yPwyRr5IGOCGr/Swd/RSFDwGNsTDIGzEGB/Kjbl9FmiydVCDhKSW5LbpDHyx5CIk4NcUuSqIucPiTlJLkkup9i8NbGVIxswOawo5GXiqG955JFHNM8MeVXiczmRmYMcSiTYJIEkuWbIMeMTbFJPcgX953/+p+Zw8XuN1bcu9jtDwBA4kycoyODlIO8dlP7MHRYUsnZfQ6AGBCAZ7CtGFmG/3QR7TEGOSM8fWyAL9UnlxTPYboSM4iTcJMkdx4XuxbVsf0ImZBLnNaSwtQBbEEB24gtki6zU1BGCxnPBggzN4AIpIhEhmdXBxYohYAg0HIEwkpSGS33+O5gl6Pz42FlDoNERwNJDRtqvf/3rmiEca8ijjz6qu1pjCSJLLRmMuY6MylxLtmmyTPPZb7nBd2St5TpIBef5y2ey4EIifMEaRGZgn0EXYsIz/J5J/AZrDSSMfe+oAwdWI/8brufw9/XPx6rEdzwTMkPBolMd+eEc17LtwO9//3vdZ+uGG27QTTd5HlmJ2QbGb2waCz7fkcGZ+0LmPI4+Mzrfc1+/Bx2Ze8n2y3kIFvs+gY/P+Ax2yMD1yM05Lxsye+sV33Pe14n7ggvZgn1G79h62v8NAUMgPAgYCQqPrqymEUUAIsAWBezBxKal8+bN0323GMAhBLfeeqtuMfH444+rVQSy4d1nbMHCdVhu2LMNKw6kiQE6dv+iV155Rc+xWSbbPbBn1ptvvql7QjHwcw+2TmBLD6wvkC0sOWwXwL5mPI/P/IYtTijsBzVt2jR1eUHAHn74YVm4cKHeD9LF7unVbaYJUWIrEfbVuvfee3UvMU8mIBfV7bsEAYEg/du//ZvuqQep4Tp2uGf7Bn7Hvk7sdI8VCeLCdiRgx/0hmrNnz1acwIbtLaZPn671B0/2vmLzX8gO5AqZJ0+erGQOaxauPbavobBFyo9//GN11yXrFgkRfVVMrMZAIEhzUJD3bgzZq7mHkaBqQLGvDIFEIeCtIgzs7F2EVYXYHUjCfffdp4SG75YtW6bkgo0csVBw/Zw5c3Qwh0CwwSyupHvuuUcHZkgUsTbe/YUVhPOQGwgLm7RCGu666y7d74jr2EfL7y3FZ6xU7DPFnmFsGsk9IA7ECUEcIAdsPjlz5kwlUxAI9mJiPylcaRAmLEfxhftA7iAuHLHxQhAQvz+a39SS3yMjRO2WW25RAoTVB7Lz7LPPar25dsOGDWqtue2225SgcF/O8R3kh7/f/e539V6cg7xhWWIjVyxCECbkByfwI1aLa9gNnn2nIILUgfphKaKuVgyBsCFgeYLO1piRoLC1YKtv6BGAzDCQv/rqq2qdwQLEIE4wsHdvYR1iA04G8wULFiihYNCHKEGMIBFr167VIGbIB6QDdxeWDQZnzq9fv/4crHg25yBZEIHrrrtOLSqQCsgBpAASg7UEKw5WFupG7A6/hRhBkCBSBF5DLCBEkAasSAQws3klJO2xxx6rNgaJZ0GEPKGojUuJa5CLg99ygAdxRZAXgsz9ZsOQRqxAfMczvLsLnDwxgnyBIzigB3YIp958x3WQSmTlHnzmPhAlrmFjVe5Tm3qfowD7whAwBJIKASNBSaUOq0xzQAASAQmCOEBAIDysgML9AiHCysAgzmDLgI4bBqsN8Tu4pPgOYoKVwpMaT1A4hwUDCwjn4wdqns0zWIkFweLZFD7XVPgNri3IAOTH35PvqSPkA9IDAcNaAkFgZ3aIRnXuIggW1hRcVj7OpqZn+++xYEH0sMpQFz5jZcJqQ72of48ePbRuxDQRGwRhgZghI3jiAsSixYo5LGi4BakDFiTwJCCb3yMXOuBAP7gEIYGeZOG65L7V7SJ+ITnsvCFgCCQXAkaCkksfVptmgADWDAbXH/3oR0oWvJUDwoCVhr/xpARCwxJ63DKxMTNcCxHAGhNkgRjg9po1a1bV8nq+g9DgvosnW+erCxYVSBpWGAgMBO5CriWsPu+8847iQxwQy+6xgvF/nu3deL/+9a9l6dKlSjAJNMeaRRzU5z//eZk6dapaeObPn69kCqsVcVDI8fd///cad+VJG99BKKkX2GMR47fvvfeePOqC2P/93/9dLUVYiKwYAmFCwL0uVmIQMKe2NQdDIMEIMGhzQHSw2vCXAbcmIgFhwOKCSww3EFYUBmlcV1gyCNSFjBDYy2esNVhLsB5xXWxhUMfdhVUDCwjBxlhj/BJ1zmPJwWXlV3dRL9xFkC3ijKgzB8+BfFF/LCs8c/PmzWqxwhqD5QaLTXyBsGAxwiJDXBEuLV9PLDjUC1dfbKEu3BcChcsKSxry8Qxk5jOWIQgicUzELo0YMUKDr6kjvyeWCfJEHBQyYvnhL1Y47oU1y8sGtjyP+iM3liRWsEGacJFBxqqLd4qX1T4bAsmGABwoyCPZ5L1QfcwSdCGE7Lwh0MQI5OXlqUuG1U3PPfecWh+wnkB8brzxRuE81hhcZb/97W+VlBCvw4AeT6z4zCCOO4d4JKwa3I97YdngewgPgdMEXrMSbPz48Tr4Q0ywoBBk7K1AkB9IBFYqyAwB0pAxyAPEBHIXX3gWrjKCnFntxnOw3vA9lQ94qwAABBRJREFUbinqRx1iC8QH9xXPpm7UHQKE5YYDQgYB4zxEDjIFsUMeZGbVGvmIuJa64SIDN4LCCaSGLL344osaf4VsXAeZ4jqsP5BPMIc4UXeIKfhaMQQMgXAjYCQo3Pqz2ocQASwSU6ZMUatGfOE73C/eFcN5BlzcYLiEIA1YKDiflZWlVhwsQSNHjlT3Eue5B4M7Fh+uwXLENRAL4lw4T9A1pIMkjQz6fAf5wDKCBQWSAamATLHcnWXmEANIAlYeCAHWHIgEv73crQqjflh2ICB8P3HiRI3L4TnxBWsQxIl7QlAgUMjk6w5GkBeCxcEDeSCCPBvCBwZcc80116iVBuKDa43ne4JGHXzgN4QJbHzCSAgOMVjgQZ4ivkdmrEH8HisVZIkDubAU8X8I47BhwxQTc4XFa9U+GwLhQ+Ai98KfbS8PnwxWY0PAEDAEDAFDwBA4DwK//NWvZO36DfKzn//nea5q2Kkf/OM/SJ/eveQb3/jGeW8E7eDwCyOY8DCRuVBs4HlvWs+TZgmqJ3D2M0PAEDAEDAFDIEwIkCMo2DxBtYu6xs2OC/xPf/qTxuxhtcWa7K3DicTUAqMTibY9yxAwBAwBQ8AQaMYIYAEiPo8YPFz0uLRxg7OiE1c3Cx0SWYwEJRJte5YhYAgYAoaAIdCMEWCRwbZt2zTOjni8O++8U2MeiSUkBtHvZ5goiMwdliik7TmGgCFgCBgChkATIdDCxd1UugUARUWFgdXArwolxYQvLH5gxarPfcYiBVxgJDclYStWIBZZYBVieyAWU7ACM1HFSFCikLbnGAKGgCFgCBgCTYQAKR22btks9/yfLwdWg31798nKj1vrak9fWG1KIlJydFF8/i2Ijl85yqpU0mDgJqsut1hgFXY3NhIUJLp2b0PAEDAEDAFDIAkQgISQKsMnQQ2iSqTOoMSu8iLRK2ksfOEa4oJ8dnZ/PYSI1WKJXrBuJCiIlmD3NAQMAUPAEDAEkggBko1yNHUhbxmEh4zrnvBAzAiIxiJUXV6xIOtsgdFBomv3NgQMAUPAEDAEDIEqBEhQimuOLXsgPliGyPjORtFYqhKdid1IkDVOQ8AQMAQMAUPAEEgIAtnZ2ZoBngz3Pvs7+w6yMowNj9mqJpHFMkYnEm17liFgCBgChoAh0IwRwAUG4XnhhRd002UK8UGsEPva176mBCk2XihoqIwEBY2w3d8QMAQMAUPAEDAEqhBgnz9Wgs2fP19jg9jjkA2cyReU6JggI0HWMA0BQ8AQMAQMAUOgWSJgMUHNUu0mtCFgCBgChoAhYAgYCbI2YAgYAoaAIWAIGALNEgEjQc1S7Sa0IWAIGAKGgCFgCBgJsjZgCBgChoAhYAgYAs0SASNBzVLtJrQhYAgYAoaAIWAI/H8IGE/wykzPLQAAAABJRU5ErkJggg==;" vertex="1" parent="1">
          <mxGeometry x="-110" y="100" width="577" height="523" as="geometry" />
        </mxCell>
        <mxCell id="UvNmW9uRSmQOysR8gcpT-2" value="" style="shape=image;verticalLabelPosition=bottom;labelBackgroundColor=#ffffff;verticalAlign=top;aspect=fixed;imageAspect=0;image=data:image/png,iVBORw0KGgoAAAANSUhEUgAAAkMAAAITCAYAAAAEtxhsAAAABHNCSVQICAgIfAhkiAAAIABJREFUeF7svQd4nVeVLrys3nvvxZblKsu923GckO4kTkgIZEJImPtwhxm4BMjlzvwQmOHmvzDM/8AMA8wNTGBIMendcYl777asZvXee6//etfxpxwdW7baJ58jrW2fRzpf2eXd7d3vWntr1iAH0qAIKAKKgCKgCCgCisAMRcBphpZbi60IKAKKgCKgCCgCioAgoGRIG4IioAgoAoqAIqAIzGgElAzN6OrXwisCioAioAgoAoqAkiFtA4qAIqAIKAKKgCIwoxFQMjSjq18LrwgoAoqAIqAIKAJKhrQNKAKKgCKgCCgCisCMRkDJ0Iyufi28IqAIKAKKgCKgCCgZ0jagCCgCioAioAgoAjMaASVDM7r6tfCKgCKgCCgCioAi4KIQKAKKgCKgCCgCioAiMNUI4A9gDAwMEH7OmjVLPk5OI2s0xvNGPm/2/FjKo2RoLGjps4qAIqAIKAKKgCIwKQicOXOG3n77bbp48SJ5enrSF7/4RXr00UevGzeI0K5du2jfvn2Un59Pbm5u8vyaNWsoLCzsuu+M5aKSobGgpc8qAoqAIqAIKAKKwKQg4OHhQREREeTs7ExHjx6lqqqq68bb399PRUVFdOHCBert7aWtW7dSXV0dnT59WkjR3Xfffd33xnJxZD1qLLHos4qAIqAIKAKKgCKgCIwBgaioKLr99tvpscceo8jIyBHfBAE6d+4ctbS00OLFi+npp5+mxx9/nGpqaigjI4N6enpGfHe0N1QZGi1S+pwioAgoAoqAIuDgCLS1tVNnV5eppXB2svj/WCfi6upK7u7uhJ9GCAoKIh8fH1GEoA6NFECGzp8/T8HBwTR//nxRg5KTk+Vna2srNTc3U2ho6Eivj+q6kqFRwaQPKQKKgCKgCCgCjo/A//frl+jVHW8T9feaVpioMD/y9fYYRnCWLl0qKtDq1avHnC78hRoaGkQ98vX1HXrf399fHK4bGxspJCREHLDHG5QMjRc5fU8RUAQUAUVAEXAwBKqrq+lKcR05+SeYlvP+gTq6/871tGnTpqE0wsPDKS4ublxpggzBbwhkx1pBwu+4hnsTDUqGJoqgvq8IKAKKgCKgCDgKAoMDRK5e5OyfZFqOnZ06xZz1wAMPTEoaIDzYbQbS093dPRRnF5v74ISNz0SDkqGJIqjvKwKKgCKgCCgCDoUAm5MmYFK6aVEnOW6YwrDrrLOzU3aRQSkCKWpraxOSFBAQMCETGcqju8luWqv6gCKgCCgCioAioAjcKgTgdA2fo9raWtk9BiKUk5Mju8jgN4TPRIMqQxNFUN9XBBQBRUARUAQcCQH4GU+yejOe4mOH2IcffkhZWVl08uRJys3NpcrKStqyZcvQydQ4UDEtLY3S09PlPrbYf+tb3yKYyGCKW7t27Q1PrR5tvpQMjRYpfU4RUAQUAUVAEZg2CIx/59VkQeDl5UU4awhmLzhXwyEa5jDsGMOf6UDAMzCTYes8Tpv29vaWrfguLi60YcMGmjt37qRkR8nQpMCokSgCioAioAgoAo6CgMk+Q6OEISUlhfAZbVi2bBnhY0ZQnyEzUNU4FQFFQBFQBBQBRcBhEFBlyGGqSjOqCCgCioAioAhMAgJm+wwNTkIepzgKJUNTDLgmpwgoAoqAIqAI3DoEhAmZ60A9eOv9kcaKr5KhsSKmzysCioAioAgoAg6PgImExcSozYJdfYbMQlbjVQQUAUVAEVAEFAGHQECVIYeoJs2kIqAIKAKKgCIwWQiYbSabrHxOXTxKhqYOa01JEVAEFAFFQBG4tQhcdRky99BFx7OTKRm6tc1SU1cEFAFFQBFQBG4BAo5HWMwESX2GzERX41YEFAFFQBFQBOwNATv4Uxz2BokqQ/ZWI5ofRUARUAQUAUXAbASUEA1DWMmQ2Q1O41cEFAFFQBFQBOwGgatOQ0qGhtWIkiG7aaCaEUVAEVAEFAFFYKoQMNFnyAGJlvoMTVW703QUAUVAEVAEFAFFwC4RUGXILqtFM6UIKAKKgCKgCJiEgFjKTFSGTMq2mdEqGTITXY1bEVAEFAFFQBGwOwRMPnTR7sp78wwpGbo5RvqEIqAIKAKKgCIwjRAwTl6cRkWaYFGUDE0QQH1dEZgKBIqLi1nVnkUBAQHk5+c3FUlOaRrt7e1UXV1NHR0dtGDBAilreXk5NTc3U3R0NPn4+JCzs7Npeerq6iJg7OrqSkFBQeTr6yt5KS0tpbCwMAoJCTEtbY1YEVAEbj0C6kB96+tAc6AI3BCBwcFB+uMf/0h//vOfKTMzU57Ftf7+fvkMDAwMe9+4h+v43RFCYWEh/fa3v6Uf/OAHUiaEd955h37yk5/QpUuXqLOz09RiVFRU0M9+9jP6zW9+Q+fPnxcilJ2dTS+88AIdOHDAYXA0FSSNfHogYIhC8Bky60OO54+kZGh6NG8txTRFAIpFQUEB5eXliSIE1aSvr48OHz5M3/72t+npp5+m9957j6CsGKGoqIieeOIJeuONN6iystJhkXnkkUfoH//xHyktLY08PT2ntBxeXl6UlJREgYGBVFJSQrm5uVOaviamCJiLAIgQT/9mfczNvCmxq5nMFFg1UkVgchBoaWmhzz77TMw2MTEx8rO3t5caGxuFIEG9QFixYgV5eHiIKQkqyoULF2jt2rXU3d09oYxAXYLJCp+pDhEREYTPrQjAEaa5RYsWCaEEnnPnzr0VWdE0FQHHQ2Dqh4sJY6RkaMIQagSKgHkIwGdmz549lJ6eTnFxccMSwmQNkmKQIm9vb1EybANMZSA1MEVVVVVRW1sbOTk5UWhoqMQJHxncR1pXrlwRkxDigs8O1Cj8bpAspAeC1tPTI2Rh/vz5okoh3rq6Ook3OTmZIiMj5T0E3ENc9fX1QuTglwOSExUVdUNfHJQLcc6ePVt8pUD84NdjbfpDvpEOyCB+ggjW1NTIc1DVkBbKCZUH95E/5B1kEmUFFm5ubmIWg+JmHTfKvHTpUnrttdfEVAelCu9rUASmBwIOyFhMBF7JkIngatSKwEQRwGR9+vRpuvPOO8WR1zqA+IAo4PrOnTspODhYSINtgA8OiM6bb75J+/fvF6dgkARM9F/+8pdp9erVQqqysrLEbwakYN68eRLn4sWLxYEZccBch/jz8/PF2Tk2Npa+//3vE/xt4Fdz4sQJIVVf/epX6YEHHhCTHsjFmTNn6P3336eTJ09KPkBK1q9fT9u2baM77rhjRMfod999V/L73HPPCdlB/v/0pz8N+UiB7IDEJCQk0I4dO4TYgfB9+umnhHdBvkDYVq5cSU8++aSY26Ce4frRo0fFRwlYwDk6Pj5e4gIxNALIUEpKiqhrMD3iJ96/FSqZbZ3qd0Vg/AhY+QqNP5KbvOl4REvJ0E2qVG8rArcKAZASkCGYaUBC/P39r8kKVJjbbrtNSMzy5cspNTX1mmegzMB/CGRk69attGnTJlFz4Cz80UcfCblYt26dvNfa2iqTPlQbEAxM/jARffDBB3Tq1Cn67ne/S1//+tdF6fnLX/5CL774Ii1cuJDuuusu+sY3vkGHDh2SD0gFyBACTHvbt2+nr33ta/I7/G/gDP7WW28JmUtMTLwmz9e78Dd/8zdC3ozw8ccf08GDB4XYgRDW1tYOkS6QNJAjKERHjhwR36N//dd/FQIHHFD2VatW0fPPPy9qD/KM+9ZkEqQHhBPkDUoSSB/iRHoaFAHHRoDJipPjERYzMVcyZCa6GrciMAEEYFKCWoGfcCB2d3e/JjZM1lA84E8EMxLIkWGeMh5uaGgQlQemNqhA8IOBOWnLli1CFEB2DDIEYgRyAtIEHxkQAqgtSBtpgHAhPahQOTk59PLLL9P9998v/klQWOB4DGUGZAmkCu8hHqgsyBe+w2wFFQkkDcQIBGU0Ae/hAzMXVCw4NoO03XvvvUKyQGhAWkDO1qxZI8QGqlZTUxPt3btXlC3kCeUB6bvnnnvkWahXiBPmMFuig3wbuMM8CHw0KAKKwPRDQMnQ9KtTLdE0RGAk0wwmavjnwNx09uxZUT1ATKx9X6AuXb58mR577DExKRmO1jA9wQxVVlY2hBj8Z0B64Avk4mIZHqCcgOTgXdyD6Qm+RPiOZ2BiAqFBmlB68DyUJ5ixkD/kHUQEygrIHZ4zfgdpMrbSj6baQGbwLrbdo1wgdxs2bBASAx8jlAV527Vr11B0IG1IF/egtoEc4RmoaIbahrKABAIbDYrAtEdARCFVhqzrWcnQtG/1WkBHRQATPEgIfkLJAREAWbENeAbqDIhQRkaGkBNrBQNkA8QBE72hcoCggNTgOZAWI0CBQnwGETKu4zvUF+PgQxAexAW1B/kzyBp+xz2QDqgtSPv48eOizCBvUFdAhuDkDGIF0mRN3GzLZv0decV78PfZvXs3PfXUU3T33XcPKWGIC6QLTtcghkbAe4b5CzgiT4YztfEMygWCZFtuPAvckUeUXx2ob1RDes+hEOAxwLRgYtRm5VnJkFnIaryKwAQRwMQMwgJTENQMEAlMyLYBz8EctGzZMiEcH374oZARI4CgwKyF90EYYGoCQYAjsZGG8exICpRtmqP5jjRAJOCfg/x973vfExMb0vz9738vatVYAtQdEKF///d/p0cffVR8paydykF4YB6D4oOdX9YB5QLJg4ns4sWLBNOhtSIFUySIFrAxAggQzG7ADEQSZbAlS2PJvz6rCNgNAiBCZpIhuyno6DOi+0RHj5U+qQhMOQIgPzBnwTkYk/VIAcrGxo0bKTw8nPbt2ye7tozJHiQBpiT46cA/CKQIRAg7vKA0Xc/peqR0xnIdZAIkA0QOhAzb6UHKUA5sa4e5a7QBZYHpC4dNYhcczIIgJ9ZKDcggSAtUIaQJImkcNQATGfICkyI+IDg4sgB5gKkOO/bgc2V90jXSRD6hgEFtM0x+o82zPqcIzFwEHE8aUmVo5rZWLbkDIADTDZyZ8Sci4DAMJ+iRAvx18MGkDdOXQYagdjz88MOiGGELPLbGgxggPhAIkC0zAtQYkCCQF5jp4OcDMgPVCorLWPxzQF5gBoSTNM4Mwk4y433sXIO5DGXHUQBQj7AN3zCFIT2QRRAxKEnY5QZfI5BGkB0oRiBFiMda+QF+IFYgpHA6VxOZGa1E47x1CDgeYTETKyVDZqKrcSsCE0QADr4wB2ELOc7EwS4o+PVA7YHDr7VZB0oIyAD8h0B6oMSAGEEdwTlFeBdkBP47ICkgQthRBnKAiR+TPs7VgeJiHUDI4CCNNA2fJbwP8oDdWNYHPYIAYfcYtqAjbeQV2+qxmw2+QyAUyCPewz3k0XDQxjvIh2Gqg4KDuJAvEBo8D4IDExeOBDACVBvshsPzmzdvluegekGBQnwgQXAIRwApQnnx50pwZtGxY8ck/wnsQP3ggw8KWUJ58R4IHExqUM6WLFkywZrU1xUBe0JAzWS2tTGLpWzH+EuOtjnX74rADEEAXfSf/umfRLUAMYKqAX8cXAdxsFYscA338MHEj/sGuTCuG+8Z7xr3jXdHihNwIy3b+HDNOg8gLnjGcLY28oqfRhxG1RlpGWnjp6HOWJcDzxvfbavdSAs/8b51XHgW1410jLzjGRAeayyMeFEWECGYzX7+85/TF7/4RSF0xru26et3RcCREPjmc39Pv337GLnO/oJp2U5o3U/f/foj9Mwzz5iWxmRHrMrQZCOq8SkCk4wAJmGcoIyfxq6okUw2BjEwiIh1VmxJi202jXdHe32k+GydjI28Xi9PRlrXS9s2frx/ozgQF+LBZyR8rNOzzad1uWE6gyr1ox/9SNQiJUK2rUK/KwLTCwElQ9OrPrU00xSBBDbjaJg6BEC6YC4zTtGeupQ1JUVgChDgBQMzfBMTMjNuc7KtZMgcXDVWRUARUAQUAUXAjhEwkbCYGLVZgCoZMgtZjVcRUAQUAUVAEbA3BAxVyFRlyN4KffP8KBm6OUb6hCKgCCgCioAiMI0QgJlMjxm0rlAlQ2Ns3q+8voNOnDpH5Dq9/4aRM68aQvw8yEX/svEYW4j9Pt4/wDut7Dd7k5YzKPTO2m4nDU+NaGoQaG9vk+Mutm3bNjUJmpqK49nJlAyNsUHsO3iU/vjOHnINSxnjm471uKebMz2yJpECvK/9W1iOVRLNrYFAS2cf9fVP/7+67ursRL6eOrRpy3csBI4dOSxHPUwPMuRY2CO3OmKMtc5cPMg1Yj55Ldk+1jcd6vlgX3f61vNbKSn82r+F5VAF0cwKAlCEyuo7qau3f9ojAiIfE+Q57cupBZxeCLzww3+QPyEzZUF9hoZBrWRoylqeJqQIKAKKgCKgCNgBAuJErT5D1jWhaNhBu9QsKAKKgCKgCCgC0wYBx3MZIiVD06b1aUEUAUVAEVAEFIHRIOCAbGU0xZrAM2ommwB4+qoioAgoAoqAIuCQCJjqM+R4ZEvJkEO2Ys20IqAIKAKKgCIwTgTAVdRnaBh4aiYbZ1vS1xQBRUARUAQUAUVgeiCgytD0qEcthSKgCCgCioAiMAoERBa6+hnF4zPkESVDM6SitZiKgCKgCCgCioAgoH+1/pqGoGToGkj0giKgCCgCioAiMM0RMNOB2vH8p3Vr/TRv7lo8RUARUAQUAUVAEbgJAqoM3QQgva0IKAKKgCKgCEwvBHACtQPKNyZWgpIhE8HVqBUBRUARUAQUAftEQMmQdb0oGbLPVqq5UgQUAUVAEVAEzEPAVGXI8YiWnjNkXlPTmBUBRUARUAQUAUXAARBQZcgBKkmzqAgoAoqAIqAITAoCcsSQ+gzZYqlkyBYR/a4IKAKKgCKgCExbBAwi5HimLDOrRMmQmehq3IqAIqAIKAKKgD0iYKbPkAPyLPUZssdGqnlSBBQBRUARUAQUgSlDQJWhKYNaE1IEFAFFQBFQBG49Aha3IQeUb0yETpUhE8HVqBUBRUARUAQUgZmGwCz5Q7COFVQZcqz60twqAoqAIqAIKALjRsBQhWaZ6TM07tzduhdVGbp12GvKioAioAgoAoqAImAHCKgyNMFKSAzzobWp4bRidgg5MdM+W1BPx3JqKKeieVjM7q7OFBnoSQ+vSqAQP3dycXai5vYe2n2hnLLLm6mrt5+SI3zpi2uTKDrYi8rr2+lwVjXtvVR53Rw+tCqe0hKCqKGtm/7t4ywaGBykAG83WhgXSHenx0j8g/xmXmUL7eE0yho6yNfThfMZSlsXR3FevOhQZhUd5A/SNzvUNrTS+awS+uCz89Td20eJMSG0Zsls2rRy7jVJ9/X106eHM+jY+Xyqa2wjb083euiOZbQkNZZ8vD2ued7eLhSW1dHhM7l05Gye1MvS+XG0YVkKLZgTPSyruNfW3kU7Pj5JOYVV1NndS1GhAfTl+1dTZFgAubuZ1z37+weosLSajpzKpoLSGvJwd6NFc+NoJddJWIj/sHzWN7ZS5pVSOngii2rrW2hF2mxat3wuJcSGDT1XUFJNx8/mEn72DwxQSKAfzZ8TQ5vXLOAjTWbxu5lyv6Orh9umsxxzgvt3bkwjL093qqxtonOXCuj0xXxJ4+4tS2nZoiSKYDyMcCGziM5mFFJZZb1cWjI/gdIWJFBcVMiw/E72l5LKBjrObfGz41k0yHW2MCWG1i+dQ+lcr9YB93q4be/4+BRlXCmn9o4uCgrwkfqMjw4hT3fXyc7apMaHesvldrjnaCZd5vy7ubnSykWJtJH7aFxk0LC08GxJeT29sfM0lVU3yL0Fs6Pp4TuXUZC/Nznz+GOvoaKmiU5dLKRPDl2S+kxNiqS1S2fTqsVJw7KMe339/fTO7nN0LrOYmls7ycfLnZ7g+kxJiOB262avRRxdvhzPkjW6co3zKfNG2zFmqLGxkbKzs2n37t10zz330Lx588jd3Z1aWlrojTfeoLa2NvLw8JCB1cXFhZYtW0Zz584lLy8v6uzspOPHj1NRUZH8jkbs4+NDy5cvp9jYWMrKypK4cQ8B9/Fpbm6mlJQU2rp1KwUEBEjcYwl4es3ccIoP8aErTDo6e/ppbpQ/NXf0UGVjB7V09g5FF+bvQatTwsjbw4VK6tqpp2+AApm8bFsZT03786ioppU73iA1tXdToI8b+Xm5UXiA5zXZcXNxophgbyZOfjQvOoBqW7osf2+PmU8Kp52eGMzp9lB1UxeTH1cK4ri2LIqiN44VSlxdnMdGJlDRQV5CyvCM2QFY5xZV8WSSTbGRwTyIuFINk6Mj5/KYIERRgK8X16mzZANEKDOvQsgB8F08N4YweIFIgRys4MHZngPKepTLlVdcQ3N5wPT0cKUr/LufjyfFRASSP5fVCM0tHXQpt4zyS2qYPPhy+ZypiQfcvTzp3rF2Pk/ywaYVtYuJ1/5jl6mX8U6OD+dOQUJEwkP9ue94kpfH8IHezdWVQoP8hIg0tbRTe2f3sHLkcf2CCM1JjCJnp1lUUd1Il3JKaG5yFIXwezX1zQRSlcRpBQf4kjPXd0xEkBAjPgEOnVJIEfDJL66WNLqYOCGANFYzWcrKK5fr83jSHRgYpFLOizsTjMiwQHK92n4mGzDU5+lLRVyWMkrhvHvyBFhUXkdneXJMYEIf4Os5NG60MrFF281jHPz5enR4AJP5Vjp0KlfIwRzgbMehhxdknxzMEBI3j+ttFtcjFiQR3CZAcEAEjFBd10wXue0WVdRJO+/q6aX6pjbaeyyT7tm0WNq7PQbU58XsUjp1qVDqA/2zrKpRyBG+oz6dnCxErrOrlzLzK+gKt21P7g9RvECp5HKDGKO92S5u7LG8I+aJu9xY57sR45omN+yGDJWXl9POnTvpd7/7nRCZ4OBgioyMJJCkV199VQgQiMsAr0iampqE2Li5udHs2bPp8uXLdPDgQUIceK6f2TyIU3R0NIWHh1NVFasfTIZaW1ul2np7e6m4uJhKSkrozjvvpA0bNgg5GkvjcOKBwsfdhRbE8oDX2kWvHSqglo5e+p8PL2Ky4kVRTDZarBSXYF8PUW2Ka3nAuFghhGR5cgh9d9siev9UCeXz4F7d3Ek7z5dTarQ/JYX7XtPEwNW8ufOuYyWqj1f2SNc6xIf6CFHaea6MTufVST42LogQBem9U8XU0d3HKlATtTJJAynq4TimInQwOSsoraViHjj/22ObWHnwow/3XWDl5AplF1RRGis+vlcnsx6enI9fyJdJGqu1zStT6UJOKb3FK1BvniztmQxhgm5t75RVNQbPJx9cK5Pi//sfH/PE3UAlFQ2svnxOhmp5ogRxCgzwpns2LqawIF86cbGAXv/wJK+yo0wjQ8AWpOIS43rHhkW0adV8auvopl/958dCdkAuvJi0GgFlSYoLF6KESc/PitDhmea2DsLkiMn0XlZ0PJigfPTZWSFXIEABft4SFUjR5jULKZEVJTfX4UOPL0+eC1JiKYAnXcTnyUqVEYBrcVmtxAXF7KG7Von69Kc3DzCmddTAk3BYsN+Y+u9Q5Df4BWMCCE52QYW0R9QnJvlfv/IZlTPZK+I8LZ4by0THsohqYnK7/2S2tNMtq+dRUmwonckootc/Osn4hdo1GUL5GhnHs5eLaCsT8W1bl1I31/WPfvWukD8ouT5xnyuBRWX1lMVEIYmvf/HuFbwQ7KUDJ7KZTF2ijSvm2i0ZQjvPLWKy3dpBf/dXWyWff3z3CI9N9bIoQX26u1nIUBuTwoOncmShtjF9tizMzmeXSP9EO3RoMmS2g/PYdIUb9MKpu2U3ZKisrIwuXrxIixYtovz8fPmADCGEhITQAw88QE899ZSQoPfee4/OnDlDJ0+epLCwMNqxYwcFBgbSV7/6VVq/fr28U1hYKKQqNDSUHnroIfkgYIADwfrtb39LpaWltHLlSoqIiJB7YwluvNJLZMLSy4SiuqlTzFUIl0oahZDMYZXG2vyEAR2mCW93Z/JiEoX3PPlnXUu3qET9fB9kqrWzRd7H87bBldMM9fOgzUxwQKC6efJZEBs49BgmCCzx/Vh58eR0fPgnTHf1rd0SH5QrfBgCTt+ijtmmYcZ3rKagJESF+cuECnNBPKse5Syvn2LTSDIPsr5XzV9Qhi7yJJ0+P17ka5hvlrMp5OW3j4gpZayk1YzyjBQn8l7AEyQmx0guZ0igjzy6kM1jhXw9iyfVRTygGqGxuYMycstlksXzwWxSmc8r8iusLDS3WRTOsRD0kfJle72D66Ksql4mAhAUXx8vManC7NTMk0RlDbdhKzIExUZUmx4vITG24xzyiGv9XH7UM3Do4ckRagiIk2EyQRvs5TbbzaoUnnfi+85XV+G+3p7cBjyFdKDNWgfUeX1Tq5glwoL9JT6s3kEi61hhLGAlKZiVNZerpMS2vOP9DkUKkyTSjwz1Y2XMskCZlxzBRKCSVb1ymRCN8rUwcTrN5OfJbWtZAQ0SNWXJvDj62UufMGFrt+u2i3rL5wWLn4+HKEGBfl5CBLH4aOG2CEKEfmqECm4jVdyvv/LAGmlH4R5+lMsmTRCkru4euy1rWVUDt7E+JjP+QqARoAi1M0k6x+ozxhzDPA2T7hkmhw9sWSLEFuVcvTiZfvnHPQSzvz2PReNt8zP5PbsgQz09bFaqrBSz1XPPPUevv/66kCGD2NhWEAgRFCCoP1CBGhoaKCoqiry9LStQPA9VyJA7rd8HETp79izt37+fHnvsMbr99tttox/VdyhDQWzmgsLSzoqLEVqZ0MziRbUfKzjWAYrQLvbd+dqWFDGXwaenvauPXj2cT6VsNhtNSAr3o01MhPZdrhRTW5iNGe1Mfj2rVa70tdtT6PH1SQQ/pRxWgl45WDAsj6NJazKfgV8MJsJAVgiMaQ4TGyZYKCaYPI2A5xpbOlmGdpHJEfMiJhuoDQgYtH287NNvqB9EmwmOO/taWJsUoA6BMDTbKHnwL2lkNcGfB1mUz2ICdmb1z118T7p6+kzxMwEhaeUJDv5X7mz+QkBf8fdlVYbz03nVPDVUKTf5JZx9jOYkRrJ5q4os8R0xAAAgAElEQVT+n39+jQaY6Aezz9ASJrHWJqyS8lr6/Y495MGKLpSmZeyjkb4g8aaKDshRREgAwRRXzJMyyBTKUMq/1za0sLkqVMxskx0QJRQEKANQroyAdolruGedLIgcfNxQ9zAzGvUJZa2Xxyn4hNmaHyc7z+OND3g2slqIchqqnIxxTNBRpnZWd61DB5uQ8IF5F1ig/bgyUcbiBUowsLBV/8abt8l8D4sM1Is/LwCMgPEEfRZ917KgtNyB+l7f2C54YKzCexiLUJ94DmQJKqCjBjMWWo6KBfJtF2QIJisQoaSkJFq6dCl98MEHQnBqamoEW5jFPvzwQ4J6BCIEs9iaNWtowYIFbMP3FN+gc+fOidnr1KlTFBcXJ/egGoE0GQHmsczMTHrrrbdo9erV4neEZ24U4IcExQpmNoRL58+yE4OPTOripMyjobWK03dV0TGkcyNuT/YHCfRxp3J2ZK5gf6JeVoNC2Y8Ijte57Gxta/KyzZM/+xDFhXqLE/brhyuF3CBt6xDAz4AAnc6vYx+kNgrydWcliv2rkoOpuK5NFKhbETBwIK8YNI1FPwZPfDBo2k5jIEcGCUJ+0WkxMOO5fla07DZwGTGAYvI21ALkVX7nBgPibh2gPOB5UTquAjNUVm5Hg6L0TX5AXQyly7giQNv5vD2PLd1eJm4gUJgMt6xdKPVaxX5eUG3gKwQ1B87SmETgI9TH7bCorIYusckBxCKRiRHSHimg7uGsDZNYITt7v/LuIfHZaGhul8kXpnOzWkU/59WYBI38ob5wzZrE457gys9LfRq4gswzHuiq11N7RyrzVF+Xtoi8S7+0ahPso4hyQdW2DsAcpBf1YPRp/ETdQ+W2HZumujwjpSfl4HxatzepTy4znKWtGxLKABKLMsEPDsHon3jOnutzpPIb11EaJUPDUbILMgSCAgfpFStWiK9QQkICy+w9lJOTIwQJHa+jo2PIV8jSOftlcoED9ebNm6mujgfKwkJRfaAq4QPCs3jxYh6kLatfXIN5rba2VkxuiNtZHDhHDiBQRtp4qqeHzWGD3tJnsAMMpMe6Y8HBWZ6zIR5QceDcfL6ogU7k1ojfzhL+/r+2p9Ee9iEqvOpAPVJO4ICdGOZLceysPSfSnwchJ3GYBqFay07cF4sbZDcafJXeOVEkDt0hbFLDzrHb+fMJ+xEhzVsRoPKg48FpF5MCAiYSfGAyG2YW4V4Kp1iLScWiuEl9Y1Li98xylJ0MXFBGD3byxoCLlbYReljhQYNxs9kdhokHz0MFAjkxJkyYUMWEdAOCMJH8YrLDqh0kBukiAGP4iGDgtzg1jz4Fwzk6gE0r996+TOI+cDyTd34VUD6rOX68Ck+Ki2AFJ4wJkbuku3P/OfG5ySkopzjeaXUjMgRcYQZbyLvd8Hs5mzoYOFmVQ2FEnJapavR5Hu2TMJlg/JE6vBpQX7hmu9sP2HmwIoy6B7FAkHbM7Rxt/EZlHG1+zHoOk707L5yMtoh00CbQZy2qz/BxEgsbfKB2oYx4Fj8xJqOP4h17DKJWcV/EjlYjoD2iz3qwOmRNEFBnGJ9AklCHCAZpxHMuV8d6eyznTfNkVoe5mrAeunjTGrj2AQwqUHpAUNLT00UNgq8QdoCBuICwBAUFDfkMgSQdOnSI3nnnHdq7d6+oO1CBEphAFRQUiEIEQvTSSy+Jb1B8fLwQrO7ubjGNIV44Tc+fP5/8/Cw242tz9fmVOXPmED6PP/64XKz5u+cph52lsfqpY18cKDHYkYXBBINBMKsxmO8beVeYdcD1BexA/dGZUmri3Wad3f1Uww7TGCA9WDWCP5CsTEYI2F0WxMoSdph9/Y655MLpBfq6yXtf2ZRMv3i/k7fkewsZgq8SJlTsaGvgPGIbveGbMUL0pl72Zz8ElBMreZRxcNBF/BHgixDBJhZXxtAITrPYL4p9beCoC9keMnxHV7cMRogDuz/sNYBkwO8HAy3KhgEW17DLBm0jyN/iQ2Tk34Mnn5AgixkCpgUoJ/DnkQ0APAlDujcjgJSBuKAO4N+BvKFesPMJRNR7jGZI7ByD4zh2myHPmHCAA0wsuLdgbt+QTxjPIUIKo3knGZy46+pbJf3RhNm8awkfTEQgcX/58Ci1cxlC4Tx9deU+mnhG+wyiDGS/H9QjzCtGfTZyOwbhQdu1JvIYCyJ4cwDabSs738JcZqnPASmzLXkabT6m4jnUWQjXF+oR/jMYl4ExHOOxy9GPFTzrgLLhA0dyOP6jXqUtMSlCO7bXRQt8oUDc4Oxu1CfMndi5CHOvoQChrChDONenMVZh1yuwQV/BmAXypGH6IHBLlSF0OChCubm5tG/fPjpy5Ihsp29v563nTHoWLlxIjzzyyDDJ1dhWD6dpOEAbAQoRttqDFGFrvkicrOqAIGHb/OHDh+nSpUtCjB599FFxrp5IwK6nwupWcuMOE8EEBUSlic8NWhwfRFXsUA3Tl3XoZt+iNiZBUHOqm7t4EOXOx+9BSYLfEVSmG4UMdszOr2qhl/ddkbLB5HYXnyc0P9affvj6WXHg7pTV6yDNjwngc45axNka6hB2qVnbwm+Ujhn3cFYMVvEV1U1UVdssDpo4iwef//bY5mH+NVC8lqTGUTHvarrM25Sx/frEhQL2ZfCgqPBAu5Z2MXjC0RKqAI4DALnAZHqBt2XDLwg7xKwDfKgW8Zk12KaNbfcYZDOulNHcxIhhW/Anu07g/wAH6Rbexl9T18I/O9gnpEuUnC1rFzHOw8+UuVn68D2CooDzgUQFYRYBB9MankhT2JcI6qnFqZbE9wKTEExeIInYem+YZW6UDggTlCsETESV3Jaw8w2EC9v1zVAiZrG6kRCNXXU4KqCJj4NoEb83tEsoRdh55GTltA0HW5zLA+fqaG6rGBvgUB3PcQSzs7c9myXQP+EgDb82bFTAwgV1evx8Ad2+Zr7sJrMOKB+c/rGVPpnbPHZplXObx2YBw7/vRvV5q+5hPIFSXVFdLUQP/TOnsJpq2S/qbt7Raa3eQnVcsTBRxqlIHsPQh4/xTleMXxYCaLK8YipIrN2AwWoYQuCWkiEQHqg4UGi2b99OGzduHMoY1B84VcN3qI+9/40AAoXr+Al/IcRRWFgou8YQD5yoYRaDbxG+Y5CsqKigN998U/yD7rjjjnGdKWTbZmDS6OaB/2g2b8eMD6T/cf8CNo1ZtufnMWnh7MnhhyAicJ6GkzQOUFzC29yxdR7KElYh75wopjI+YBHxJfABjk/fliK+QVCSsPMrgU1jbx8vkjhAtvBBwG6wVlYTunt4iz2fNYT4LrAJzoeVky9tSOadaT28QncWovXO8WJx1obf0ko+dPH+FXFsavOTVVxaQrBsvf/zgXwx7eHaZAfkI5UnvSV8SNtvXtsnpknUH3ZuJMaG0Ek+4wMmoVgeqHC4G7bUN+xvp/0ncuQeVJZ03pWzlHeY2XMQMxkrK8g/dqFgFxEG3h5uvymJiTLQvr/3nAymiez0i90sG/nwwh2fnKRXPzghq2uE+zanCRZmBaiEIDAbV80T353fvVohymE4OynDGbmFt7bnFlaI0gMTFsyZubwTbu+RDD7rp0zMI9n55aLSbL9ntRx6WM0k99iZHPq/r+6WQRZOzhGhgbJdHk7aJ/gIgUvZxdIfQYZAjuKiQyltXoLEh23z5y8X8pk82ZTFhBCKUgafUwQn7AfuWCFk/vCpLL5WKm0FecJKfhETZzFvmAAW4oTStWJxIh3j/P/89zuF4MDfb9nCeDk2YSdvJQchS2CcQJRAHHZ8core+vSM5BOk6bZVqUySb+ybaEL2xxQl8oodnV9Yv1DOScJxELgWFuzLBwyGM9npkm3zUL6S2ccL7RfqyhufnqZ//a+9QpxwRtTDfDiqnx0fjAp1Djv8oAb98x92ip8bFDDs4kRZ9/FZaOgb2O0K1fY2PiLhrV2n6cP9F2j3kcuiEq1JT5axy2EDGrbxcdhCTH7GbykZ6urqoqNHj8rWefj3wHxlBEyYu3btErUI5wRhGz3UHxAjKEIwnaWlpYn5C6YvOE5joMUHBAkBJjKcRQRVCO/j+StXrkh8RoBJLjU1VRSjsTJl8IazBXWWzsTnDcFOipOnM0ubmHz08iTIvgPc0UAwcDjiUT6ZGsoHzGqQ1+HDczy3ls1llvOCQGjaeBIBmSqqYbMbx4+zgeCUbUtRunjwySprljgM/gI/IYSVc0Il/gEmRKW17XQir1aUJ5jUcLYQttq3dFpO8cUkA8JkScE2lSGYJvQLcMV5JLfz+SWHT+cKLlFMCLDNfGgnFacABQEDMAaiZTwJQrrHVu8IJg3Y4osJx94Dyoq8w6SH85EGmRSnJIZTGpcVkw0IkcWRnM+pYjMD7q1OS6YSVjm6eeLEdnyczB3ESoKZAQRl9dIUuphVTBXsg4N8wa8nlolNJ5sloXKhLlAefJBnTBJpvP2evwrJg/My7uEcoblJUaLcQA1Ce4yOCOb4wtiE5W/xDWPTCZyl0RegbIJkYQcadptBGTL8mGAWXZU+R/oxJi7DVCj+G+wbhN1OGMehDoFIYVfaWPvtWHBF3DhfBmWGyoP6TOYzg+RsLOzG4zxafGSQP1eaw8QBJxnjVG8c2ge1aBXXbzhPtPYeUKebVvFBtqyI4FwwYIzDF2fHhwmpw6IG7QDmQxwbMJ+VznU1s1lV4fPbuM6hiq5k4gi/KXsNqM95yZHSDo+fxwnxPE/weJOWGiN1Bb8paftcSHcef6B6QR3KYd83mMigiK3k+sVPDTdAwIzVyQ2Sm4xbs3hgMmcGHEXuoPq8+OKLcrbQunXrKDk5eeitjIwMOUjR2MkFUmP4+MBUdt9999FmdpzGtY8++kieBcnBIArVAdvyoQKBQP3pT38SMoR71tvvkRh2rz344INyoOPNnKnx/LPsM/Qq+wx5Ldk+ihI67iNQpt55fut1D3903FLN3Jyjk5fVd97UHDsdEIICGhNknycgTwd8tQzmIPDCD/+BzXa+9Pzzz5uTwNVY//b7P6T/+PgCeSx+xLR0Ysreou88dT8988wzpqUx2RHfUmUIByX+5Cc/ERJivQUehcSf44DjMpxJ8TFWqAYAMIXhHVyHiW3btm1CgoyAe3gG93/wgx9IHAi2q0ikjedGQ4SGItdfFAFFQBFQBBQBh0QANgz1GbKtultKhkBM4PdzvQByMlqCAtUIn5HCSGmM9LxeVwQUAUVAEVAEpi0CbMayFQambVlHWTD7PAxilJnXxxQBRUARUAQUAUVgbAg4oEvP2Ao4jqeVDI0DNH1FEVAEFAFFQBFQBKYPArfUTDZ9YNSSKAKKgCKgCCgCjoOAmWYyPYHacdqB5lQRUAQUAUVAEZihCKgDtW3Fq5nMFhH9rggoAoqAIqAIKALjR8ABnZKUDI2/uvVNRUARUAQUAUXA8RBwQLJiNsjqM2Q2whq/IqAIKAKKgCJgLwgYREgJ0bAaUTJkLw1U86EIKAKKgCKgCEwBAvjzMmY6UE9BESY9CTWTTTqkGqEioAgoAoqAIqAIOBICSoYcqbY0r4qAIqAIKAKKwAQQUOvY9cFTM9n1cdGrioAioAgoAorAtERA/zbZtdWqZOhaTPSKIqAIKAKKgCIwrRFQn6Hh1atkaFo3dy2cIqAIKAKKgCIwtQiMlmjV1dXRhQsX6KOPPqKenh5KSEigVatW0YYNG4ZleGBggJqbm2nXrl108eJF6u7uJlzbtGkTLVu2jGJiYiZcQPUZmjCEGoEioAgoAoqAIuBACNiB49Dg4CDl5uYKwXFzc6Pg4GCqqKigAwcOUENDA/X19Q0B2tvbSydOnKDs7GwhTaGhoeTh4UGHDx+mc+fOTQrwSoYmBUaNRBFQBBQBRUARcBQEsLee82rWZxQwdHV1CbnJzMykZ599lr7//e9TWloaFRYWyvXOzs6hWECAjhw5IscB3HXXXfTtb3+bnnzySaqsrKTLly+PIrWbP6Jk6OYY6ROKgCKgCCgCisD0QeDqOUMgF2Z8RgNUeXk5tbW1UXR0NEVFRZG3tzclJyfLB8SntbV1WDTIJ0gRPlCV2tvbycvLS96bjKA+Q5OBosahCCgCioAioAgoAoIAiMobb7xBp0+fHkJk4cKFtHbtWkpPT5drLS0t1N/fL+YxJyeLLgNi4+PjQ6WlpcPMZDCJPfTQQ/Taa6/Rr3/9a3rppZeosbGRtm7dSuvXr58U1JUMTQqMGokioAgoAoqAIuAYCIh1DMdQmxScXZwpNjZanJuNEBsbSwEBAUPf4RMEhQf+QkZwcXEhZ2fnIQdp47qhBIEszZkzR5QkKEtNTU1iKluyZMmEy6NkyKTGoNEqAoqAIqAIKAIzEQEPdw9avXo1PfPMMyMWH8QHhAw7w4wAgoQPlCBDLcI9mMbgLB0YGEhf+MIXaOnSpVRUVEQ//elP6fz586IQWZOqERO9wQ0lQzcA53q3nJhMu7o4kZf79IbO0w0N9XoITK9rPX0D1Nc/ML0KNUJpBngVNgOqdEaUcYQq1suKwCgRsPgKjfLhsT82ioHG399fVKD6+noxl0H9gQ8RPmFhYeTq6jqULnaTgQxt27aNZs+eLcQHP0GaOjo6xCynZGjs1TShN8L8PelL65Pp2b+9fULx2PvLzsz6gn08qLOn396zOqH8/efeHHr3RPGE4nCEl1Gff/9oOiVF+DlCdieUR3derGhQBBQB+0YApi74B8HcBVNXZGQk5efnU15eHv31X/81+fr6DhUAKhF8i6qrq6m4uJhApPAO/I7wnvWz4y319JY3xovKDd5zdXaiMH8PWhgXeIOnHP8Wk3TqYiI0MMC/TONQ0dBJGSWN07iElqKBDHX39hN+TvfgNAPKON3rUMtnJgJQhcz1GRpN7qHqpKam0oIFC+h3v/sdubu7iyqE3WQpKSl05swZUYew2yw8PJzuueceOaDx1VdfpZ07d8puM/ghLV++nGBym2jQJdREEdT3FQFFQBFQBBQBh0LA3EUR/vbZzQL8hUB64AOE30GE4uLi5FTpoKAg8R3CWUP4CRPY5s2bCTvSPD09RRGCWc04gfpmaY3m/sTp1GhS0WcUAUVAEVAEFAFFwH4QuDlfMT2vISEhtGXLFvnYhttvH+6KAnXoiSeesH1s0r6rMjRpUGpEioAioAgoAoqAIuCICKgy5Ii1pnlWBBQBRUARUATGgwAUITvwGRpP1s18R5UhM9HVuBUBRUARUAQUATtDwA4sZHaGCJEqQ3ZXJZohRUARUAQUAUXARATMVoYckG2pMmRie9OoFQFFQBFQBBQBRcD+EVBlyP7rSHOoCCgCioAioAhMKgJm/m2ySc3oFEWmytAUAa3JKAKKgCKgCCgC9oGAA9qxTAZOlSGTAdboFQFFQBFQBBQBu0NA+dCwKlEyZHctVDOkCCgCioAioAiYiIDJDtSjOYHaxNKNK2o1k40LNn1JEVAEFAFFQBFQBKYLAqoMTZea1HIoAoqAIqAIKAI3QeDqmYvy98A0fI6AKkPaGhQBRUARUAQUgRmDAP5qvclEyOTozagqVYbMQFXjVAQUAUVAEVAE7BgB0wmRHZf9ellTZeh6qOg1RUARUAQUAUVAEZgxCKgyNGOqWguqCCgCioAioAhYEFBlaHhLUGVIe4YioAgoAoqAIjCjEHBApx6T60eVIZMB1ugVAUVAEVAEFAG7QsDYUmZXmbq1mVFl6Nbir6krAoqAIqAIKAKKwC1GQJWhW1wBmrwioAgoAoqAIjDVCKjP0HDElQxNdQu8Tnq1Da2UW1RFxeX1cjc+OoTmxIdRWLDfsKcHBwepraObzmQUUV1jG/UPDFBwgA+tXJxI3p7u5OxsntDX19dPNQ0tlJlXQQ1N7eTu7krxUcE0m/Pp4+UxLJ8DA4NUXddMGVfKqKm1k5ydZlEcPzs/OYo8Pdypq7uHLuWWUXZBJb/rLu8ijtjIIJrHz/RyWueziqm0smEo3q7uXvL19qCEmFBaOCea4+ilvJIaKiqrlecZGsYtmBL5fqC/N3V29tCx83mcjxZO01XiCfD1omTOb3xUyLD8Wn8J9HGnxHBfmh3hx2dxEJXXt1NBdStVNHQMewdl8uF405OCyd/LTcrY2z9AmaVNVNnYIe9GBXrRvNhAcnWeRZw9am7voSy+X9faRT19AwSl2s3VmRbFB1IEP+vl5kxdPf2UVdZE5ZxeR3ffUJq4vzAukLzcXehIVjU1cztwdnKi5AhfWjknlNq6+miQce/g96uaOuhiUQO3D6Q6uoD6RTvMKeD6bW4nDzdXiuH6SI4LJ++rdWTE1NLWSWWV9XSlqJpa2zspJTGScQ2XtmiEwtIayuK20tzaIfUxn+sszgr3K9zeUXeIy9XFmV+bRdERgTQnIYL8fDwJ75dVNVBjswV3tP3Orh6KCAugtUvnyDtTNZg3Mh4FnNecwippZ9Gch+S4MGmv1gF57Oc2cOZyMVXUNFJ3T5/0yxXcP4GNpZyjq49b8dQA5x/9Bf2ysqaJXFycro5F4RTEdWgd8CzGgbNc1qbWdsElinFJnxdHXlxmJ+4P9hrQJot4rL2cVy75jgjxk/pM4HF3WH3ylwGuz/PZJTIWdXb1krubi4y3GJvdXB10+uSqMbt2pqpvTmYbs5vaHOCJvauri6qrq6mjo4Mb6SBP7s7cIV0oPDycGhp4YGxsJDc3N7nn4eFBAQEBFBJiacC1tbXU3NwscSA48UQRFBQkz/T29lJVVRX19PQMww7XPT09KTSUJ9DAwCkbXId1OO6M57NK6OCpXJ7cq4XQRIUF0r2bFlOAn9ewDofOiAnk3T1nqbGlg/q4o4YF+5KXhxstTImWScSs0MET0ZGzV+jkhQImYq1MMNwoMjSAHr93NSXGupGLFRFrbe+SgQb57OntkwliwexonmBdaB7/bOvoon3Hs+i9vWdp2YJ4yXIoDy59/YmUmhQpz4N0nb5UMFSc7IIqCudB697NaRIXJsojZ3LpHJMmN24jIEdJPKCtXzaH1qbPoea2Dnpn1xm6UlxFcxMjJJ6YiGDy4on9RmQoNdqfNsyPoPmxAcRNkqqbOunA5Uqqa7EQGCND3h4ulBrjT3elxwgZIqY7/DhFBHjRnovl1MkTYUqUP21dHCXYYG5o6eilUD8P2n2hnOpbuxkPZ4oJ9qYti6IoNsSb3JkYtXT0UFdvPzUycTLIECaWJQlB9Nj6JPJmAlZQ1ULtXF4Pfn55cgh9676FdCa/TohUY3s3XS5ppAz+jIUMgWicYPJ45lIh1Te1koe7G0Vw/W6/ewVPiKHD6hcEJju/gnYdusTkqZLu3ZJOPkxUh5EhbqefHrzIk0g9BfBE+qX71w4jQxe4zR84kcVkqIOCA32lv6bPi6dInlB9uR1XVDfSuctFVAJCzP0dpKukop7S+JkVi5KmjFhgssxmErTveDZdyiklJya24cH+tGnlXJkQMTkaoYfrrZYXDDsPXqLC8joCwcR9FyZuaOe2i5uhF+3klz4m6CcvFnC/ukKlVRhrnZn4BdL2LyyThYg1mWtnMp5bWElv7DxF3dLH+2Uh4sntBmORBy+W7DXkl9TS3mNZTOSKpD5DuP2tTZ/N45m/jLfGRI76w1i392gmZXE7NxZdTrzSWZWWJG3VYQMIkdkHLzoYOHZDhkBicnJy6Ne//jVlZGRQd3c3+fr6UnBwMH3zm9+kt99+m9577z2KjIzkQaaPZs+eTdu2baMnnnhCIP/ggw/ok08+ofz8fKlkkKbHHnuM7rnnHiFY//Iv/0Ll5eXDqqeiooIWLVpEzz77LD3wwAPk6jq1HRgDLUjgB/su8ADrR//nu48KAXru/+wQ5QSqS3R44FCey3mCOHI2j1x4Evz2U3eIOgOC8sd3jtB3vvYF08gQyCdWx//F6Tz54DpavzyFqlj5+ftfvMmDfIJMgkEBn68cc3iQxOoyhlf6zz66mQp4lQ8S9cG+8zSbV/4IUIRWLk6inz//uHzHSmUWT/qoOwykX3lgLT1x/5qhsv/v37wvTy2YEyuqy/4T2YQBefudy3limsdKRQP959sH6bNjmUKGEAL8POnujYvpm0/eId+RBibdkQIGuc0LI8nH05V+9NoZJiw99P2HFtPixCDKKG2k8jpeAV99GaTngRXxVMiq0WFWaqAGzWMC9T8fXkxFta10lskJFKWfvXuRmtq6hcSsmxdO3922iC4xUQEZig7ypvuWx0mMf9iTS5c5DRAfL55A25j4IuC7J09KeBeqFeK0Dp1MgHIrmiW/Nc2WhQBW7WMhQlK/TK5f++AYPX7fGlFequub6Se/epuWzI9jVcBH1B0jQClawvUO5ehjbrshQb7D8oQvUHi2372SOlkF3M/E93oB5HXJ/HhamZYskxDwR3lRT2uWptAqrkdDbQEx+uzYZVEobJWq68U9WdcGBwfo4MkcweOn39nOE6cP/fMfPqWzmcWUlhpLcZHBQyoI+siuI5epm8enr2xbw+puOB1iwv4pk0Y/JhP2TIaAczcT7B0fnZQFxd/91R08+ffR9372hixMYiKCZIwyQkFpLZ1hDPx8POi/P7GFFx+ddPRcHr364XF6/uv32C0Zgmp9/Hy+qHz/9O2HmYj70H/85QCdZrV9xaJEUfsM0odF3Z6jWdTW2U0P37lMxjrU52Eec9EGHZoMTVYHmUbx2A0ZOnHiBL311luUlJREDz30kCg+UG6g+IDYQCVav349fec735FVyPvvv0+XLl2iw4cPCznKy8ujVatW0XPPPScTXktLC4WFhQmZws8f//jHQ6oRFKLs7GwhWHPmzJH3EP9Uh24uH0xjkKMjw/xZ+fAXZQhSMyT2XDZDWJMhmKly2LywnicrqDK+PBDV1rfQ/91xkFfOlonQjDKIWYSVGBA1pIuVFFaRq3kSq2A5HSYBazJUVFZHrfzOGl5tQTGA2pOdX8mDZ5GoPhJ4xsPkN5LpADigRpEUNyQAACAASURBVKB+1fPqrIml7ejwIEqKDRHChAm/l9sB7rsyfn38OyZUEMTPwyzBc6Q0rLESU16Ij8Rdw2pQFX96+wYps6yRwv09aX5MAJvM2GQDBovsc/7xjrsrkyv+HZMJFKB2NlcBG6hAICrIX18/TzS9AxIviI6bKEWzKNTfg1bPDaNffZhB+dUtFtMZx4XnDTIT7OsuhCmf1SCLwgSqMDwg7V5+B2a68QS0nYrqBvJnRSaCV8dBPEEAz+WswMBcUlnbNIwM+bJJEwoAPlA+gIVtwMSP/BawKXMkkwmwxjOoH9s6wjtOV8V8lC/zSrmYnECypipg4kT/BBYR3DdhHnPlhcj85EhRqS7mlEn/dHKyjB0gBCeY9K9jMpEYEyLkYQVPoH/56BTVNbVNVbbHlU47m5XzedHi5cmKL5cTijMWGysWJVATE2X0aWsyVMbtpaK6iW5bPY/7vg+FMSEu5mfe3X1WVFp7DaU8jnX19HI79xOzLOoTyjHGJRBcqM9GW+xgEnSK1WmQXhBbEGGMve/tOSfmRLRLR1RX0F3lc51+a6/1NhX5sgsyVFNTQ1euXCH8/NKXvkQLFy4kf39/MWvBNAYTGcxiMJetXLlS1BQQodzcXPngO5SkmJgYITZooIapDWoPyBTMZQggTkgHKhLSWbduHUVERNxQMTCrIiDDVvFE48kTOPxZMLFgkscAm1dcQzVMdKxDG5tAaupbxTcGKxOYx/z5vU4efGDmgIxrO6lMRt4RN/xIAv28hdwgDag3CTzgQ0YGWbIOjc1tTOZ6xU/IlSc7D55k4bfTxWpHF8eFSaab/WEw+P7p3SMSX1JsKCthw/1OECdWqzBPeHAdwifB8E+C39DxC/lsXsyRCQs+SshTWqpFacG7MO3BBPlf71nSWDAnRvycrmdOxOQLcgLyAhMVyAsCzGTBrMhEss8Oxg5DGWps66GTV2rFX2fbyngxUQX6uNEJvlbBKhGIiTU5CWBTWoC3u8VfiO8ZPkcRAZ4UF+pLkawSuXAe6lq66XR+LbV2WvwToB4tYMXp3RPFrBC5UHzo5345yB+IIPyJHl2bKCYy+DhllTVTLZv1MFiPJqB+G1u4fq+qLqgP8QljH4rr1S/MPvjAVAo1zzK0Dk/JnX2OvJk0OXH9W7Sea3MCIn/wZDYVXp1oUf+J3A6s1TtRLLgtZbLZNZVJSHL81JEhpF3L7RtlCOK2bxBtLFqqeDIEUbTGGCSgmEnSQ3cslb4CDGThwGQKGMNkbK9+JsAYfQhKDz7IZ49rv/Rh+MvU25C55pZOUYNms7qHfgcTOMYGmPKhBqLMLrdggXltKxt+pZ59LRGgMBqmPNQRxtMyNg1iIWMEmD1Rn5tXpor6DUxA+jB+dXAZUZ+oY4cMPEc6IpEzE2u7IEOlpaVUX18vZGfp0qXix4MAEgNVB2TH3d1dCI8RcA/+RFCJvL295WdJSQmdPn2a/Pz8RBHCTzxnHUCsTp06RRcuXBAz2po1aySekQL8kECekD+EqqpKCgoJG+nxMV3H6h8O0aJoXPU9wNQCB8RB/me7wgLZwTWskDEZGStrvIt7IFdmkKFeHiBAuOBvY/gGQXHBZFfOEwIGBesAHwKoG7iPPFryyRMov4P8u3J5sQIL5UEIvidwBIfChJXoJh54LBOoJUYMrFhtY6UKnwQjgBhhMKusbRZVrInJ2qK5sUIqEeBHFMvSPpy1IfNj5Qenc6hVS1h5g/OxdRDcGUfkpYtVOSOA5MAPGUTEOsAnqKimVfyLEtkPCO+jfHmVLaIIWQf4AqVGB7APkR8dyWbnZyZbIEPwGYJDNHyLMKnidzhAd3M9wucHJAw+TPBXKmETXSwrV/GfQyDqUQOb24pr2ighzIfiBr1Z3fImf2832nWuXOIZDR8y2hVUAbQrBOCD+oMq1GtTv8MKN84vME+AfIFkX2GzaiH7y0FNFF80XgwYi1YopDVMPECwA5hgTKVpAlSygxUTYOFx1QkfxUW7Q/sH2bbGF20HCxbch2M8Vt7wSUH/Rl1hcrVXMoRFANQh+IoZeYR6CZKAvoN6sA7o8z18Db5EaMvo46LCclnxLN6xRzKE8QSNy4vLaQTUF9o9zJzW5Fbq02Z8BlGHmoTNCqhPhyVD4+y30/m1kVnAFJa6rq5OyExcXNyICg0aKZ7p7OwUUlRQUCCmsLlz54ppbf/+/fTnP/+ZPv30U0pLS6PNmzdTeno6RUdHD8UJUnX58mV65ZVXaO3atbRixQohWzcK8GP66KOPaO/evfJYAytVd919741eGfU9WVNf1Sqt1/BGh7yGuV+dIWQAvjoKy3vGy8YMMuocjP5BRI0kh/LJX5BPyf7VMhixySV5/vNSDWWRn4W68+DWZbTt9qUy4RaU1dDLbx2iD/ef55037CTMZA+KA17HZHSKnXofZf8TazIEEwUG2yfuW013rFvAzpxV9Of3j9LuIxki7fv5etLXH9ssAzQGdfg4/OIPn8ggDbMd0rANIKDIuS3uUhabh+G/syolTMxo2N1V2dhJ6YnB9Lf3LZCdZ6V1bZJ/QANVaW1qmOxQ++mb59m3p5NVICdxmPZjxQikau/FCiFDW9OiafvqBFaGekQFghnt1x9nCoFy4YnVWSZXNiEyPiBkcO4+ygQLu8migrzo4dXx9MSGZDqRywS+1WKisy2n7XfkEWWWMloVdKj+bOrX9v3xfIcJbvlC3gXJ9Y9+/fqHx9iPo1IWAdvvtqi7iBeq48XsUgpjNQYE2ljNjyfNcb0jfYpBGYbL8LZtHS+gkn5iPG/1qkRlp0HyZpTVKo9SDmkfNhm3NJrPyzl0++qYMERn7a3AloJY+rolb9LO+f+1/R6aJvqFVeXjFZuv9lZCzc/4ELALMjSarEOh2b17Nz399NMyycLsBR+iZcuWiWr0gx/8QPyGYG4rLi6mf/u3f5P7UH9AmBCgBh0/flwaPRym4+Pjb5r0ggULxPxmOGr/5je/ZYXEoj7c9OWbPICJGr42WGFCFUFAP4ONHhO4L5tVrAO2O0PCxgomOtyijEANamfbNiYJd16VmRE8eJJGuk1sSsFqEAEryQaWzrHCgpnPOkDZcnXpkHwGs/PtrFkDoh5BMcJK8/MJzTJwxrAvEBwX4ZcAsyHMM25O7ETMu87gmwDlAttfoSYY4Qw71GL3x/zZUUycnGTLva+3p0yeWM2BcEHpEBMN/4cZzuJ/Ncg+SG3XkCGMh01MONzY7IQt80bwY2dqmNAaeTu8dQhhX56NCyLoPz7NpsqGTmph8lLAfj8YarHTDDu9YCbDTrOvbEqWV189mC9mN1yHctbOJgU4Sp8rrBeCBGUqo7iBblsYIc7Swb4etGJ2CP3jl5ex6jfI5jBPIU/YefabT7LoAm+fh28StunDvIo4illBWsA70uDgDYLU1z98RT+sEFe/uLMpGXhBXTNUPpg5UL8W36DJNwWgbhDEYXqWMy1kVQ/KBEwV0gmuTr5oc2cyCsVXCLvbpjIgC1AaxQeMd7MZATvbQKrhQ2dNEtxYXQgO9JZ2C7MYNgmgn3Ry/4Q501pdmspyjCYtqB0wBba0WfKOd6CMNHIbQLlsFw9e3EfwgRk1yN9LFia9rJTATAbzPeKzx+DP4xhUnWY+8sMIGHt72EwYyPVp7d+G8TmYx2fUJcZYqGCGyRMKEcrpyOEaguvIhZmEvJsze44xYyA2aFzY/g715noBPkNQgLCDDGQG2+ETExNlxxkCfodpDM/ArIV4oBxlZmZSSkqK+B0dOHBAdpRt376dEhIShsxx10vPuAYTHD5GwBZ8nscmJUCOTuCzV+BLgzNeMJGDKGSx6Qi+QAm8pdk6wM4NnxecexHFZAhyNLYeJ8CHSM72GHmn1EQyjIkSfhIgEfAdwOCBvGJb+4blli3G1vHjaAAQoQucz1jebVNf28bmgy45MkB8EZgUifP01QET/goyIDHpwSSJewiWc2+qxJcIO5asTYAgxEY+sDzFgAX/IlxHGjDH4aeLCztb8+AHeRwkCaaZ66kLMGPgbB8MhmHsOwQS085+TcmRvH2a85lX2XrNChHqDPyEYO7q6OHBkUkjyBTiArkCIXmEfXnw+/mierrERAfEBQGrTZCvKxUtQoKQhjvHY6QL8xx8kmByw6SEACUKTt5HsmvELwnmO0yywA0Bv3tzHuC/0QFTBR4YRQBBDWOyiXNjQIDgOArT40Wuv7XLUhj74eddjSLKmz6CiRPB2d3SZpt5AYAJyXqCAdFHfnD20VZW/6Z6NxbaAgg02hRMdVikACtszcbkiN2Q1n0O9xaxXxpUSOwyc+N6yGa1K5RNvP4+XteYZm8K0hQ+ANzhH4R+jX6H+kefusAKbCo7GFtv5EC2UBeh3CdPsN8eTJfYjVjb2MLjU5CY2ow+PIVFGFVSyCtIDkg3xijUWREfg9DA+d/CzuDWZkws8nBMQDk7isNvCmQoh4/4AAkOZAKIeBw1iOZlIhsyMWrTILcLMhQVFSX+PXCKhvkLxAbqC5yd29p48m1v54bnLKQGDtbWARJ7a2urbIsHaQGxwrZ77BbDNns4YMMRG7vOCgsLZWv+nXfeOWnqzkRqBpM7BhSoIiAZO3kLLlSVGh6MQAAwccvBhNwJQYRgJsDOhkOnr8i5ROiM2Ml1+5r51xyKNpF82b4L8oCzVTBY4rA8Y6UEwoFrCPm8a0jOmuF84gCzOj6r5hIPpCBSGFyxPXUln82BPNeyEzh8UTDwwj8Ih6CBqMTwxIMy4xoCtjPDcXbZQsv2fet8wdSFAe0oHzUAvDBpQh2BUzfs/xi84BCKPOI60gBZgK/R9Ryo5RA59r+BA3JCmC+bq6JkZ1gUOzDDjIWt83PZtwdqSxP7hTSx+nKuoJ5mR/qLr1ALOzzDGbqQn4VC48PqUBqfDbRtZZw4VfuywpSWECwkCP5AIELV/NzhrCo5TBHO2yBSMI0hXmyTxw4yPGsE+K7Af2sfm9RKWQGCapUY7sO+RR5SRqQJ9aiUyWc9O2Lj2dEE1G8YEx5slc8rrv68fpmcoG2CmuIQRNQl6gdKHRS8DD7+AecIgZRi8gOpT4M/FuNRzrt2QOrRXiq5jWbklEgbhYKHySSffYRQP0JwmbNd5t1iUBdS+dBNYyDF6h2bCEBGIplI4/yhqQyYLKAMYFs5yoL+CQxKuMxoR8AGB096M3GGwzRUJBw7ceh0rmwzx/btQj5vCecnQcm15wASgPFFHKa57nAcAKg0+k0U90v4csEUbZwnBbIH5+kjXE74ckHdRj+Hs7H3VdXPHsuLeoISXVrZOFSfIK9YTCazegxihLKijYIorePdY4f53KVjvB0f480V7h9zkyKuOaDRHsuqeRobAnZBhmCGgsnq0KFDtGvXLrrtttuEtMA/qKysTBistfO0dRGx/b6oqEie8fHxkQ8GT7yHVRvUIqhCL7/8svgkLV++XMgR/JQQ4DwN1QlO22Yy5ZGqBRPHFzYsZH+ZC3xOzmFRETatmCsrkv6BfvqMz2iBr8wSJkHY9ozVKE64/ZDPd4HCksKrtm9++XZTV83ABYPDF+9ZRW99eorP3rgsyhUGfhAfEA/4eyTF8GnUPBnCJIWdJud5q+rL7xyWCW8DP7t17Xz5HTt09vGBe6fZFwg+MNhEDcfmLWvmsTLwuWkQkyxOIF7KZ9HYnoC7ZfV8+oQP9cNuss+OZ4pZ5TY+b+g2vg4TBnb6fMSYFpRWSztAGe7hgyxX8XEA11OGUD8gFDgzCCrNVzbNFpUI6gxOc4ais2kBb6lmX6DLcsp0J719ooi+elsKLY4PknJgB9gbRwqZxLSyusTb8fn0aaSbGhVA8azoGGn883uXmGjxkQS8Vf+Ts6X09TtSaROfb4R2C0fp/9yTIyqVbcAhjDDHyS41bicwpa1mteh2PtgR6heEIJCnt48X8wnVPaNWhiz1600P37WC3tt9hs8FypT6XbN0Nu/uCpNjFfKY1MB8uWhuHKt8nXxuVD7t4DNlOrq6qdCpVk6bzmXijpOm0aZBlN785IQQHnGCZlKDnZCPchvy9ooW1ekQ7ySDTxgKE8FkZ9OqeXy20OyhfigqJN9fxv5FaH+2Tu+2+JjxHW0HEyIm+z/yzkeIdPBJQ5uEmvLxgQsUxea7hSkxMkFu5HZ++UqFEKJWNjlBFfpb7p/W/m5m5HOicaINwAz/0B3L6B1uA79/85DsnsNYNI8nfyhFUIFwZEA6lx0KNRTdExcL6fWPTsi4hUXLV/hsMCgo9hrQp5dz/bWyKfNP7x2V+sQCc+OKFGlje/mcMn/2N5zPB7umJIRL3YME4ny33XyGFEzx3/zylqGDXO21nDfN11Uz9E2fm0EPzOIBeHRausmggJycO3eOduzYIUQGhAUEBWTmqaeeoj179sh2+V/+8pfDcoJrJ0+elDOK4C9kmNlgRrv//vtldxrifeGFF+Q9qFDwMTJCcnIybdmyhe677z5Rl24Wfvzjn4iZ7H/9ww9v9uio74PUYNCH4oKAbeggBei4mCxAICC5Q4GAD0ILr5h7WDVDzcGej86LCWgyyRzituyksjQPNBNMaiAoUAaQN5AKrKhw3g/MHkY+QW96mKRiAEV+0e8gncOHAvlEPCgrzvsw+iTiworMWqbGM4gDgxTiti4f4oU5B8qP0YTxPj7ASfLK95FXIw2obpC+jR1TwPrFty7QH/bmDNUVjgLwZFMTTF54D6dBdzIJAQHBwYlIF8QIpis8C8XH2GGHfEA56uZ3YEJDHDBbgaSAaBkBqpBh2oIjtZ/X53EgnVb2A+rj+G17JnyRUN/wM0I+kC52ueHPeBixI28gTciDdUB+Xv67TbSQidv1AvIu7dC6fnlyBGbwk0D9Aje0Q/hcoG7gG4NyWSR3/GkRF1GOUE9ot7gPYoq4cQ3vQlnBTiukA9Ml4kKA8ot2L9v1+VkEpIkJF3UINW+0ZgkobIG8o26yAtK39uuTYwNY/YCZF+VAvlB2tFGUFYoW2t8AH9gIAgdiiWft1XRkjRPyDZUWuKMeUCfo4ygX+hraAHavolxoL/AxAj4IMM9CvcO9q1U4WVUwqfEgv9gdC9M9AsoDYot6xZiBepL65DpDuVv4OVGYuU86zUJ9esp9a/+iycjgCz/8B+4/vvT8889PRnQjxvHtH/yY/utADoVufGrEZyZ6w/PMS/TNx++iZ555ZqJRTdn7dqEMobQwb4G4wNTV1NQkJjKoNjCXpabyOQ9MinDNNmDrPO4//vjj8p4xMcLsBnMb/iQHBtoXX3xR7tlutcd5RthxdisOXTTKgo4lEwlP+rYBHc86YAK0PuDQ9nmzvsvKkYnE9VQVTAZYVVoHDCwjbTvF4GMcJXCj/Brk5nrPAAdMkNczeeH5kfJ6vbisr8n5QKyq4M9i2AbbayAeOEn6ekG2Uvf1iDnsRgHpjRSH7Xsw27XT530AZrBeToPdHSYcUL8j1Rnqd1hdsgoGcwk+IwX4fhlO0td75mbv4x1MRvbgiAuSgwMp8bENtu0POIK8O2q4Ud+0XqigfPiOgwgdLaA+8cGp4LbBVtVCfY5U97bvOsx3XmuArBqLDofJt8kZtRsyBOIDwoMt79cLOBjxegHv4d5I9/EO1B98NCgCioAioAgoAjMdAWivZqp3jki0HNcdfqa3Zi2/IqAIKAKKgCKgCEwKAnajDE1KaTQSRUARUAQUAUVAEbgpAmYqQzdN3A4fUDJkh5WiWVIEFAFFQBFQBExDQH2GroFWzWTXQKIXFAFFQBFQBBQBRWAmIaBkaCbVtpZVEVAEFAFFQBFQBK5BQM1k10CiFxQBRUARUAQUgemLgGVr/fQt33hKpmRoPKjpO4qAIqAIKAKKgAMiYDnS1Ny/TeaAsPDfQdCgCCgCioAioAgoAjMGAeNUfrMK7Ig71ZQMmdUaNF5FQBFQBBQBRUARcAgE1EzmENWkmVQEFAFFQBFQBCYDAcvf43DEU6Ino/QjxaFkaCRk9LoioAgoAoqAIjBNEXBEU5aZVaFmMjPR1bgVAUVAEVAEFAFFwO4RUDJk91WkGVQEFAFFQBFQBBQBMxFQM5mZ6GrcioAioAgoAoqAnSFg+av1Zu4pMzNuc8BUMmQOrhqrIqAIKAKKgCJgfwgIE+L/jsdXTMVSzWSmwquRKwKKgCKgCCgCMwsBRyRaSoZmVhvV0ioCioAioAgoAoqADQJqJtMmoQgoAoqAIqAIzCAELH+bTO1k1lWuZGgGdQAtqiKgCCgCioAiAAQc0ZRlZs2pmcxMdDVuRUARUAQUAUVAEbB7BFQZGmcVDQ4OjvNNB3oNKuo0L+bAQD/19vQ6UKWML6uDzk7kzEtBV/453YOL08yR/2fCOKR/NmLyeyz/zXr5Z1ZwxGlDydA4WoMjVvRYi4kyDoIJmddfxpolU57v7x+gvt4+U+K2q0j7Z5ET8yBX52leoQy68wwhQzOBCKEPoZxKiEwYTab/UDAm0JQMjQkufVgRUAQUAUVAEXBwBJgImeoz5IBEa/pr5g7eZjX7ioAioAgoAoqAImAuAqoMmYuvxq4IKAKKgCKgCNgdAmaaHh3RlUSVIbtropohRUARUAQUAUXAHARgwTLVRGZOtk2PVZUh0yHWBBQBRUARUAQUAftCQAnR8PpQZci+2qfmRhFQBBQBRUARUASmGAFVhqYYcE1OEVAEFAFFQBG4lQjIKUMqDQ2rAlWGbmWL1LQVAUVAEVAEFIFph4Dj7a1XZWjaNUItkCKgCCgCioAicAMETD5nyBFFJ1WGbtBe9JYioAgoAoqAIqAITH8EVBma/nWsJVQEFAFFQBFQBIYhoD5DwxuEKkPaQRQBRUARUAQUgZmCAExkM6WsYyinKkNjAEsfVQQUAUVAEVAEHB4Bk32GHBEfVYYcsdY0z4qAIqAIKAKKgCIwaQioMjRpUGpEioAioAgoAoqA/SOg5wxdW0dKhq7FRK8oAoqAIqAIKALTEgHxFxIzmXoOWVewmsmmZXPXQikCioAioAgoArcGAUfkWUqGbk1b0VQVAUVAEVAEFAFFwE4QUDOZnVSEZkMRUAQUAUVAEZgKBGAgc0T1xkxslAyZia7GrQgoAoqAIqAI2CEC6jM0vFLUTGaHjVSzpAgoAoqAIqAImIeA2c7TZsc/+cgoGZp8TDVGRUARUAQUAUXAfhFwPK5iOpZqJjMdYk1AEVAEFAFFQBGwLwTUZ2h4fSgZmmD7LK6opxMXCujs5WIaGByktNQYWrU4iWbHhw+LGfeaWzvog8/OU2F5PfX09FFUeAA9tHUphQT6kJurC9U3tdHRc3l0IauUWju6KC4ymLasnkdJsaHk7vZ5VQ0MDNKOj09SYVkdJcaG0GN3ryQnJwvVr6ptpoOncimroII6u3spIsSfli2IpxWLEqm0qoHOZBRRxpUKztsguXKa6amxtHpJMoUF+90QCeS3oLSWDpzMpjKOx9vLgxbj3bRkCgrwHvZu/8AA5RXX0GfHLlNVXQu5ODvR4rmxtGllKvn7elJrexftOXKZDp3OpSB/y7vBAT60MCWaNvIzCLh/LquEOrt6aJDjiwgNoOVchvT58VLWmvoWOnmxgC5mlxLSc+KevWJREqUviKMAP28q5Xr55OBFKq3kvHq6S5zJ8WGMRQLNTYocsawxwd60fE4YrU4NlzgvlzTQydwayiptHPaOq4sTBfu40/2rEigiyJtcuYxdjNFnF8opu6yJPNycKS0xmFbPDSdnvofg4epMwX4e9NKnWZRRXM/5HqS4UB+JI9jXg5raeyiT0/v0bCl19/ZTWlIIbV4YJe8guHGayFNLRw+9tCuLPLlNLE0OkeeM4OPhKu/+nu+X1bdxnvqH7ln/0tc/wO2nlo5wHRTwTw83V1o0N4ZWLk6m8JDhbQHtrYTx3HX4ElVzfWIQTU2KotvXzuf69JL6aOvopiKOZ9eRDOrg3/FOXHQIffn+NeTC+T5y5orUV3un5V5YsC8tmRdPq7j94P3unl46l1lMh/m5ltZO8vPxoNXps6XOkbcubstHz16hC9klkhbiX5QSQ0vmx3H/CLtuGSfrYnl1E525XERHOP1B7sep3H5WcltDe7UOuNfb10/v7z1P2QWV1N7VTYHcFh++YynFRASRh7vrZGXpmng4acovrRGcs/Irpc0tmWfp27GctnUY4P5SyePE+zwW4Se+Y7y6f3Ma+ft5SX8tr26k4+fzGe9S6uH2lJIYQRuWp1Ayj0XGWIM0+/v76Q9vHaaG5nZaMDuK7t+yZCipIh6fgBnygz4aFxU8NBZl5lfQqUtFMk5gLML4t4bHoaXcv4N5PLxRaOf6zyup4faYQbWNbRTM4w/GhXXcXry9LH3deL+f2znKcOBUDpe1iTzd3WhNejKt5Wf9fDzlsUu5ZXTqYiFlF1bK2Tvrl86hZQsTKDLUn9BPdnx0kq4UV0sZBrndpSZH8ZiZRHMYM4zrTS0dtOfoZY6nnPEYkPfu3rhI2uXA4ACP+5304b4L0od6uH04OznRbatTGa9oGfunPvCRi3rO0DWw2wUZ2rlzJ5WUlJC39+eT6pw5c2j27NnU3t5O+/bto8jISFq8eDGFh1tIxrlz53jQ7aDkZJ7Iw8KotraW8vLyqKioSAqJDh4REUGIJyYmhg4ePCjP9PX1DYHQ09PDHdtJ4ty6dSsP2mODA4PfsXP5MvB5ebrJYAdS5OXhzhOKP/l6WyYxJAgilJlXIR0GkzPIDQaiAydzaPOqVB40vaiYSdKnhzJkMvLjd+saWqUTPb19PQ8WPtKAu3nCzS2qkg6ODtrBA+7g3Twq8Slatfx8xpVyJhHFTAi8JH2QD2Pw6mBigQk4wM+TXF2cqZE78WXOEzr0g0zKRgoY9EBgQC46eDLz4XhxbQ9PfFFMUoyyG+9Xc7my8sopnwe6yPBAauN3C3jw8uGBCoQIEx8m4lwefO7bki6vBfCk6nWVtOC7ngvJSAAAIABJREFUO2MZwHn3ZlwxAJVU1vM1Fwpn0hYdGSSkLrewip8c5MHQR8p+KbeUnHniXb8shcvWTlcYp/bOHornSRnBnwc/NytSKRetAujksjmhtCQpmDq6+4RILIwP4gFsgMrq2qi1s3fo6UAmQmvnRVBcmK8818zY+nq60j3L4+TdioZ2auvqpdqWLh78ZglxCfX3oE1Mbl7df4UxJ4oI9KIvLI2T90BwPJlArWLylFveRMW1bVLXDW1dUj8ISRF+FBPiTfWt3Vx/TtTLE1EL56m2uVPugwilRPlbCNeuTKmjkUI3k4u9PIBjEkO9YBI4yBNGaBC3PSYinh5uQ6/WNrTwhFYh7TyK67Oru4eKymt5EZAv5NWT66qQifLBU9kyGaDNoT16cRyD/A8BuOM6rmGCAGm/5FQqC4KY8CCeFKulfzQ0tzGBD6CaumbK5kkUZGs+T7KoS6SPiSeCJxuQo7NMnhB/QvTnE/RI5R3vdfRx9Ce0Ny+eSNEukQ8XZ2ee3IOkjxmOqGhryCcmV0yc6Of1ja1M4vJow4oUSowJHW82bvoexrt9x7OFxIAQoH0c4XQDebGBBYexIEBE9U3t3O/LKYPzGRkWwASOZKIGYdiyZh6TbhcZW7CowlgEooLFxZ6jmRT78LohUtfe2UU5hdUyFlXz4gRjihEwtgEHkB70bWe+NxyrbvljoRj3QNzQDrH4Qbhj3YKheGx/QZuu4fb49q4z8j76NBZMu7ktJ8aEyALSeuFYwouhjCtlhEVrDLfdOl5woi178xi9fvkcGdfQjrK4TkGq0OdAfDFmRmxcLMkDzyAeYzDW9PFYcDaziMvizn3FV8gVSGM+j29oKyhjNo9LsTxGYTzz5D4JQoiFK+LEuNza1ilYYr64NWQIpTLXToa5ytHC2GZ/k0r3yiuv0OnTpyk93TIxIhmQk+DgYCE3v/jFL2jevHn0ta99je68807JBchNZWUlPfTQQxQUxJPjmTNyraCggDuXs5AevOPq6ipE6uTJk5Sbm0tdXV3yPgYPfMdAtmnTJvmMhQxhZQpicDqjUCbjZx/dKA39h798RxSUipommsurKSNgRY1Og4Fh29Z0+QkV6L2953ilESn5wWqnjAezbzxxG0XzILWfidJvX99P993GKzaeSLCiaGJStfdYlgw8IAbWAe9jYMKK568eXCuqEFaqnTwpY0AL5kFx/bI5FMqrEU8eDKAevb37LO07kXNDMtTHk24dD+oHTmTRM49u4oF9Lk9mTfTCr97lstbIgIlB1Qi5RdXS+ZN55fTlB9ZQeVUj7ed3PzuWSeuYqCBgIIBC840ntgwrg/FlVVoSqwZJkm+Qgd+8spcqGVOoGNERgTw5FXIcbnT3pjRWNGJ5ZVdAu3mlmMmDPMgQQnCgLy1dGMJYrLtuGtYX0Xm9eMJOTwqVlfGv3r/ISk03fW/7EkoM96VYVnCgDhkEA0rOuvmRVFjdQp9d/P/Zew/4Oo/r2neLHYUASLCCJAD2XsQuUo0iRUmULau5yD32ffFN/HztX2In9+cWO0587439bL8Xx46T2HFJLFtdUS+UKIm9906CDSQa0YnCprf++/CDDiCCOhB5SICcoY4AnK/NrJnZs2btPfMVWmHZCZuUn23f/Ng0W76j2DYfOG5l24tsmT6kIX3S7eYJA234gEwnSqhIqELzpwy2Hz250TbuL7Pxub3twblSt4b3dZKDwsQnSh+YmecEbJe+O9EgolTTIJJ2wl7ZcNhPGTVIJEGz+HFDetmx8jpXiM6XTqtNQCpQEe5W27rjpolOWL/7j085SQXfeDUhIq7M7D8upQdij6r30ltbbIZUUMjqLg0mDK7/4zMLnXzSVnkOWGJ4p4zNlWqa6wMV9fnbJ5a6aueEWYR6nSYREKFbZoyxhTdO8LZCW16reh0zdKBtE8lHEZgiBeCe+dd7/v/+Z//lhOnsfCmDnd4ZiM9X5vfzHXVdJ4KD+shE4qufu9MnEv/vb191nBhgIWqdz1l+CPhrIiQQv/lSdIfn9nM17KlXNthgDY7JIkMQUAZ17Al95sN3Tvfifv1Hj2sSUmrDRMJQl6PExGLzThEh4f6pD81x9QMi/JRsESoy9JXruOdf/+kiKXNd/Bh2B5Wri2wPRS45XuPqDHYPOxOfqC9IIzaIyRxkrFGs65TaJDYX0p1zQy8nIOAFcXr42VW2Uir7hcjQKd0DpQ4y8f2/eECKUK5t3nXE/vE/XnVCjV2FpERpy67DPumcJNXzs/fdaBt3HrSX35IqvW63zZk6wusQBYtr/senFkiVrLMf/uolb3u3iugz0Vt0yyQnMpA2yNJf/u8/uI2fMHKwFPWe9qL6AbaeCSUK+6+fXCZSXOxENF99YYnsK33nFtnNkfn9RCCL7O9+9owrm3gRrkSCq3REwpJMrNoFGYKwQHL+4R/+oamsEJqamhonQ1lZWbZ9+3ZbsmRJExmKBwXi8+STT/p5P/rRj6xv377qdKessrLS2Xr37t3tL//yL/336AMp+va3v+3K0/333++kqS3ppDrlXhkMDAOyKAyfTo7RhwhhCOLJUJnk3O17j9lHF810A8GMaKzIwP/6xXPuFqCTc93N00f7TC6zZ5q7hvpoQGfQoLMyq4YQoD7dopkmzywVSYkSSgkurC9+Yr7uEcsPZKKrZno0/EGaGZGimSwDXrqM1L7a4gsWvVozGe7L85iVM1tnZj5XxArp+WhJRTMydLCwTANXg1x8Y5z0jMzv77Op3SuLZXjPP0C3zAD5JjEgnZWxxmBDQOMnHKfPnJa7EbXmbc8P16TLffd+EoP3UCkvDNTHKk5I0an3Z289WO6KzMT83rbzsNrTOaXDn6HMoPh00bUYyu5Sdqqk8DS2GBg4NbdfuuWLVL219WhMBZLKlZnazV1fBcU1ViUXGSRpw/7j7l7bKjJ19PiJZkXJlwqVI5ccLrATIrgt01iRoDTdd+1eKaBIT60kd2mpjiDYqDBZamsUZpbcFBASVIB4MgSZpf3ee/s0VwVxi9K++eA+LZaKU11b5yQoX7NzZsuk+Bl6VJ98D/E/rQ/qSZT2avBAkcI9EetHeU6AGDg8CWsGXPoJ5AtliwlBD828I+Wz6WaX6BcUrANHy9xm5PTL9IGPvEGAyBckiT5O2yHRTyA/H7t7pg9+TJJwy/7k169YuRQJ7hP1vUuURb8NRI0JCIQDW0Tfr5d6x0BbpTwxcMeToaMlVVJay90WYYe47oDI2haRCu6Fa5uy4D5HNeyZluLECdWDCRd9GsyxSyhmD4p88Yz4tFkkpFaTxQ/fNcPbA+XG3dldH1K+8CHxPbgMk7pHG4GAXSgRSlB8vMrrY6A+PTXxYzI2Y8JQEfIixz2eDO2SUsf9CRPABk4cOUREe6crQdgU6pA2TT1Sru7dmNhlOgmm7nGJRu0Y+4P94jruGbVJ3IC43XCbcQzb/LiUK+wgZIjzsE+0X4grShaYJtNteiEMw7HzI9AuyBBZg/xAWuITHYUPbi6OQ1w2bdpko0ePbjoNw1pfX++fPn36WK9evfw+3bppoNHHG61SPNmprq62P/zhD/797NmzbeLEiX7/tiQM+XENHDRoBuDIyGFcIDX4ieMTriFUnV6ZqX4Ngyedn9+ZMTXoOC4vZN6IvNAJuR8Gjc4EIXlJM7EPajbPgAS5ik+ch7Ei7mLvoRjBGSv/9oIbxjmRiWJXoms2yhAQw9EyvqklDjy7WkYqS0YWY4ZRYSDqI4J2RAYRwxGfIELEGfTO6uluSNxE3Z2UqQ6J91CdcA1y9P/8wSM+M5yqQWO6BkJiK6JEfMhTMirEOnW6Tu4vxSyM12wMrFEzXlFc0T/+7lU3iBWS2W8SkWS2FyVcMRuRwOV+wZDPFw6ocJC5lklZNFxfp5hlS5U512ycpDBmZ0kWj0/HRFyeWlFgn7h1lP3VgzE3HOV8dvVB23usquXtLa9vT8vrl2H/8doukaFTTlogTxW1jTHjqivq5W5DjSIf3RRfFJ8gUhkiT6hBhSJJpyTXt0xjB/eSK0dkaE+JG93WEkS+suaEK4i4uKhPFBwGb2bJtIn4dELGm/bJIMN5naXCOMnWB3WU+K1KtXdclT/+1YuuREKaieOYo/iLKEHWH3l+ldqxFDb9m64BDLUIlxMul54iQ1HdZEh5YxCpVVui3c65fqS7jXEjL5YqwPdjRUpmTxnhbSwZiTaAAsWEB6yiPo5rhjzjZo7aCc9H9WBywkCHexfCAE641hgIwTAiipcyv9wb5TZdbRTXDPVJbBk2AhtVc6K5LWIwhhBD7qhD8OumySB9m7qjLxHbknvOZnA/2gl9CHcW7QcivFb9F+UXZeiAXPzxqaKqzm3RK8u2y4VU7M8hHugmuaaY4MWTQtrqqi37/XInDxdIkDVsB7YHe6Kseb5xYx2W4tUgF3V8qlZ/Qd3x2EQVhPg17Cr4gAtus66qS+qURL6ov0b64rn6hQRha55avN4nBdjScYr36ac8cI7XsfLAGMJoQ/kalQ8wpk9BOn//zEr7yW9edqxp63fJBUeM1ZVM8XVwJfPRXp7dLsgQQXibN2+2n//8545Lenq6TZkyxYYMGeJ/p6ZKRZHLC7fZ888/b4MGvRO4SIVCeiBMhYWF9otf/MKvy83Ntfz8fI8nik9VVVW2bds2d6nNnDnT5syZY5mZmc3Oif/jyJEjtnPnTtu3b59/vXnLZhsxcrQbQWbFzArpYFGK+c1jgZTx9yFWB6NFx2HQJF13TnqF0EWzBjoVHZXETwZF3A0M7LjQajRYMnuG+LgliEsYKWZWHBuu4L1I0SHW54E7prsxI3Eebjt82Qw0BB5eKGEMyF9X5SWahZN3ysJMKH6Gz31cxRFAkByySB1hBCgPZSEehTJwHGNBnnfKjw9RYibpRk7nInkz4GFcmKVxLQMKBgejiJEbmT/AB95DMsYY+WOa9VJ2rpknV8VxGS+eg4HHFXBSKiKk6V1JzyPOgnxDiKJ06kxMTcRgemHOCS6UhyBpyEuhApUhMn00gOdJAULxiTmuYnfpre/7Zip2S9dvl6utXu2mZ2qsnhl0ogHVcdazo0Dp+DziQqPd7D1W/a6gaL7voyDrPnLhVGug2F9U3RRn9K5y6gsvowZucG6qT31PW6MttiRS/E0dU9/UC83T3Qb6UNeQZVxEuM8IlOc4ahExRbiH+mdn+gDEDJzgU9yXqE/MslEwFHXm9yHF+g8/Y6Yp+p56cxVWs3YUTgYhnlsqIuZlaUEez1fu9/Nd5Nbh2VHid8rf0jUErifVDrAH0cRDHN4JJELdGbWlZCTaDX0aghapVG4XVV+oaBGG0bOpS+o0IgVN9al8cox7cc9Y/40ZGcpDuWNuqgrFGJV7/AxBz9ilFqbI4wKxP/RXgu1RHJmggRlKUmTjWOTBhIrYSfrsjIn5F4TI865PlHdOjpFO2UnsDjOXuMTzQN3bLt+rsG6LztUfkzYmpFG745TI/lD35y5x9QnVH4UPZY22B0604c6duee5oORzz8LeR/lhwgCZZmIL0ULZQuGHWA5Tm7kSpMTr3EsXUoRAuyBDqDcEN6P6kFB3IDwRGeK78ePHW0ZGhj3yyCP2oQ99SEYnpkbQkHr06OGkZvHixU5yCIjmA6GaOnWq5efn+31xp+F2e/XVV/2aadOm2ZgxY/xYawlXHcHdkDVSWalWcA0f4QafDknHxChEicGNUTO+c3EMI8V3dCA6CglDhVGKzcwin/SppoHMjeu5QQt1hDgFZsT4uQlYJOgRBYq4CeIReAautMEDshSzMM4HqBc1k37ujc2KrZnkZAjjgK9/8codPtNGPkbKv1Cio5N3DCFGMsp7zAC/Y/ije2CUMXaQRc6mfsGJ8mBQkeVv0Ez/BpGwHrj+ZEx/rRgSVhPdcdMEX4GDgcHtguwNvr9/doVVaraJuoArYO2WAh9cmWGhbOFSefylNR47dMvM0R7AfvetU3xggkThw//H373i6gPPjsWyxJUagqDnkG9WhkWpq/JBGztF4H3cWJbds7vHDG0/VKEYoSIrURAzwdbEDK3fV6ZYnwoZw9gFuNnSeihgXnE8ZQqoJlHvThiFB22JBLng2QRscyxKHCceiXazRe6zlol7jBNZQm0pqqhztelCycso8uAEPKpPXUBbcyWvhUrKQEjb8vpUvsga7YBrwZG2QVuGMNLOCP4njmLFxr0erMqsm76So7iyB++c4c996hUpfhoEcTEQPxLVh5Nu2tq5fkRbou1slQuHdLPiLubfMN4H1//vN694rBLfEZ+RjEEFnCgzbShK5I3yt+zjPnlROTk3IpTytPmgqKr1Np2M5GRAkygGZrAikWf6J5MWMIxP1CV1SvwL7aypPpXPSLHmnrH+G2uHlIdyQSpwiR2UCkOcWYFcQQQPQ4ggFSzuQN3ppPvjYmP1GYosblniI1+T3Xlg4TSBofsrf6jdfFethQJzpSISh3Oh5HnXJ8o750KAIjLYUiWk/kCd414SFZbzo/pjAkDbjbW32JOdQOm8iGDTriBCrLZkpeQPfvniufCAKl/kAcnlft43zj2LvkybhhAS2E5wNytv82TPCE7/u58/Y6M0keO+LdvRhcp/SY8lpzl6FpN460sKQfzN2gUZInB5/vz5Hu8Tn4j5iRJB0MQCkXbs2GHHjzcfFO655x4nRARFr1+/3l5++WUPqiag+qtf/apfhyq0Zs0ae+655+wHP/iBTZ48+V2Gv+mB535BkYqCt/nqu9/9WzutFk+HxDfPDAGCQkeg0zBjJcVW1LxzNwYDlA7kY65Bdm5UXBO/c4y/WYWGy4GBFwPF7ApFg1kFsTmsUiDQlEBJDBVysc9q1KG/8pnbXZqns00XuUE14Trikwg4xJhxT/LH6ph/13LYL3/6dq1kG+3nXijxDAY48kKeuA8Go0yrOrgWAhaf0iTXd6vqrFUrNbFl2m/HDCvXsDLDZ5wRA9CFBF+zqgj3DOWHtLlRU4/iPMo3QsGoG7XaJBr8iEnAuBCPxLnjtcyZAZbruSZy55EvjM0EGTKeDd71eg6utfgEJ6jQKi1UGVZ3kT3KmZmGu0O4tSAYLHe/SWTo1Q1HrKiyTvERWiGnYGqMAK6q7sozMU0k4o0YKAmSjtIJyehI8bjEMJpch9KEOw4yEwU/kw+OQ3Y2HyizbYphapl4FqvQjoto7Sl8t4uu5fngT5yQz9ylzFBOBmxcAKzYox3FpzTVL/EeuIBwT3S67owPLpBj3DIQkcEKus7QwECbo71Qpyg4KHbXawk9z/D61A/qgwGzXKuaCHjHtclWDRyrUvvkGQSychGuH9ruerlkIMZO+oVHn14Z7rajPiH1uGouNRkCe+4LCQCrqI8T48d3ffpmNBFZ8KKd9u0dUzpZWUY7Bif6DGUGw2Qk7t1HCmutVEpUCPIJyWHVGEQoUoSjZ6PMQlSYFLEIAzJ9UraIfGKHqE9IAu0hZjfe9m06UHBxN21VneEmYyXqqwp0h5ig6nKMuvmLzy50e0Gc0iQFCTMhGaltLbB/RVIMSbQH7r9q4357+LlV9jdf/JBc5Xm++upCCVuDzcEli3LDfXBJ0ZYyNdHpofYbn4hDowyoMJBx6i0iUqg04EaMVBTWAHa4z/BWeJsir/rwE5tPOx2e298VIojcoP7DmuqY5/ChPdKPwBiVHjL0jT/7gPcHbBCTN+wB6jbt94qRoQsBfQ0eaxdkKFHccX2hCqEAlZSU+NL7+EQANcvv+f7GG2+0X//6102KDo2cJfyoTx/+8Ic97ih+KX+ieYjOY4Y0PJdAbQKfq7xj03kYsJF7WQETn2J+Zq1qk2+cgZ9OsEMBf8T0ZKhTsgohp99x9y3fodU0GKUi3Zd9NFimiaFgCT7Gjq7J7Gyl3BCQq69+/g5XS4Yo3qjEl5gXKr4nTUs4a3zvIo7RkX2Wsmqnxx3994dudUk62mvjQuUnf3TksvJad9cRLIvqRGzSRxfNUr5jgdnRPSBkGIsVWtrLXhvEiGAUcGlhnCFxzDzdJaif5BH3VhQLgBLU0KhYDZ2L8cDAsFKEmKuxw+UilWXC2FIeYhXyB2m2JeUHskUdMEurlkEjPgOiiZFHRTuhwYJ6i1/CH+WZGXVBSYxI5fROdbcT8UIT87JdcSGQOjbvi11x8pQMrOIRhg/M8P18aF+DtEcRK29Y0YXbjMSAimJUWXvSNha8Q+BZfl+pYGtUIFarVSlvBEdfr32DVu8q1r1j6k6a2sG43F663ylXfXCDtUyQqJmj+9nzaw7a7qPvTCBanhf9TdB8njCDGFOfxA8xy1+t9nSbZvG0o/g0SHFcGH6WztMWcYex3J7gUogVQdOQVAZI2jXkDVJK7BwqXTTAQFYYmKlPVE7uwcBA2yT4FNcacWSsJmOZNUoH+9twHXtHMaChJjEYMTCjjtJP2JfmUhMhyk+cWn4OMSzX2VFNKCgT7Yvl4gxkC0eP98E/SvSlmVJa2SKAgGMGubXbChxrYlqSkUeeDUGAbDApY9IETiSCuYnFiw+e5vsctxW9XZFhuTk2hoBqVjdBlFAxsC9LteLqA/MmOYHArUN/G6HnMAG5fc54r2v6xG4tr+dcyB4rYSFFrKRDwWYC11e2jbZAnfWTCkiizT0vxRp7+WVN5NizCfLwXgkcuQf1wSoxXOS0g9VSilktFt0/ug/qC+rkau0jxL4+m7VqDTuBYkU7Za+0PYpLZKuBBdo3i7bNvbGfLCIgzyh62CrsEWXeqVW4THax6dTxWMUhEnu0WzYKcskWBajbKNtOVBWbBRbDhAkkE5Wf9sMkpuVE8r3KfymOY5N8YuK/hBQh0KHIEAHSs2bNctXn8OHDHjCNoW1slKIgckTgNN8Rc0SQNEHTVDgsn6X7W7du9WN33323L8dv6Q5oS7NgEMfdg5sJqf9nv3/NOwyzjmiTRJZ/MnvNJW5CCg0bzD316np79IU1Ll8zsyEYmg6NkcWAQDoee2mdqxEMGvO17wezTToen/jEMnPKj2FjQGFwQl1ZtkEbnWlgggTIyWMf0lJkZvvrtx/yOCFcSixpxVdPcCed/j4tmW0t4dpitn6rYnBYcorh4LmQIMpaLmKE8eyrTg8RgvRA0t5au8v+RVsDYKRRYthAEgPEwLpNhI0lvgwmGAak65mThjoxJN9vaY8TNpHjOJsuMhMcKmI1WcaLMrG/DQTo4WdWeNBtpfIAhgTkMhsnaBoCxYyPWTKDPUacmJb4ASwqMzNMCMpGubimaBPDP797oqszWenCTd9VKeh5/uTB7uZiz6FiqUEvrDtkoxW0zBJ5CBCK0JtaLXZAq8M85kK45WRr/yR9z4oxgq6jxPHD2kvo1Y1HfHn9jeO1akXn1ysPG6QgVYgckdKlUrGc/ujxOj8/cr1F9+E4y/6dgFTWaw+iC6/G4TraPVixBQEujl88/LrPVDHg1CeB/Eu1dB5SH1NjpOLILcXWBb+RO5MBgVVcCxXEzuBJOYfqOtrjr594ywkuuEPwJ4wa4oPIKm0rwaBEW4J4QpYhDMSO8R2DNjFGS0TWcfsSV0Fe2NyQ+mJlU+z4DicbrrZoMCGgnhl+Mgw7YwUqBG1ujQbbnwkn+jh5x2XCoE9+wQ1ljJ/EqT2l7SqeeX2jn8tgepNwhmAkK4EP7t+5UtiYePzTf7zmagwKHYM+qh+TIGwR/ZM6nax+8KRs0W+eWuZkh3vcy5YfahfsM4Qtoq+zoSJtlf7JpouR8het2MIOYMcgw9RjtGIV9w9kdok2afWVZVKOaCd33Djebd/qTQVyo8b256H/spQfosCqLshwa4lzeAbL7xev3G5vysZAbtzuiKhBNHDVEacG5vR3SD97Cf1Qwf1MvCAsLNagnXId57GS7kf//pLbDiZLU1TnTKQgXGwjgYpGvsEKdzo2DpWSOr5T/QBS9x//tcLHBPZ6Wqj8QfAhQ/fK/rqtenalHwcLJrcjWYko3K9Ecj6UTC6U4L0rKips165dvlKcFeCEx+CxIYTlfImQFQSNLVu2+GHiiDl3+vTYdhLnuybR7zoUGSKQOi8vz4YOHerusPLymMsAEDdu3OhuMEgObpODBw+60SduiOPPPPOMA4i6BJHiQ+IcAqjZ46it5IjORAAhzyPepU4rMYi/mTBykA8SEJOMk5oJy5j01ioyVg9AGvCfoygNkkJ088xRsb02pFigcNypmJlN6pisyILkoAZh7Fsm5F86f18NWNFAgEFG7mb2zCyO1j5S6hX3ID/M4jAkkDL26KFTIudHKylaPiP6m05DHu7UrqoEIbPUmlkcBgnDihoFocF1h7sJ1xzLj9mLiGMYSWaUDHze+XVDAitZjYNvnfyPF2asPsIAYbz5IL17DIQMbq5m6FNEdDBc5IdVShgaBkZf8aN6nCwDzK7GzHpIXI9rj3riOHscEZDdWoIQrd1b4odxO6VKcdlyoNzdWyxlTxMBYCNFiCekaPHGQp/dERzNhoeQKfYcOlQa2+6AfBIDxFL3fUelfLVY6YLS87J2m/7grDzrrfpEHSLAGjIFuSLRdliuz95CEKqWCRIDVkv03H0KnG5tx+n468gX9c8O0uw1hEoDKb5ZKg4GHtyoT9y4EEmIMAom5Jn6BE/OY08blDDaP0R1lq5DjYDEM1hSpxBt+gH1GPsZi62ASEMyGHS5np+4J6gviBeB9Twzphxd53tJQaoZtHyVj/7hfqPOUaeSlWib7GUDDrinG1T/tG1WRrGKFDUTBZIyM+FAfdingZ3YNkglSgXLriF+yUys8Js3a6xPdlDoOp/u7DspQy7Ie2SLIDZgO35kjk82IrcVbsubtSScMkGssS0sEccWQXZGaSLBJoUoq81TbKEDE7H4gZ1+iooduaA4xr5ic7T7M22WPLH/EeQqiq2hXWGTLpSoD0j2fYo7Ypd6XLeUh3gj3GBseUCdxGKEYhPFCVK8UMtQHlF8pBTLAAAgAElEQVQSWQnGpIl78XzqkvpjaT55oL4gcyiD2C4muCjbED81O50vO6O2SxsHT9z15JsNb1nEQbul7RN0zX2xk/RR4qpYlYtNWDB7gmxz87cUXKjcyTiWIF9JxqP9nuC5b98+99gcPcpEqYsVFRX5uM5myXhuojGZc9lkmTAXhI3aWq0ClNiB0EFc76VI1+khuESvaPqLv/gLD47+zne+0ywfqDsQmKeeespuu+02u+uuuzxwmg0Uf/rTnzoYX/nKV9wt9m//9m/2xhtvOCFidRkB0rfffrt98IMf9BVlDz74oAMO8Ylfws/vBFF/73vfs5SUd5OOlsBEMUNf/8a3Wh66qv6mUTAgX/nWkVxY//bhtfYvL2xL7kPawd27yMg//s27tKlk8hSKdlBMzwIEGzXuak/twHRfNoiTofxdtswn+KDvfPubitfqaX/913+d4BXv77Svfut79uTa/Tbqnv/+/m6QwFWVz//E/tu9C+zzn/98q2czlv/+97+3P/7xj/bjH//YVSF+ZxyHE4waNaoplIXFT7xh4pe//KV7dzjOT4gQhOliQl6iDLYLi/H1r3/dZ4ctE4VFAiO+B1WIBAHiu5/85CfO7IkT4jt2p/74xz/uTJHv+XBNxC4BEUB5TnzH4veIPLV8fvg7IBAQCAgEBAICVxsChBpcaYKJOIHCAwnKycnxsZrXa7FFztKlS/3NERHJgTi99tprvogKNxrfk384wqVK7YIMEedzvgRxQeHhEyUAQMFpqeKwHP9CCbBDCggEBAICAYGAwDWPgHxkGkqTltgE+YUXXvBwlSih9LDVzbhx4/wrVosTwsL4jyDBeI/nhg+EKNo+h3MROdgWBzUUz9CqVav8d2KIIUcQp4tN75ZjLvaO4fqAQEAgIBAQCAgEBK5ZBFCe8NhEYgY/I8ITgQLZgdDECxtcw4f4oPgNNPkdl1hxsRbFKBSG+CKIFPsKEkPE7xeb2oUydLGFCNcHBAICAYGAQEAgINA+EIDgLFgw/4IxQ1HICuErUYptiHm2aSV49D0eIc6H9KAwffrTn/ZA62984xuuFLGVznt5h94LmUCG3guhcDwgEBAICAQEAgJXEQJ4yFBvrmRi0RQEhw2Uo8UAvH+UD64zFKIoQYZYKU58ETHELHwaMGBA03tLUYyIH76YOKjgJruSrSE8OyAQEAgIBAQCApcZASdD5+KGkvEzkeJEAdLEB7GkHtdYQUGBvzWCF6jHB0dDjNj+BuXo2LFjTp4gTbzGC2UJVehiiBD5DcpQIrUWzgkIBAQCAgGBgMBVhEAydaFEgrMhO6weY++/P/zhD75CDGLEVjgEWbMZIySI94zyHWSI42yezLY7bLaMQoTb7EIvW0+0ytpMhsgEfjskKSQudn7Gd0e0N0wP6Ste3ko0I+G8gEBAICAQEAgIBASuDQRQcnjv58KFC+2xxx7ThqYNvmfgTTfd5EvoWTFGgvDALfLz850koQa99dZbrgTNmzfPbrjhhmYrzt8vem0mQ2yFXVZWpuCoBb6Pz/PPP29PP/20Xn5Zb1/4whc8kAkWF1JAICAQEAgIBAQCAu0MgXM+sot1K12KUhH3w8bIfFomXr4en8gvL3Tnk4zUZjK0fft299ktWrTI5Spea8EOzjC8Rx991AOcAhlKRlWFewYEAgIBgYBAQOASIHAuXugS3OmquUWbA6jZMZJ1/gQyoRIhYfGSNDY+ioKgrhp0QkECAgGBgEBAICAQELjqEWgzGWLzJHx7K1eutBUrVvhyt0mTJnmsUHuQ3a76GgsFDAgEBAICAYGAwEUgEFtaH3undTJ+v4isXbFL20yGeK0FO0f+6Ec/svXr1/uSNlxjfEc0ODtDhhQQCAgEBAICAYGAQPtDoIn8KAYHASMpn/ZX7PfMUZuZC2+PZ9OjI0eOOBEaOnSovzUWZejLX/6yL3MLKSAQEAgIBAQCAgGB9otAIsvf22/uL33O2qwMQXogQShBECI2PiJ+iKX12dnZHkMUUkAgIBAQCAgEBAIC1ygCydzEKEmQtlkZOnTokG3bts127Nhh+/bt822z2ROApfVr1qzxzY/YgyikgEBAICAQEAgIBAQCAh0BgTYrQwROP/fcc/4+kQ0bNvgGSNEbZB955BGDLIUUEAgIBAQCAgGBgED7RCApcUJx8Uex0Oz2WfbWctVmMsTyeVxhf/7nf+77CbELNTtOEzyNqwyXWUgBgYBAQCAgEBAICLRTBM7tM0TcUDI+7bTUF8xWm8kQL0gjYBryw08YJi9KI3YoevPsBZ8YDgYEAgIBgYBAQCAgcMUQ6IAhPUnHqs0xQ4MHD/Z3kb344ovuKuNlaqhDe/bs8feGEFwdUkAgIBAQCAgEBAIC7ReBQIia102bydCECROspqbG3njjDb8TZIg4ocrKSvvoRz9qkKWQAgIBgYBAQCAgEBBovwgkc5Pkjki02kyG2EeIl6vx+o1169b5KjLeKDtx4kQbNmxYeGN9+237IWcBgYBAQCAgEBCwaOPFAMU7CLSZDPFussbGRt9ssX///nbw4EF/J9nOnTs9oJp9iK72Xai9IV3tO1YpNkx7k6qkb1/V/WXe1CGW2Tv1qi5jVLjXD1TY4oNVV31Z81WffzI796ov57VUwLOyR1d7Iub26i9l+63FNpMh9hIiZuiee+5xQrB3717fcwgSVFJSYgsXLrT8/Pz2W+KQswQR6IhCZ4JFizttgAbO8ddAURlLXtpRZmUnTrYdpA52xTVQnR2sRi4+u9cAF7p4kNp4h6t+Qt9GPNq8mow31S9fvtwfs3//ftu6dauVlZX5cvunnnrKd6UOKSAQEAgIBAQCAgGB9odANFmIXGXJ+OlOhQ6W2qwMRZs18TqO1atXGy9uvfPOO2348OH27LPP+ms6QgoIBAQCAgGBgEBAoH0iEO0tlKzcdUAuZG1WhlhGz5L6V1991V566SXr0aOHjRgxwjFlv6Gw11Cymle4b0AgIBAQCAgEBAICyUCgzcrQ1KlTfafp7du3OwkaO3asxwsRRM0Ks7DPUDKqKdwzIBAQCAgEBAIClwAByUL+72pfBNRGqNpMhiZNmuS7TxMrNGfOHBs5cqS/ggNV6I477vBl9iEFBAICAYGAQEAgINBOEeiIfqwkQ9lmMsSyeRSh66+/3l1irCA7fPiwNTQ0ODnq2bNnkrMcbh8QCAgEBAICAYGAwMUgEISh5ui1mQw9+eSTdvToUX9RK+6yX/ziF74bde/evY3dqR966CEbPXr0xdRRuDYgEBAICAQEAgIBgYDAZUOgzQHUBE+Xlpb6+8g2b97s6tBNN91k999/v23cuNGX2YcUEAgIBAQCAgGBgEB7RSAWMxStDr/UP9trqS+UrzaTIWKD2IG6rq7OVq1aZVlZWbZgwQKbO3euVVRU+LGQAgIBgYBAQCAgEBBonwj40nplLWmfDuiDazMZSk1N9YBpVCE+kCF2nIYkde3a1RWjkAICAYGAQEAgIBAQaH8INBEgCFGSPu2v1O+dozYzl5kzZ/o7yL7zne9Y586dfbPFzMxMf0UHL3Bl36GQAgIBgYBAQCAgEBAICHQUBNocQM1SeoKk582b5/sL5ebmGmoR33/1q191lSikgEBAICAQEAgIBATaLwJhn6HmddNmMpSenu4usaqqKg+WZmVZ/K7TYZ+h9tv4Q84CAgGBgEBAICAQEHg3Am0mQ8XFxb779Pr16/0nL2iFYdbW1vrvkKH+/fu/+0nhm4BAQCAgEBAICAQE2gUCxA4lKyXz3snKc5tjhl555RX7z//8T19ev2HDBktJSbG+ffv6SjLihYgjCikgEBAICAQEAgIBgYBAR0GgzcoQ7jF2mf7Upz5lmzZtsilTptitt95qN998s/30pz+1mpqajlL2kM+AQEAgIBAQCAhccwiwiqxTB1z+nsyKajMZipbQDx482EkRShDvKsM9xoaMvJYjpIBAQCAgEBAICAQE2icCvry+I/qykghnm8lQdna2nTx50rM0ZswYKywstBdffNFJEG+sD0vrk1hb4dYBgYBAQCAgEBBo7wh0QKLVZjI0fvx4V4HYePHee++1X/3qV/a73/3OWGWG6wzFKKSAQEAgIBAQCAgEBAICHQWBNpOhcePG+QtaCZyGGH3zm9+0EydO+M7T7EbN3kMhBQQCAgGBgEBAICDQThGQjyzsM9S8bhIiQ6wUW7t2bUK1OnnyZN+hOqSAQEAgIBAQCAgEBNofAsmOGeqAXjJLiAyxQox9hRJJeXl5gQwlAlTcOeVVJ+xg4XE7WlKpb9+2nP69LHdgb8vOSm92Jza3rGs4adv3HLWK6hN25uzblpWRahNHDbKUHt2s82V8L9yp02fseGWt7T1YbLUnGvX8rjawX5bl5WRb925dm+X7rPJdXFZl+w+XWs2JBuvSuZMNGdDb8gb1sR7d3zn3zJmzfnz15v2W1TPVcgdlW7/eGSpzo+3aX2TgFKWGxpOW3aunPy9Hz62ta7QDhWVWcrzaNwHtoTyMyO9vfXsryL8NuNTVNViZ7lFWWqmaEL6Z6danT6ZeOdO8LhobT+kVNNVaNFDtm5Be1+k666Z38w0a1FcLCro322Li1KnTdvTYcT+/f79eul+WdevWRbjVa9PSMquprvNoxr56Tm7uO3t0Vev7srJKq66h3Nd5OXr2TLGcnD56D2AXKbINdlz3rNCHdB3qbGaa+h+xe+z/1awamv3BsYzuXWxgZg/L6NHFTqstHT9x0kpqTlr9qTPNzk3XeX3Tu9mAnj3slNzjgtfPKa1ttPK6U94OuUf/nt31s6s/t6r+lI6ftEr9JPXTsX7p3S2layehatag68v0vOLqRv+7sy7KTutm/TO6Wze1j9g9TuucRqvQM0g5yusA3ad7l0524uQZO1hR789JdqqqrbfCogorOFLmbaJftnbeV/sd0Dez2aPBhfCBbXsL1Q5r7KTqPVX9csKowWrPKdalS3K3HSlTfzygPBarTYJnTv8sy1X/oC/FJ/oH/Wzb3qNWrbLxdx/1pXHDB6o/dpPKf51R5kPnbNJplamfjg8d0lc2Kc0VhT3q97sKirwvS2Pw+gKXKWNz/VF19Sdlz2KYndH12AT6fP7gbF3T2bAJYHrw6HH13diimyEDs3VOL8tIT7lglYLr8Ypa232g2E7UN1pqSjcbhO2RPemmfhGfzqptHlNfbrI9ajt56j/YDWwPdmzvwRI7pHw0nDxlA1WnI/L6W2/1oyiB6eGicquQ/aEst8wc03Qc7BpkC/bJtmHjsGHU8+ihA9x2de0aq/N9h0o8HzVqz2DF/YcO7uv2KaT2gUBCZAgXGG6xRFJb9xnC5caGjXV1dT6oRC96JRCbZ9LxWKXGho644PhJYok/17KSrVu3bh7UjbuO+0SJcznOfbgH52CsosTv3J/z2CvpSsmGW3cX2svLttrGHYc8D+NHDrIPzptisyYPc2MTJYzA4WPl9h//tcINzUl15FwZkM89cKONzB9g6akxbJouSOIvNbUNtmL9Xs93qYxvpkjZhJGD7aN3z7IBGtQxqFHCMG7YfsieemWdVWqA59iN00baolsn27Ah76iIGLbtMtA//OULNnZ4jt23YKplT08X8avz5+zQMRID0q79x2zq+Hz76KLY8/YcKLKXl261bXsKHUPI4f0Lp9usKcPeNRhcCBZIy+bN+2zXrlhdDBS+UyaPsAkThongvFMXdfUNtndfoW3bVqA2FzNwKSIgs28Yb8OG5qitvjMAVVTU2MqV22z7joN2w+zxNnv2OLVZlas89v0BDSyQq2lTRzUjQ8fLq2zjpr124GCRZxncBg7ItptunKT2miWiVGVbtu2P5dUHpOt0fT+7fspIGzp0oP5ufRuxLrrXyL5pNi03ywZm9LCTMuIHy+vtrX3H7Uhlgw9WUYIIzcrrZTcO6+1kCUJUXNNomwqrrLpBRFAn5vZKsdn5va1vTw2m+uJoZaNtPlpt64+IVOpWw7JTbYbukZXSRX3wbScz24tqbGl9uROr1G6dbUz/dJuZ38vIG58iEaUtx6pt9YEKJ0yj+6XbXOUhO7WbE6knNx+7LGRonwbLV5Zts7fW7vbXfDNYLpw73j/xBOe07FGlJilPvrLeduw7avUNp6xneg/1z5tsyphc6y0ikawEptiPl5du82d31YA8fiR9aJpNHjOkWdtl0N93uMT+/YmlVi4CdVp1P0r241MfusHL1k3XQgAef2mtbde9Gk+e9sF94Y0TbN6sMX7vJat22S8ff1MkRPWlfgFRnzFpaBMZOqx+9Pqqnf6hLUEKb54xWkRHngORplqRsRUb99kry7e5TYBUzJo83ObPHqt+nXdBmCpr6uxN1cVLb20xCGC2iAVlfOiDN1hfkbZ423NC/XTNlgJ7evF6kZk6x2HerLG26JZJIiN9VEcnbem63fbs6xudRM6aNMz+RPUVT4Y2qN8uXr7dNu06bEeLK+zxn36p6TgTgUNHy+25JZts887DXtYuIlz33z7N5lw/wvqqrKfUvl9VOddtO+gTOvoLRPoB2ac5U0e8i8BdsPDhYNIQSIgMETD9uc99LqFMtGU1GWQEUvPII4/Y4sWL/dUekJeummHPmDHD5s6d60TmG9/4hk2bNs0+/elP+75GpEcffdRKSkrsrrvu0kA1wXbu3GnPPfecvf766054IEpcc/fdd9ucOXPshz/8oQaubVZfX99UDhSvLl262PXXX28/+MEPEiZ8CQGR4EnMJJ5RR2T29n+++mHL1Azyez97xrbsPiyi0NdnKlE6opnUMhEQZhtf+exC70Trth6wXz+xzL70qfluyC5HwnAVSbH410eW2H/7yC02efQQ2y/j+c8Pv27TJwx1UhY/u9uy+4gxM4KwffKeG2zrniMq3xEZs632Zx+/rSnLzBIfeWG1DdYMMlLFGGxyNPB/8RPzRZbP+KCI4f/L//Wwz6zGaDYLKfzDc6tskBS1r3z2Didjy9bvlkEv9dnfLTNHJwQL7WbLlv2uuHz8oQVSYVLthRdWWYFmwIMH97NsGbYo9UxPtcmThjtRIlXJyO3ff9TWrNmhd/VB3N8hQxs27nEFB0UnPmXKiF8/ZZRI0GhbuXr7u/KYIyLWS8Y9UrYOihTtLzhmy0WsFtw2zVL0nAnjhtqsmWN9Rn9MA9AOGe6lyzbbEJHMbt3OT4Ywxj1ksOeN6mvbjtXYc9tKXG15aNogO1Be52oOJCc+1Taeto0iPy/vLPXjDAKnzvA5a4OzUmyoyA4k6N+WH/QBYUZuL5s8KEP3r3aidbSqwRbvKhXRivU/SA1q0YScnrbhSLWNEtHpK+VoV3GtvSlCRv7mj+6r+2TZ2kOVXuf7yjTZ0cDcU+rTxIGXJzaR5y5ZvcuKNFB+/y8ecELziz++Yeu3H5QiO9jbXDT4MtBBmpi0fPJDc2yolIpVUjlffHOLk4HZU4a/q44vxReQTYjYYy+uddLyJ/fP9Unl38mObNXkYLDUFghIlFCh12w5YGki71/4wi1OdijP755ebl/+9O1uV5iUoLz8zf99j3WVkvPqih3qY6ttjsoQTdCYyPztlz4kwifVSyQjXpV5ReShUMThzz4+z8YMG2jrRQTo36+t3GEfWTRT6m+BE7LxIwbJJsyWEtVgj76wxo9PGTukaVLcEh9sz5FjFfavqoMvfXqBTxx3irD9++NLRWSGW6r6O/mJEgSxQKoNz/n0vXNtrewltucVTa7+9GPznMzeoDJhb8hf6TmVNf65YIrCtkd4fONHjzXLEqrQoy+u9snX5x68ycsKgdyg8kIabxO5A0e+4zl3awLINf/7X55zjIfIAzBcE5jLmVzJ07+wz1Bz1BMiQ7yDjJ2ne/fu7UHTuMLiEyRm8+bNvgv1jTfeKEM8JKG6hQj97Gc/c8VmwYIF/tJXiBAkBbUIsjNgwAA/TszS0KGaeZwjQ6hA1dUytDoG8Xn22WedWH3hC19wBQmVCcWIV4Nwz4985CNWWVnp59KhuO63v/2t/5w9e/YV2TkbI3RE8it56t8nwzsFRmWcVBFmlbig4slQiTrqTg240ybk+awmPbWHy9y/e3qFy9qXK1XV1IsMVTnRQJkaIkPBoDhm+ACRohK5yzKbkSHKgVtrmohS3+yeNqVLnkvsuzSwUxcoGsy4DsrNlaqBLlOz6Z7nVC4GbmZzEbliJlcgkpOm4/1FenrLfQV+KGaoSaNkuLrLBTVh1BDNbNe4OyoRMgQRwuWFSwsigyIEUc7RgFat2f6RwhK1/55N6iF5SktLcaON7H1SdUk5UHgguKSTmoEflYHlWIaIVTcRlviUqvrLE4GlTN1bHOO8bnIt4A6L1FL+Jp8n9QwIBy48v6/KiCLLoIiKVKAPv7eWustVhcuKe+AaQ+VJkzIDEcpM6eqkpCUZ4tyTp89abeOZdx3L0jVdVHbug9sKlxs/B8jllS+ShOKEy4xnoQiR+B33G9dColCCunYWfuJgNWr7YmfukiDRRigO94CADeklQnyhArZW8DZ+DxGif9ar7fYRCcLt2l31weDIxARSzwy/U6eYK6Ra/WKl1A6UDZQWSAh5f+a1jRpkk7cZLX0LdQKQsBdMEnD/QBSwD7j34slQYXGlKz9zpUrQf5lclSl/T7683t1bx0qrXMGYoOtRftJS9JqlvsfUvkUsRKSYpJGwVb1E6JnA4fqKT8Vlch+rHzBRQjVm0gLZ2LDjsH34rhlWKGWba4bn9nUXHf2bSVSJ8nFY2A6Si6/lPbk/KjEKDm75fLnRCSeoV57p97ulDvdX+ePJEO71U7IPMyYOc5fU9An5IiGFsj3FNCyvz3z1cVKVFKfjle+uJzCi/Z2QAtwy0dfB9wapQNQ5E7HuarvPL9nsE5R5s8zrAnvOpAas6NOn1ZdirvWEhuCWj724vzGq+mC3kpeSevOkZDuhmsDF9Pzzz9uDDz7oxKJlwhBDPl566SUbMWJEQmQId9aBAwc0k15jCxcutNtvv92GDRvmt4YMQbB4Dxr3hdDwe0FBge9rFP/uM4xNY6NiSnbt8iX/kCpWtTFA8gx+kr+pU6c2ZRt1aOXKlX4+wd4QOAa+y53oJIWKE6LT9JLBgFxg5ImV2X+o1IpklOJTtWZPRaXVNlwzsp4aiDEezGggQgyoKCfJjksgP/j4kbYxLhgeZoTkZZiMMEYfAxyfcKMxsEHgOsl1Q54xQsQtNIowMNgj7UNokMrx37fWUYkNIqYIA8qsHOJTV4+fvpMbHWZd5AeXGwNWy/il1uqYga9SkjsGK50ynYt7ggARR1SuMsQniA9eqOLicv8cKzpux0UQifnJyEjzQbBWOGzavFfqTobUoh76+x0XLveirtKlMDGrP98sLSJXRwpL/d6Fii9q1MCHC4xydY+Lt+J+uO4wzulpPVrFj/OIyclK7Wp1IjaQE4jsqTMipFWN1kvkhPiflgnliJidmXlZHicEmUHlQfVBJeKB3URmKIduL1eL4pt0HwgRqlA8ucJMpmgAhgChOMFrShR/hFKUk9ndFat0kbPuwqfgOC6UWG5wp5H3c1yzZRYv+d/UIQMvZA3iibpDIjauTDErh6VQcE6UIE3Eptx96ySPrUlR/QyQqkmbpD1CtBkIL3ViUgW5IFYNhTmKw6O/QeZaEjHcTMT7jZaKQbwN5YKwRHaEiQ5lYXJGP6CdZWakyOb08LgX4nNI5ZUn5B7aHIsXVDkhFRBAEpMFd4eq3BkiAJAB7ksfh1mgmkDsG/Q9P3El0bfL5FLG7g3Q5PB8ZAibAWmB3GED6eu4Inn2Md2f4/GJZ4I5Kh0MALvBNdgwcGMiQX+hbCh8/GuZOE5qGY/kX+p0yCR1Sz1jvyFNlIF78jeTNkjSbk0Kf/PkcrVf7HQnJ66QoyuRWrOvlyovyb7/pcpn/H3Or6O3eBKkYs+ePTZy5EhJ/TnvygeEAsVo3759rtYkklCRIDDE63BtRIS4lp2tR48ebZMmTfJbEc+DagSpWbZsWbO4IIwRhAf3HKQIwrR//36PEYLgQIziE0rQsWPH7LHHHvO9kVCF8vPzW5VlEynL+z0HglCjAZMBPTJgdEUUH+bCBEvHJwwG39HJGEgZLJmdce1JHYMMXI6EG4COn6GBPJLMMVzki+/JS3yCqL0tw0i56CQYHQxIFxEPZqJFJVW2V2407nuT4gow0OdLDDvgtVyuQgIgkZhJ3A9ViGPrthb4DHGrpHAMN/lJNDHD7iQ84wkUv5NnjrVMlIm4nR2KL9qq5xZJ3cI9hXutXoNAiZ5fKCKDu2uAXH/vJ6EuHTpULFK1TzFKRxyjvNwBbsSjFJsQnFLbP+bPHT580AXbMyQEMtKg2SnBsST4TL0GB45BOOITZKlR57pqOaCnE6IpcoENkXuM88vrYkHXfRQAPaSXAt+zUj2YOlOz91TlM57o8TuB0sQpEeRLEPQZ9WGCsVGEODZbsUW4xyBgx0SkrpRhjdQA7E58m4Q8MNgz0MdxIVdCmLDgMqFP0z87iyDShiCMjS36xftpD+e7JvbcepGvbk0knmfTHyHHEJv4FOu/pzUQy46obDE7IvKpfDaqfRHPg3IByYjqjskL5eIYSkvvzFTdv7vibfa4u/v5Nza7SxBMIACQE9Sb5Rv2Ss2O9UfUKMdMmeE494Yg7Nh3zFU2iBuqM4QGInW+xOQJEgPBimL4IFYoyShEkJL4VKc2Rf9gstZkezQuMOnBltKHLybRJ3DBQSRxye1UWdYqRul4Va3bY8rRX8QNAs3k7L8WbxBWW7z/MgGmnYTUPhBIqCZoTKdOxRrV+bLts+Q2WizcXJASSA7k573S9OnTnbz84Q9/8BigKKEq8D3E6cknn7RPfvKTrgJBcm655RYnWvF5w/W2dOlS2759u335y192VSikK4cAhpPgaIwTqhDErrW2xAyyUkZnjYjHg3fO8NUpJGZsD31gtj396nqPHZigEGkAACAASURBVOC8KAgzPpjyUpcSYzxuXL6N1QqaUpGinTsPKuZoX5MyxN9TJo/01WioR+8n9eyZZrfcPMVuvmmy7VYcGYRow8bdHkQdqQwogkfknty+/YBl9VIQ8owxTQPF+3lmy2twTxHH89qeMldlCLyenJNhd43rb79ZfciKRWT2lp7wFWefmTlExEkK3amzHmz99jvrFWJ15bFKfTxgek9pratGEArIUYq+26Kg65cVW5SlgXS+zrthaG/bXqyVWRqcL3Lcalms8PdFILBgzngP/kXlRSX+9ZPL7DXFFTFJwb228MZx1mVVJ/vjC2vthPrkBK14hbR1dvXFbIbcVRAfXIhf+f4fpDKneztggoMS11ESBBRb9NiLa+wxueUbpHSOGTbAywIBQ/U9WiI3uxQxAu7vuGmiT9C+909P25ZdR1zdvlyxni0xbc3OtjzvWvk7ITIE4cA9htpCLA/kIz6hHEEymEFF8Q3vBSAEi088kSI2CcUGFYp74g7jBbCkQYMGecwS6s/u3bs9PilK3IPdsNkQcu/evU6yVqxY4coT1+PeI5H3devW2RNPPOG7ZRM4TVzRhdKOHTts+fLlfh2JIOyZs98hYxe69r2ORT53Zm4nNKshMU9BBqZMzOziE7MIZmP4zXM0O+qhv5l91Gm2xbF4teC9nn0xxyEszJSR2iM1ip/ki/iCHvKZxyfie5jNIc9jPN/WCEkcDYoDahEzQoIT31y7y68ndgjDiS++s2Z9rKqD8JRquTLH8OHjouuhAZME4RkomZ7VY7fdMM5ntafkXiX+4L2W6Ub5hMsT+IzKiJIVJX5ndseS9vOlGNnqbL3lChuqVWRLRewmKcaI+iOgerdmvOsVQI2rjaXyyOOoYhO1Oo0l8O+VyFc0Ax6ggaJSMQ2rFKQ9Y/oYJ124zY7J0C5+bb0N1mwbcpaSggLX+ohCTM8JucggJF3PqUAMQOlya7FSrKGFwkg9nZYbDeJK+zyo2CLcXxOlDqEMYfgLRWpe3VVmK7TyC7xG9k13txqqEc8joRxN0jV91YY3H62yrQre5lrSsGy5lYTLrhLa1FmrUH+oUNwRS/VZPVYiQnYWJnYZEwiiQEA2490vMeXkjGLbWO36ToZQKHpLFcNNgluItkxbpA1FCm4ysu/PlRvPn3tOBaKuICkoyOQjPrHthPffihN+HdejqJBPXHts19FV7nuWkjOxIDGAU26OsdqMgZ57xJ6d5vEynIPCO0qxVbijFqgvTtQKU9Qp1OIlq3YoprDU70e+Zmr1Ga481CL699OLN/rv/TR5iNp8s4zrD8gHihNL66kXErakUsQKd1ZLtziKEQqU2x7lCduDugRJ8WMXybyI+8Gm3auVr8QmYrfApLS8Vj8V96a/V23a5+EEqENssdCo/I8dkeOqLNupXDEy1BLca/zvhMgQrqZ58+bZa6+95oSI1Vu8h4xEUDIrudiHaObMme7SSiTh1uK+W7ZsaVrhBTEhSBpDjjts48aNTWSIVWWoSKg+EJ1Dhw4128+I14BAlohZIt6Iv1GA+ERkCEKzYcMGd/WhCBGcfaFBg3KgWuXn5/sgSSopKXXSdylSN3UWAgDxm+Mrx9jQmXcruBhDE7mBomchq6KGsEKEGQUEhM7EPjsYvGjV0aXI24Xuga8eA8CePhhMjCgEjtURN1w/XPJv8yXE5JXgSVZ9uG9feW6QAYPQYATnThvle5gg3+MKxMjxOwSnj5SOyGBRVlaGTB2X54GbUXnPjaeOA6s+Toh4vLJsu/vpo+DIC5WHYyxDh9CcVYAuAdO4m4iXKJHri/ywP1B8oj00MHgIdyYA0d8M2Azw/VXmadNGe0A1f5eUVriBR83Jyur5rnif8+WPAYpn8wwS2DDgRNI+g8BhDS4bRbZYmTZccj2B360NJNEzUG3Yvyete2ffa4iVW7ik8nun2mG5raJ9faLzGUz4nBE2JAgUJOi0/uYb+ACxQ9zzWPXbHow9vE+aCMB1dqiizl1svUVoUJRGiSTtliKEkhTtQRS7p9xJyoO76HRD7skzuAdkKj42J8pXsn/S7mhTPBsiTiwcLrICEXJcLLTD+MkffZDFD+x3Fdtvq4uvmOollxKkPHIpX+p8M/nIzentcTCQBGJvaI+sYGIlJvuWxSf6FK4bVpARAM5kqlT2h7LiCqO/Hjhy3LepuFNKBjaSiQ+EEJtEG8bFH2876a98IvcgDaO37AB9EPze0Io8+jp7LnGd700lTIiZAUOCtsEHMkY+zhcvRBk4n/uypw9B3jkif+y5xsKSuVNHOlmLT+QXu7FTW3EMUwwUgeasPmUJ/iWJ31I5IYzE/xAvBQleK+WaBTEEgdOGwKVGe4rh8lbRPWEzweO9+mqzwlzCP8hGHI+/hHfuuLdKiAwRE/TAAw/4O8gIPC4tLW1GhgiEhiR94hOfcAUnkcSKL1alPfXUU5L4jzipghzdcccd/jvKz5IlS5rdChJDgPTPf/5zD6jOzIwtO48NRNrMD3IhwsSHe6MgHTyopb5qrEVFRa7woD7dd999HuQd7Vl0ofxCqvjMnz/fTzt2rEgxDhe6IvFjzI4Y8CEFBGS+pf0uXCnRAMx+FwQJooQwGGbIf08gHsYE3zz7YGA8CNhkRgJRulyJWWH/7Ezt75HuRoYBmkBFCNEwLUHH2LGslsEBg8eskVkqPnVmjOSZGRMrTTAWt0s+jhJGAuUJA82+RcQCkVAbuCcDDXswMSuPEuQAg8dgBUFkhrxeLiNW/bDUNZFEPthYMUO4Hj+uOCAtUWfpOnE/fVQPuLpwhUFWU0RUnYhooOsiNQOiwHJ89igaIlLXU3UBKeETJfYt2qkPq8aGq0w8C8JVqvuX6XkVUnwgX/tk1HuJaBJ3VKm4g2KVuYcGKAwXMUl8N2zYICdTFRVaXShXHHsR4TY7pTwVCh/uwzL+1ma9EBeCoAlqZl8g4oAgHazsYvk8GyLi8oLEEGCNOtM7Tau+lAvoD6vN+A5Sw+ouDHxvBWSjFjWe1iCnwTlT+wlVSBUq0gozyCBL76cOUVvXtRuOVPmqte7CjgBqyFeJzkOpGtZHyoqeCUEjkJvj5BNxCWWJZfxDstgosqvlaW+jGh07TsySrrlE3bKpzmjH/dQ36Ycol+wzRHsm9gVCkU+AslQ5CAQqLgM1AzL9kyXcrIpixSRL8ONXhSbSHttyDoMqBAI7QpzcMtkRYt8gGPQxbAOLEphgkX/IzkipN6s27fdrGKwPqRw3TR/l9oeJBoM5K+MY2CErxLtAICJySD8kMNvjjDTIo+Jyngddq15LZc+Y4HEMMsR9yCfLy2kvjSIN2DnOgfhwP85jcUj8Hj8tcQBnCBznQNbo82zeSKwWq/1QxLATqbI91Af2g3geiB9lJT6JvjRR+xJFiWdv0h5BlAH8WHqP7YJI0c+KhSNkkc00UX44DpHifgTKs8q3QsHkTPAgycvX7/FJGM8GH8rENSyxz1S/hoxhL2PtonlMa8vyhr8vHwIJkSHUEVQfSBFvqIekHD582HMZqSyf//znXdVJdFUWyhLxPKhBKDYoSsQCYYBwZxGj1PJekCVe98E5kBtcc3SghoYGD5pGPYqUJUgQ9+jTp49m16e1X8wLHuCNchS53nC5kSI34OWDPfYkjAIzA/aeeEIbErK/EBZ9/hzJy6MH+4DLHkQjZGCmyceOIWIjL4zYvz7yhh+nw33t83c6UbpcCfwxSH/y4Zvst4oV+N1Ty/z587SnBrOvzRr02cuEfYVYyjpOMQRsjka+v/WTJ1zmXnTLZCPu4HwJkoeBjJ914/ZiDxBmg9Mlr2dInYoSs9Qt2hCNQE4GH1bnzZo81K7XzB2jn2iCPEzQ8v9163fZE0++6YZ1zOhcy88f6Grg8qWbXSHibwg2+wexlJ16wPXVG9fAguk2qMV+QjwfOZ17UN/RihWIzosvrbRDIlU1kvlpDyzFv3HuRN+/iN2p33hzk+9cTWJFGsHRt946xVehQa72ykCfkCKzfMU23Zs7q260MeNnPn1HUzDt+coP0VmiGKBbR/axm4ZlezA1JOVIhVwhIipscMjqMgjPILm7ZmszxBFSdiAluNFwZ7HnECu8aA+cf8+EAf6oRg0Y6w9X2fKCcidCJPYRun5wplVpELx30kDvt2ycSIwQ8UjbtAEjMUM3Ki8zRJoYsXYWn7DVByuadsSeocDtm3W8l1QmVqvhhssTyWL/on1lsY37zlfWi/mONshmgagt3//Fs6p38/2CaFuQoN8/s8LJBTsvM+jNl2toswa+x19e5zExKCP0z2S6QsAf18z9t0/VPl1r7G//6RkfrBfcMLZpef1rK3fayLx+3h9RrZg0QO7+8Xeveluepg1Mv/SpBa5iQVrGyY3DROf/+dXLPtmhP31U+wPhYkMlYj8lNpckofIQJ3SHNmWcJOJHQhFjI8JlCrAmEcN3z23X+/PJL+6wZ1/fZE8poJh+x9YFH7lrpt3eik3wmyhx7SCp45978Gb71WNv+c7Q4L9ANhP8V8olxdYBTIRww00SGYSsYHteWfZHJzn3CSc2d4wS+zOxTxkuRpTYtdqDiU0Zv/CxW0WIsrXP1E4PEIcw0Z5/+MsXde9hmpRNtjtvnugrf8EdG8TEZbyw43pseGdtu0B7Qc1/c80ubxfYN9oPeYu2KWjKzGX6BUIIlslKybtzsnIsPGSUEp5QQR7Yy4el76zKIkFmiCFCpUFpaQvA3I/9idjDiFgc4oS4F4MG8ULDhw938vLwww/bokWLXNGB+Dz99NO+PxHP/PrXv+4rz37zm9/4Mn3uSXwTahHuvNtuu81jgz784Q87GYIcoRxFifzzjK997Wu+Iu290ne/+7euDH39m99+r1MTPs5sAncTsxsSKhCuJowEvu7Ix48PGlLAHh50XNQSDDIGl8E4ftVOwg9v5URaBQpBa80DAsJKMBQt5F9ULmadGFO+Z7bp+Za6QsdAYmcpLqtVyCezNmagGPH4RJkgPBjoaMbNcfKBEQYjjDmDVNSXOcbAgzLF7ros3ydOibwQY3ChtLtUcUhy5UQJYkN8zwnJ2nQM8pAq4gW+tXoGP6Nl99V6Hnv+8HzafWfUDAU8c7ylKoNLjQ/fsz8RpAgXWpUkfvCL4mGi5fbgRl5qtBz/jAw0iTIzUyVWiN/r6uo1cWjw61ECIgPEQIiSFd8Xqc+XdpQ5ASFxLsoMKg77DkH86qSusI+QOJX10DEUpEa51CAe6XKpsdSdxLm42mqUf1xlpLRzewbxO3jUqe2g6qAckXpL1eFZrBwjLyRikSBTNToPEod7jbglVpmRaH+oRNHrQVCTeuoeBOHqPydmKELVIliQuSiNl9L1nUVjmv6+2F8gA7Sv6HUwKKO4Y3DpHFebRglBLaS9035x4dRqsEf9pH3TP5kAxJP7i80T17fsmxAM7EjslQ/XxeyI+hiAV6v/RXaEiQaKDXaE/kJCNcJ1Rn5pN5SZGECUF+o7XSSCDSdTtVEj8TY8h+OeVA+Uj/iq6NUfsSXwap/nXrWBexHMohg+SAcTJBRjEu0etac1dyJ1HSVwpayoNbiOyTPXcT2kFRtJWbEBJGwGO2277VHDwbZ6XNS59oxKg23ymDh9YvYp1VVB4jA5hh1GtUYZgsxwb8qKHeOZtA2Ogx1Y9JErnJ/8TXtHAQMT7CLfgTf5jY/n+tu/+aZU4Qz7n3/91+8UNgm//c/v/L29tu2wzfnkV5Jw99gtt/z27+3ji241RJKOkhJShqLCQHZQhy7Vi1ghIqhDGAkIDYoQz0ARggyhOnHOxz72McvPz/dsQHRQkPie6/g+NTXVV49xPmQoNgOX5D5smG8HwLnsXg2Ji+4flYlzs7NjG+xdqUrDUPAZdB4RY0D35ooPs7aWsURXIt/E6yBZtwzyJi+RwYvPF9+d7/uWefdZolwQLRMGBBcbn5aJYxi3lvECLc9L5G+MH6/KyJKrqmVq+V223j2UaGLGyCc+QWz6yU3aWmKAgBS1liBVfN5PYmyBbPBpmRge48kFZKTl+8paXgPx4dNaKhcJ49Nawv0GKeLTWmIjx8vxLrKWz8dtywfXUcvU8jvaL4GyVyIxsLYMlo7yAamPT5QnT/uZtZY4jmvvfO49SASuw/iNHFvepzXbEJ1H24Yk8mlrYiLRmj053749fHe+76Pnvlc+IIEXepXKe5VV5sldanzaSyJPfEJ6B4E2kaFLDZwzZBEZXpvBp7UUv6M15IW/W+5yDRni01qCUIUUEAgIBAQCAgGBgEBMHU4WDh2RaCW06WKyAAv3DQgEBAICAYGAQEDgciMQZKGWiF9RZahlZsLfAYGAQEAgIBAQCAgkDwFoUMxNFghRPMoJkSGWsb/88st+XXxQ5vmqi12fW7qwznde+C4gEBAICAQEAgIBgcuMwDkO1BFdWclEKiEyxItNCwoKEsoHr80IKSAQEAgIBAQCAgGB9omAq0PtM2tXLFcJkSGWu7O/TyIp2ggxkXPDOQGBgEBAICAQEAgIBASuNAIJkSFec3HXXXcllNeWGyUmdFE4KSAQEAgIBAQCAgGBy4NAWFr/LpwTIkPs58NePSQ2PcRlxrvDiCXi7+hlfhznlRy8MDWkgEBAICAQEAgIBATaHwKxIOrkOcqSd+fkYZkQGYp/PDtG8/oMXoUBIWI3Z3Zu5uWo/GQX6ZACAgGBgEBAICAQEGh/CEREJamEpQNGZ7d5n6Hoze9jxozx3Z555cWdd95pU6ZM8RetBjdZ+2v8IUcBgYBAQCAgEBCIEEgqEeqgMLeZDOEW443zCxcu9J/5+fn2gQ98wD772c/qpZF7/Y3zIQUEAgIBgYBAQCAg0H4RYPBP1qcjkq02u8mIH4q9JFPvg5ISxNvr169fb9XV1U6EeFN8SAGBgEBAICAQEAgItF8EOqAnK6lgtpkM8eLTXr16eaYWLFhgBw8etEcffdQ3Y+QFqrxgNaSAQEAgIBAQCAgEBAICHQWBNrvJJk6caDNnzvTYoPnz57ubjNVk/H3//feH3ac7Ss2HfAYEAgIBgYDANYkAqhCurGR9OiKobVaGUH5whaEEsf/Qgw8+6J8ode/evSPiEPIcEAgIBAQCAgGBawKB60SD3uvVWtcEEHGFbDMZWrx4sS+pbw3Ihx56KOwzdK21olDegEBAICAQEOg4CKAMdcQo5yQi3GYylJqaatnZ2U1ZOnPmjJWVldmRI0eM13acPHkyidkNtw4IBAQCAgGBgEBAoD0j0BF5VpvJ0LBhwwxCFCXIUGlpqe3YscO2bdtmp0+fbs91FPIWEAgIBAQCAgGBax6BjkhYkllpbSZDQ4YMeVeQNIRo7NixhguttrY2mfkN9w4IBAQCAgGBgEBA4CIQ8MDpZLKhZN77Isp9oUvbTIbOdzNewcHrOMrLy8M+Q+cDKHwXEAgIBAQCAgGBdoBAtIKsU1LZUDsoaBuz0GYy9PDDD9uLL77Y7DEEU/MiV17LMXjw4DZmIZweEAgIBAQCAgGBgMDlQyC50k1y754clNpMhnr27GkDBgxolpuuXbtanz59bO7cuZaTk5OcnIa7BgQCAgGBgEBAICBw8Qh0RLZy8aW+4B3aTIZmzZplU6dOfRfpYRUZr+bo3LnzBR8YDnYMBM6+/bYdrztpp86c7RgZfp+5bDx91rp1bvPeo+/zaVfuMlWn9U7tap2uASOYldL1ygEdnpwUBK6BZpsU3Fq7qbvKAqjN4GkzGXr66aft2LFj9q1vfavZjVhR9s1vftO+9KUv+Ws5QurYCDSKBD23o8TKRYiu5jQmO83ys95ZHXnVllVk6I7RXez0Wf1yladeIn3XQmptr7ersezXwsBNfV4WfuJMSC9pvSwP6zitMSEy9Lamlew6jfpDkDQfVo3xPYnl9EVFRVZYWGi81T6kqwABVe0ZDZxX++AJN7gmbIIK2ZkR5eoXwWTkr4kavQqMTChCQKD9IJAQGeKN9Fu2bLFNmzbZm2++6W+o/+lPf9qsFI2NjTZ8+HDLzMxsP6ULOQkIBAQCAgGBgEBAICDwHggkRIZQhYqLi23Xrl3GMnpezMoGi5EyxEtaeU/ZokWL3hVL9B7PD4cDAgGBgEBAICAQELiMCKCddkqiJt4RtdmEyBArxR544AH/LF261Kqqquzuu+9uVnUQI0hSp07XgA5/GRtteFRAICAQEAgIBAQuJQKQlaR6kzsgG2ozcyHIC9JDzBA/SZFy9Oyzz/rmiyEFBAICAYGAQEAgIBAQ6CgItJkMHTx40Pbs2eObLEarGVCDiBl66aWXfKVZSAGBgEBAICAQEAgItF8EUIaS9Wm/pW49Zwm5yeIvh+zwhnrIUJTYWwg32fbt2z24OqSAQEAgIBAQCAgEBNonAk6Ckpi1ZN47WdluMxmC+OAeq6iosJSUFFeHWFpPHJHvk5BUR2SyYAj3DQgEBAICAYGAwLWDQHLH6o5Hh9pMhnJzc23v3r3293//93b77bcbr+fYv3+/rVy50saMGWO9evW6dlpTKGlAICAQEAgIBAQCAh0egTaToRkzZriLbM2aNb7nEImYoby8PN95mp8hBQQCAgGBgEBAICDQ/hDwlWR8Op54k1Qw20yGeCt9jx49LDU11QimZldqyBGbLeIui1aYJTXX4eYBgYBAQCAgEBAICLwvBJIdM/S+MnWFL2ozGcLPyAaLN9xwg02aNMlOnDjhGzKywuz555/3Y9nZ2Ve4WOHxAYGAQEAgIBAQCAi0hkAylaFk3ru18lzs920mQzwQArR7925bsmSJu8rKysps0KBBhgsNxSikgEBAICAQEAgIBAQCAh0FgYTIEHsI8VZ63k22ceNGX1pPnFBOTo67yUaOHGlf/OIXXREaOHBgRyl7yGdAICAQEAgIBASuSQSSu5qs40GaEBmC/PzzP/+zL59H+UEF6t+/v40YMcLdY/369bOZM2d2vNKHHAcEAgIBgYBAQOAaQwAi1OYdl69yjBIiQ+Xl5R4PxDvK5s2b56vG8vPzLSsry5fSB4Z5lbeSULyAQEAgIBAQuGoQSPZqskQXquF1qqys9DdXnDlzxtLS0tzD1Ldv31ax5ho4CQu4hgwZ4ryke/furZ6f6IGEyOHQoUPte9/7nk2YMMFefPFF+6u/+iv78Y9/3BQvFL29PtGHhvMCAgGBgEBAICAQELi2EWDx1XPPPWef+cxn7KGHHrJvfetb9sorr1wQFIjT448/bnfeeac9/PDDVlJScsHzEz2YkDLEsvlbbrnFJk+e7DtPUwA2Wnzttdds69atdvjwYfvZz37mx8eNGxc2XkwU/XBeQCAgEBAICAQErgACV3rFFyLKhg0b7NVXX7W/+Zu/cYVn+fLltmzZMvc+EX/cUvEhRpnFW4sXL/Y9Ddn0+VKlhMhQ165dXbrig5TF+8eQp8gMwdPEErGiDFcabrOwC/Wlqp5wn4BAQCAgEBAICFxaBGIbLybqzLq0z47uBmcoKiryvQnZqodteXB/IbasW7fOQ3JakqEtW7a4e2z48OHOO+LfkXqxuUyIDMU/hHeTRYSHfYbw3xFgvXnzZl9tFlJAICAQEAgIBAQCAu0VgeRTITZgxnv01ltvNYEA2WHhFQoQiRXq9fX1NmDAAI8/hvigBrFKHY/TrFmznCCRUJFqa2tdSaqpqbH58+fbjh07Lmm8cpvJUMvqpQCwND733Xdfy8Ph74BAQCAgEBAICAQEriEE6urq3FOE2ytKkJtFixbZzTff7F9BblCF4hdhsVqdD6E3EKoo8Tsr11GSIFTEL+OxupTposnQpcxMuFdAICAQEAgIBAQCAslDIKYLJffdZOnpafYBBUQ/+OCDTQWB5LyfGB9UIcjV7373OydBuM+SkQIZSgaqbbzn4WPltm7bQdu+t9CvHD9ikF0/Ltdyc5q/1uSsGkVldZ29smybFRZXiDmfsZz+veyumyZaZs8U69KlcxufnPjpxIpVlVfZkYKjVlNVK19tV+szsI8NHNLfeqT0OO+NuKairNIO7D5o3bp3s2Fjhlpaz1SXNk82nvRjh/Ye9jg0Gnyvvr1s1PgR1qlzJzu495CVHiuz06dO+7G0nmnWf1A/65fTt5k0Wl9Xb0WHi5WvQhsyfLANGTrYNwRt0PeH9V1pUZm9ffZtG5SfYwOU15TUlPPmtbUvS5THXfsKbW+BfNv2tg3L7W+jhw8S7jH5NrquvLLWzys4VOT10qVLF+vdK91mThlpGempzermlMq0euMeO3CkRHXc16ZNGm6pKd3977Ub91q9sDmrPKen9bAhOX1s2sTh1lmYnKhrsEOFZbZx234946xk5S6WP7ifTZkwzLqq7tuyxQUzsuKSStu++5AVlVRYt65dLE/4jFLZsjLTmsFRVFxu+w4cs0NHSv0Z3bp1sUEDsm382HzN4rpbJ33HPXbvPeI/yftA4TNi6EAbpPyTdgsbPtVqv6oey1B9DgXLkbH64pzaE/V25Ohx27KtwM4of7TnQQOz7YYZY/0ehWoP+w4U2dFjx/3v9LQUG5Y/wEaPGOz4JCsVlVXZll1HbM2WA2oBb9uIXGE+NtdGDx3Q7JG001Oqe/rnvkOlVtdw0vvlXTdPtIF95QYQbu05UW8Hhf+qTftt/+ESzby7yBbl2NTxeTagT2azrHPusdJKe3X5dispr5Yfw2y4cLlt9ljrmd7DOlPJ7TSVltfYtr1HbcWGvYZNzR/UxyaPGWITRg56V33SDl9fudN2qf/Xqv+l9Ojm9hbb3KP7pVUmLhtc59hQMgOoCachxnjYsGGtFgtyhK0m9idakd7Q0GB8cJthQ0nYKlQkXGfEC23bts1OnTpl27dvd/WI3z/4wQ+6u+1iUrvqnYCAn/Ho0aPuS8Tw8hk/frwDxvdEkwM0H+SyUaNG+d4EBF4dOnTIzwFYPvgmc3NzHaS1a9f6Srh46Q0QqQwqbfbs2U3gXwygbb2WfK7cpIstDQAAIABJREFUtM+27i60unpeetvZ3ly72we6Pr17Wqo6X5Sqa+tt1/5jtnLjPhmqzj7oVNbUWYYGhbnTRlh2VnpbH5/w+ZCX/TsLrLb6hDdO/q6qqLK09BSXKzu3IGI+MDSeskP7jtje7fusV3aW5eQNdDLEsYrSCicrJ2pO+LV+/slTsU4hw3pGgwp/O1FSOUuOlpwjRamWnhEr59kz6iQiZgUiW/t27LdUkY6c3IF2XafrnJDUaXAt13MgRt2EY+9+vdtEhsjTtt2Hbff+o+qgJ31w3qSBuosG3t6Z6Xph8Tt10yA8jldUi7A0+oB5UnV1vLLGDeaksUOt97m64Z4HRCo2bT9g+w4W6dU2DTZxTJ6ToTMiOPV6zkmRJYxwlbCpUPkGiVj0zc60w0fLdF2BFWtwxihX19Z5G8hSXiAWEKJEE89Yv3mvFWtAYwDvLMzWbtytgSzF8wLhidKJ+karqDzhGFBXVWoD9frOB8uxeaqn03ZAJHDbzoN+rYoo4lQiI3Xa+vfr5USlRniUV9R424E8HRSBPan6zRIu/UUUuAYitHnrfj+3c5dO1vl0Z38mifw6odKEobuIeCflt+B4lZ1W+8julWH9+ma2iQwmihP1BRFasWGf8FY7Ei5rthQ47oM0EUlTeaNBpb7hlBUUltpqHa890aj20smKRKZ7Z6TZnKkjbMjA5gQ60TxcrvNoB0tW7bR9IkInVafk/9UV20XmUyxL/TZ+8C+vOqHJW4xQQJ6pa8hfusjx3KkjLU0/22OiPnfsO2ZvycZWiZhjRzfuOGSNaot5Ijjkm/YZtbkDhcdt7dYDBoGi7g8XlVu2yostGDak9b1w2mPZ4/NEEa9s+LQ17Q/E0njIDuSH3wmgZmU6L4SPEoHSrDBjDKcO4QqMDYzhfLArfN+WCWHLOmo3ZIiCAcRjjz1mRIyzYg2iQuH+9E//1AOneBcahYb8kKZMmWIf/ehHXTojeJv9CTiP6yA9BHizFwFk55lnnvGAK0AkARzkiXNvvPFGmzZt2mUnQxhUOuEbq3dbrgzlFz9xmxuer/3gEc1Eim2UZr3xHe5ocaWI036feX3s7lmWooF26bo99sfnV9uIvH5JI0NgXqeBYM/WvXb9nCmWNzLPSchrzyxxspEmSTRNBj8+oejUVNVYSWGxY5wiwhYliE7RkWIpP6U2a94My8jK8EM8ByJDL80dMcQ/dBDqas2b66y6stqOS6VAJaJdoApVSq2qqz1hXTVARsoYx7oKm7yRuU6+UJjIQ1sSz2RAQIVB2fnkA7d63fzTb563gyIzQ6WiDD6nenDftNQeNnJojs2bM9GJymEN7Gs27bE3VmxzFQUy5PcULutEQiA9A0UU4lOejOsgtQMGe9LytTtt+bqdtlOEMlX33ykiAIF6YJE2PR3ST/kose17DtvK9btcIezaJTHVC5xRmVbrurmzxtus6WOc3PzLr58XISlz4tUnO1Yn5CNDGE4al28DRMoYPHZJAdq8tcBWKn8jhuVYiQjVYSlWTFA+ct8trgosWbZZStkRmz5llKX37GE5A3qL3GdY7uDYAPLqGxt1TantUv6ze/W0hsbTtq/gmH/3mYdut0wNOJBdSCG41YlkFkgVIj304K2uZD370io7rkEK4kV+O3e+9Oa9UW0A8lOl9v/Vz91hvZSvH/36JdupvF5flGsj8/tb5+tibatCJHHxih1O1O5fOFV9sr+rDy++uUWEL6NdkyFwrhUxf3nZVld37rt9qrfVv/rBo7bnQLEThXgyV6A+sFkksX+fDPu/PnKLVJNGe3PNLnv85XU2cfSQdkuGKNOmnYfsiEjNt794jyY1afavj75pO/cXuSo2SvVJ2yLViNC+LnII4V506ySbOi5PE1Hqc6vaQXqHJkNewCuceHMFAdIQIdQeRAuWzbPKjDda0O8JloYIsQnjd7/73aYcE1NEAPa9997rwdQEXV9sajdkCGUHQkPA1Ze+9CWbOnVqExgwxF27dtmYMWPsYx/7mC/nh/SsWrXK/vM//9O+/vWv2xNPPGEpKSm+GSTkBzLEC2UZTAny/trXvuYMEoD5QIq+//3vuwL1wAMPXPJgrEQqBiKEoekhFWhgv0wNCjHFY5o6HTMvpNl4MlQqOXqPBoQPzb/e+kk1ytTgPFIG9x92veASbrJSY0OjiEiNpYgUoMr00GwYspM7bLCTIkhPSzIESdm7o0CEJlcurNi77KL8lZdVuKHNlFqU1TvLiQpqivS+JmbfpfM7TdNZ/7lBMX46c0xqROnRUps4fbytfH1NU/EhQ917SN2Qa65e6lBZUcyt0hZ8mCUfFonqogGeQZxB8DoNerjIcIkVaACOJ0M9RfbS8rq7CsLzM+QeGSDFY4UIB/ciNUgpK5SLB7Wnl8gjLqZqKXtR4lkQCa4/AxHQ5+wZSSbnCg2BYQY+XHUO8UNRKThUbKvW77YPLJiRcPHqpUAe02CAm6m3iAh5h0aMl0JVIzWqWK6ueDIEWTkrMte5E/VjInY9LSMj1Z8NoUcp4ntcWqhm9LlMHU8R/rtFiMbpvv36SP3Rv2jmhguxQu0GFUjd0ZUllKJRcnllZaX5s/S/ZmXCpXFamKD6gRO40nbS5E5MxjSXdndAJA97Qf/sJ8IF0RmnNrBXZd+087ANFymNsolytHrzfu+fkIdslWPa+Hz7+cNLpBKe8PtczMw14Qp+HyeiaFImCP/AflmufNaIHM2erCXMUiAhP/FkCDc9brJ7bpvi1/RVH9l7sNh+8+RytfOYmvc+spH0Sw4pJOGkxoYclRHXH/U5WpNObPH6bQcsX/UWkaE6TRDWqD7nzR7j9Yy9RfX698eXWcnx6nZdn4kAGSlgiZybjHPou4zziCDf/va3fXxmg+fbbrvNt+354x//6P0bzxDCR7JTuyFDBEghgWFIcW/BEjEeEBt+QnRwxxB5zvHRo0c7i2SDJkgPbjSCs9j/KD09PebKkUstMkBsHBkl2OYLL7zgjHPixIkONLPay50w7KVyHaT06KoBKeZnx+DjHsN4Eh8Un+okw1fou36ajTHQgBUqBANwvQZaCEbUkS9lWSA+jfXyl0ud6KJZEwadZ6ZjMDWwn9Sz4xOKTZWIW/2JOhs1YYTUo/Lm5ZBxPSmCVaefKD50gp6ZPT0maMDg/rFzNbii6OzZvtdqRD5O65ycvBzr0z/bn48ihYsN0pOt7yL/cvQgzuHTVkUouh5VolKElNgoVJnoPplSpcorapuRGK7BqHZiAD+XjqteUZDyFI8Qcx297W60F5estzHEuKiT83fLxAD0ks45KrJSIyIH8RiruBrk+6iuC+RiyhNWJXKX8YxyEVUG7kQTg0F1Tb2rWbg+yDv12UvPKhauDALxibLH0xLigsAGMogrJV2DxNt6PN+7i0/YVajOijRg5kgVc/ISR2zIK2SsVuRheP5Af36l2hHEkGOPPvWWX0Pc0UgRjzwNRJR/pFSozXIv/vxXz3k7hwwRL0RcVTIMu3ieT0rIO7E/URl6Zaa6S7JM7YD+GqXGU1I8S6vdpZROX5FNSU3pZl11PSojKlN7jTOh3igPdgjXH3UCsUX52X+4TC7C5pMtlCA+KJLURTcphj1kk7gO1ZO6aYvbNtG2e7HnYVNlGSxLZD2qT+qWvJeW10qJfKc+KUORSA91mUEclPCgLzMR4ViDCBR2uCMmJj9MYJKVEr017zm9++67PdwF7xCxQnzHWD937lzPHt+1TPACBA7O5fdLkdoNGYLsUGgUHXaXZMtt9hwYPHiwS2QtBzv2N2IQRfXhGPFD+BofeeQRl8yia6N9CiKwkORQmXgGRAg/5IXAZCkfcUy41Ei7du+yvPzWg8LaUikYUtQCjGZkOGhEuEk87kQGKj4xyJyUwe1BzIQ6Jo2ZWA86Z6QkWBJi+pj901DBGWNHgmhAjFy9iB+IZUvKpH5Ua6DvO7CvSE66nwehitJpDQoNUjkaNeh26Su1QfckOJtzUJ5SNbgyABOfQnD2GZX5RG3MSDH2QFQKDxT6c/uJFECI3L12CVOEP6SFwSxKuIlIDNatJYgQ7qwizZxnTx0lw5vm5IGYH+JvhmpwJz7sfGQIfFFscE0hz8crCbjGIAyrNuyWKlPigw5xSRhmSH+iifpEYeqiskQkj+cQE8Exnnu+xDNKRcD2K5i6Ue12qgK/u8lo4Vbrq1l2qWJ4Vqze4e2xUC4HckQbjs8buO1R7M9xkWXKmasAcCYizMyrRW45t5dUqFOqc1Q0yohKRf8gr7R9ApEhqWDB/TgHQpaMBInhufGTDH7nu5b9k/ZIf6aNQBJJTiqU90jVSkYeL8U9IQGQNcoGCSLRJrqLLFOuSN2MngXufHDVU8bYxANSDVGIbMLln2C+FxZeZzIV3c+5wjif2DeIDuQmvq2ezz5DuqlbzmMRg7XP0KgLwnBpLeUFH/WeBwmiHjZs2HkDrfm+tcR1EVlq7Zy2ft9uyBCkBbUHRWjp0qW+iSN7F8EYienBrYV6VFBQ4B1v48aNHldEXBCKED5G3pv2+9//3iU25Lbp06fb9ddf70SJxIAOqeE1IgRic5zrL5TwS65fv95Wrlzpp0GMcgYNudAlCR9jhoKRx9jgs49SNNDGz6Y5Fs3gffA7N4PhB+TADdIlJgRRfiKFJRa/EfuWgQ48Wz6XshAPVFleaaMnjXKFCAWIOKEaDdwZUoC4FuLTWUZowrTxTuy2r9/h7qwyrf5i5VenbgpS1uqy3n16+XM2rd7i5Kms+LgrSIUHjynWqKfHCh0vKVew9kmr1WCK2y5LLpn/n733gM/qOtL/hyIkECCEhBCIInrvHWxww8bdceLEsZO4bTabZJN8Ujb5JJt1Eu+m7O4v2U32v2lrpye2EyfuHVfAmN5774gqmgCBxH++I6589SJhCXRf3VfMcd6I9763nHnmnDPPmZlz7oV6hCqVoLrBKDAghmeLkL8KXVQN4XCMARJjuErzYLZoEiq5Xaz0Igl+pSZisyItS4kR3h9Cbfv1Q5gIUkQyNl4DZqHXXznSZJ63ZL0sWLbBEoeZkfZVzwi6eGu2vgJHyUaeEhCugTyHSdN7MlT/L86lbdFuKgd/VQrPhGBXhx26J29nqSZw79XZcif1CAzo180MffsWbaSXrhyDnPA7BAncctTDCWkJ6gYB26ftgVwjDBD5RhApCufgKUXOaVePtutfeWOh5REN1nwlMGRlH+G5m64bZzK/qh40vGPrNMG9vT6LSUV9FxK5wSjQO/fn3xw7p3+qDGl6vk1MzvZPPc36dgWucTJDVZEKjDx1hRBTmBAwFjGunCMr3kJtQxVEvOJeyEr/Z4JWl/ZY3zo73/1MDq0nbS0oFRO6Mzrp0fYTUhEyvDc+n8VEhTR8rJ/EV5/nw8B/qx6B2JAhvA7kAvGOM5KpIENBTtCnPvUpWyW2evVqWxVGDhHk6YorrpC7777bQmi33367kSa8PuQT4fmZO3euXHPNNfL5z3/epMcrNG/ePHvJ23e/+91ahceIV5Kr9MlPftLu8d3vfk97Qf0MurYqSfMKWIVxTD0FFAYUXLkMTrisw4UZcVs9dlC9DCfVK4YhtNwoJQk2Yw7NdqpceJFfMHgt1PuCNwdSQ8GQko+DUeMTlNNlWh9NaN60ZrMtd6dwHUMJS+lbTFVXusqW1b5i9U+6Gj8K+UPHNRRHrlF+1/z3HFw63uAhIjxWpHk6u7fvtqToY5qnsn3jdlmzdK0NbkeOHJWD+4vtWROvGS8ZSiouZkBmQMc7Qx7LcQ3pBcVys7ROlqeSUDAMG5WkzZy3ypKCSXTGiFOPYq3vak08JsQ1a+5KMyJ4Q/A8EWKYduUoIztBsdWSmhPEEv7lmvBJcnZnzckZpsRgsObg0FAOKflgif4+JSfVEZjE+gXfGeBbK1EjTwTPBwUjdkTvh2egulAORAhSNvPdFTJuVH+5bPwgI0JBIWRGSMy8hCrvPM2VWrVma6VXh/MgMzPeWW5eoasmD5dhg96b+bVSDyBhMVYmQaAwNB2V1BI+26UkGbMDmSJxlfAepauSYst/0qR6mxzUT7eslAkCQ8gLQkA+UFAIX3IsV3XMOUEBV/L+aCN4q+irgecKQ4sXJa4FbxZ5bMjJ1g4UjP4BDde3ULkyNdwXLq00tM9nn3pBOygOkED0w7UQ2jiGyKg/eT8QWfpOUNAX/ZzwZ3hLAMZn8r5KVCZCx+00nAZxQrecF17pWwWcFPhi5DzceFOgzlFXMTZkCEEZ0CE2kA9igbz0laXx27ZtMzLUu3dvmTp1qnl+WFFGeIuMdK7D4BBOw32GRwlP0WOPPWYeJAodgNVmfGdPAu5dmw2guHfY0GCkLKe1HgrkhsQ8VtLs1j1f8BaQG8FST5IYWdkQLh109suqMVaUsRIJArVewyWDdH8MlrRejPE/nziEodqqEcLDc0xJBx6aE0pctm3cYd6fYKk794DUDhs3RHoP7FVZnxXq9YFE9dIl5jm6vJ2Bp1iX5VtoTMlcU01MhtwcV49Jbl6FQSVpG9zx/GDoijUEg3cQT1GWLqW+bNpEW3qPd417vPPqbMsp6j+sny2jv1gsMPSsAoO07NMVSyQJY4TxQhCS6V5QdVltidZ3q66EevqVubbMfeTgXpZEHdRjkHpRMO6cR5236LkbNWmYpfVXXz7MfmNFFx4F2gDtlaXo5A5BrCCcttWA/k7uEL+vU68JnhHCVbSl2hauz1c9HFV98gz296FeeK+GqScrT0lYuOC9Wq37EbECjD1/ButyegxeUKgLOEGQ0/XexdqOCadhNHoricPrxSq1pbotAaHCqyYPM09S2NvQRRNX96mOWeoPoYJTFR+u8JzlaHIupALyVqadjxAaoQrCcse0HXZSWS5W39Vhh7HorgSUsmvvIVteTbIwS7OPaF2uGNe/ivFk8jJ6cKGtTOqs/RNP1aJVWyzxmElPFHWsrt4Xcow8IRZrkEu2W2WFvDMuzV26ScYO7WF78YQL8pGAzGor/l2khHyn6m5gL9W3kr64ytolv0Ivu/busyRo9LlOE7/Jl7psVN8q4VDIDgnwW3R5fUHeXhtjGZvJo2IsjquMtdV/pFwo0pvXVsK6nVf7EbRu963z2Rg6EqFpYJAUPgyyJD7z7jNc+G3btrU8H8hSsAcB52AM9+/fb/lDJFiTe8T5ECsSq/k3y/UhQiRm3XTTTZaEnZiHVOdKX+QFGIMsnXmy4Rf7V/zmyVkWoyd2HWzqNWvhepudsPqBjdvonM+/tVSemr7QZst4lW7WFR0kXUdVIICtdPl8gZKNIjVmB9UIYfjI52H/IMjNzq27pJXmgJAIna2EhU9QtulqMsJi7PODJ4hl7+30OkJaS+csNy8Aq9VaqTHJVQJCYXPHw0qYmuqzWUmGx6giyVqXvmrSYsfOeZX3hySka13aqbcp+2yIjGNbN2xTwrZdDmgYDe8SBKu7rm7r1C3fchvOVyBibHrYWxN8d6pn4tnp8yw0Q64PxyAUi9W4s2qKlTTkCb0zb7XtScSskdVQ65WsQASGD1ISqISG3KGgMBM/ofWBABeo1wsys0lDayuUdOCdIUwEUWGGPURXF0LEmIWzgmuP4k+7J0mZfYHYlDFYjn8+mYLfIHp4vfr16WqyvfzaAvPcQbjy1bCRM7RKiRH3Jhdom3rkFmjIbpMaDbxV6Lul6pF74N3hflu17st1nyHqzt5A5GZwf/ChT69Zt13maHgML+ZGSJwaTnKGeF4PXc2Tq+EySBjeo5e0Prj78CDxe0cNl5aVl1ldyEV66bV5pj88QuyxBLGKImRBvWkDA9TAL1y5RX771CxLmN2lRI8NF/NU70xMSMDtpPsckZR7xdj+1j9fnrHcSC2h0AnDe5+zgWpt9JTMcyBuLDMfpWRuq+Zq/fpvs0xvkE6IEF4i9jeD1HXREGn3ghwZcLCzvKRysrUHYxZjAhtMQhriWjJ1nOirumOjyN+pPkmcZmUcieBdlSgtUj2jN4geIevJY/qpjMvktXdXWRuAKA7VrQPYeNNLzQiEHKY1nxSzX2JDhsgHIp8H4gPpgdiQr0OODp4gkqWrKxgF8n8gOyyTDzxF69evN8/CgAED7NrnnnvOdqzkXpwfeIxswNPVZ+QmvZ+BrO75F3uMQXzK2H7ylu7RsUA391JxbHY5WHd+xciwHwYysqEin6FKnJh5blbPAjNkVitNu2ywDWSRFW3Z6eom7zu0j2zU5fLk6KTrINKjb3clNVm2ESOrysCSPYBYIh8ueHLwDBH+oIAzHqBSNZrblLBQ2mj+T36XfAufsTqtRFei8RxbraMDcVu9B7lCeJYSCzkNeZqszeq2wIuHd4GwHHlKECoKGz3iWWIn6toU5BkxuIedunzNFtPDAF29BBlKUw8YXgwj7ITTVBd4Qnoq0aLK23TJP6QIQsFy/MQCuWG5eUv1ulm4SZ+FKx7PSZCTAnkidMYzkQtPCIRozdmdygmhET4jsbqus1TIE/sLLdAwG3v7oJshGoIr0F3FS9TbgpeGwtJ7DB33h3TgnTmhK9jSlLxBYFiOT/0JHUGIKJCq/roCbqgSpaBeECyOd9E2vAcvixIKiAzkqVA9aXiaumpbxgPHxooUluoP6Nu1ckdsVo6dVpw3aXJ6E8WDkBleOJKww95bu7ieCv1z9JAeRhDxguCxGtxHd2U2gppuhhTiRwilvRpUdqZeq9tlrFAZ2Lmafnn56L5GIOJcVL2WQD9Nd1d+TTdaZENFvo8frnmbPTqal2i7ykphiwHIwpC+Xc6ORfssVD1Qxyz2KAp7DeMmM/pkDCVZ/OWZy2wVZN+e+TJGdYwnF53h4eOTqyHPof266Gq6verh2yprde83dM52A4VdqnrK4ibn+9UHspKKhOX95LqY35voYF5PQZ+LqUbFG2zJEfqf//kf200aY0bIi6XyX/7yly2pevPmzXLfffdZojVkicJ5ECn2FyJPqLhY81J0yTyeIzxA5BKRlH3dddcZ0cLThMcoKJzLpo0/+tGPqhyvSZrvfOchC5N945sP1nRKozheUlomv5m3TfaXxHfPkPoAemCuehayW9XHrWJ/j2NqtMvi0d0jxSqrZZoM63ructxIH+o3dwQuEoFvP/hNJfht5Gtf+9pF3un8lz/4r9+Txeqdvf3T/3T+Ey/i1yf/60G55erL5YEHHriIuyT30th4hghvkQBNEnXwygxme5AVyAxL7FlOT3gr/LZazoE0Afodd9xRkYOix5iREi7jvpz/8MMPm0cIr0R4Fsl5kKOAXCUXfn+aI+AIOAKOgCOQZATU7tXVm5zkGib9cbEhQ+TvQF6q22AJVIJXcFSHEOSGvYXOtyU34TIvjoAj4Ag4Ao6AI+AIJCJw7mYpiWf4d0fAEXAEHAFHwBFwBBoxArHxDDVijF00R8ARcAQcAUcgVghEmUAd5b2jAtHJUFTI+n0dAUfAEXAEHIGYIQBRISTkmy5WVYyHyWLWUL06joAj4Ag4Ao6AI5BcBJwMJRdvf5oj4Ag4Ao6AI+AIxAwBD5PFTCFeHUfAEXAEHAFHIGoEUjGvJ0pMnAxFia7f2xFwBBwBR8ARiBsCyoTYddzLewh4mMxbgyPgCDgCjoAj4AjUGwKpSLScDNWb+v1GjoAj4Ag4Ao5A/BFwp9C5OvIw2bmY+BFHwBFwBBwBR6ARI+Cv40hUrpOhRET8uyPgCDgCjoAj0IgRCPYaasQi1lk0J0N1hswvcAQcAUfAEXAEUhsBf1FrVf15zlBqt2evvSPgCDgCjoAjECsENAgXq/rUpjJOhmqDkp/jCDgCjoAj4Ag0EgRSj6pED7yHyaLH2J/gCDgCjoAj4AjECgEnRFXV4WQoVs3TK+MIOAKOgCPgCESIACxINwLynKGqGHuYLMI257d2BBwBR8ARcAQcgfgj4J6h+OvIa+gIOAKOgCPgCNQLAuYYOvuplxs2kps4GWokinQxHAFHwBFwBByB2iAQNRlKxXwkJ0O1aTl+jiPgCDgCjoAj0FgQULbiOUNVlelkqLE07nqWI715U7m2XwcpLSuv5zvH63bN1GF8KXSCsvIz8qtXV8qWPUfipYAIajO4e3sZ9rExEdzZb+kIOAK1QiAFXUOXgh2ole78pKoINGvaRHrnZjZ6WIpLSuXI8dONXk7I0NJN+2T55gONXlZRWb04Ao6AI1AXBJwM1QUtP9cRcAQcAUfAEWgECKSg8yZS1J0MRQqv39wRcAQcAUfAEYgXAme3GopXpRq4Nr7PUAMrwB/vCDgCjoAj4Ag4Ag2LgHuGGhZ/f7oj4Ag4Ao6AI5B0BKIMk0V576iAcjIUFbJ+X0fAEXAEHAFHIGYIBHsMpeKb5aOE0slQlOj6vR0BR8ARcAQcgRgioK8n8xJCwHOGvDk4Ao6AI+AIOAKOwCWNgHuGLmn1u/COgCPgCDgClxYCFYEyD5NV1bp7hi6tXuDSOgKOgCPgCFziCEQfIku9GJx7hi7xTuHiOwKOgCPgCFx6CERJiFKPCom4Z+jS6wMusSPgCDgCjoAj4AiEEHDPkDcHR8ARcAQcAUfgEkKAfCHPGaqqcCdDl1AHcFEdAUfAEXAEHAEQSMVQVpSaczIUJbp+b0fAEXAEHAFHIE4IKAsiXyjKnKFUZFqeMxSnRup1cQQcAUfAEXAEHIGkI+CeoaRD7g90BBwBR8ARcAQaFoFIPUMNK9oFPd09QxcEm1/kCDgCjoAj4Ag4AtUhkIr5SO4Zqk6TfswRcAQcAUfAEWjECPhqsqrKdc9QI27sLpoj4Ag4Ao6AI+AIvD8C7hl6f4z8DEfAEXAEHAFHoFEgUPFmMt1xORVjWRFqwMlQhOD6rR0BR8ARcAQcgbghUEGInA2F9eJhsri1Uq+PI+AIOAKOgCOQwgikIs1yz1AMGlxZebmcOlUmp8vKrTbNmzWVtObNpJn+TSzlZ87IydLTUq7nntEfm6kZWP/mAAAgAElEQVSvM71FmjSNuc+TepedLpfSU6cr691cZUTO6grnndbzuY4loC3SmhsuTSJeD1pefkb1UCanTpdV6qJ5s3N1cUbrxbnUk7/gn3a2jonyoKdTJk+Z6ZTzmqocZapDw0PvRUG24HcGEw6Xa9uoOIczeE5F2+AvUITrEdyHutAm3g8r2k4L2pn+PaP/nS47o3JXYB6Wgec00+e1aF7xTPauRWYwOq1/TT96H37Xr1aoC+25VO+HLGlpqutQew7qzjNLte03AT+w0Y8+Sk6e0j6h1/OcxAJ2LdOb2bNoI5wXZQlkDdqE6UjlpT0mFmpbWnrKZEd/1DW9her7rL4Sz4/bd2uTqlf+orfmqtO05tT/XPPGuFXKWHRWR+DSAllRboxL0MdpdxTav+mzhrGI8ZYxAX0iGn2La96vf8UYAq9aNQg4GaoGlGQfWre5SF6ZuUJmLVxnj540so9cM3GgDOzduUpVMIx79h+WX/9tlqzbUmRGsne3jvLJD0+WDu3bGGGIa6He85Zukr+8NE9OqLHo072jTBnTX669bNA5VT51+rQ8+/pieWveGpM3s2W63H3zBBk9pFDatm55zvn1eWDbrv3y7qJ1MmPuKh3kRYYN6CYTR/WVIf27VXnMsZKTsl518PzrC+1vQX57+cC1o2Vwv25m/MKl9OQpeeGtxXrP1TKoTxe5+ZpR0j4rU1Zv2ClPvjxP9hcfMYPSoX1bGarPu27yMMlIT5MTJ0tlw5bd8sQLc6TkRKmRqU552TL18iHSr2dnaZnRQkqOl8qmbXvkqVfmy4Hio4KB6twxWz7z8amS2SqjRsOEIR/UNVtuGttdBnXPlpKTp2XWyiKZvni7bNt3tEr9M7UuQwvby52TeysJgZQ2kfW7DsuL87fKiq0HpWWLZnLz2EK564reUnTwuJGUfYePy4L1e+XxGRskXYnQhyb1lKuGdam8b5tWaXLgyAmZuVLlm7lROma3lCuHdJZr9JyC3Ez5zfQ18sayHbJlT9W6NNNnd26fKQ9+ZJTs1WdMX7xDXl+6oz6bwDn32rJzv7w1d428NGOp6WnEwO5y9YQBMnZozyrnQgAxnL/520xZtGqrHDl2wvrlJ++YLD275Ukr1VecC21nxfqd8vybS2Sx1j9d9T5pZG+5dtJg6dElt0rVOXfj1r3yu6dmCfhQhmvbpZ/mZLeulijGRfYdRQdtrH1q+iKbbAzu20WuHNdfLh/d9xx9QoAfe36OzFmyUQ4ePiZtMjN0vJ0iA3t11v6VHheR6l4PJXUx56x1l+kir4iF9Tx58qQsWLBAXn/9dROnpKREZyZlytSbS8uWFcavW7duOutoIatXr7bjzLQ6d+4sw4cPl0GDBsnOnTtl0aJFsmLFirOz5XLp0aOHjBgxQvr27StPPPGEbN++XWcypZWQnThxQmfizaSwsFDuvvtuu3+yC4Pr9HdWWke77rLB0qplC3ln0QbJ75AlnfPaSbu2rSqrtOfAEVmwYovs1b9jh/Sw2TQG8Gnt1LdeM1IKOrZLdvVr9TyMxOoNu+SNOatl4ojeNqBs2rFP3lm8Xob17yLt27Wu9BAx+Cxetc1+z8tpK+OH95LN2/fJ0jXbjCBM1ME5qoIuFizbKBCiy5WotVQStlyfu2LddunaOUd1kVn5aLCnPgN6F8ix4ydtYOFv4J0J13HJqi1KaorUUJ5S3R02UoMHATKDkRw5uFBJS1PZUXRAOLenEtyeXTvIjt0HZPHKLdJGCeCwgYU2Uy/ad0ieVuLz93ddY8/fvH2PvPz2EulekGtECg9Oy4w09bA0O++O+BCYW8cXygmdHb+0YJuRpgn9Oyr5OCIHj52Uo8dPVYrQpyBLhvXMkX1KXtasKjZDV5CTKbdP7Cmbi5bYDDkzo7k+r4k8N2+LkvRyI1e7Dh6ze5xWg7Nk0345XPLePW8c283us//wCfP+4eHZtveYLN2yX9q1aaGEEk/TuV5DiNBVQzsrsWgu7crTBVIVZUGfc5ZskHWbd+sEZZAR8yXaJhZqP+yluoPUBh6CQ0ePG4nYuadY+vfsZH0Xw0u7Z5wZ0KtTlFW9qHvj9cDLwySEtnz95CF2v9mLN0h3bfs57TKrTER27D5oOBw8XCJXKJE4rmT9qLabF95aopOCUarD98ati6pYPV+MPhdpn4KsQmghNKt0bJq3fLPprL3KSR+iMNFYvHqrjgcHjAyOz+1pxG/2ovU2XkH+UrX4i1rP1VwsyBAN9NSpU3L8+HGrIYTm0KFDkp2dLQMGDJBt27bJli1qFNq0MWOTkZFhA1BRUZFs2rRJ+vXrJ7NmzZKlS5fafdLT03VwPS3FxcVy5MgRuyeEi/tDhrgHZGv27Nn272uvvdZmCMkuuNKLDx3TgbZIB9YOcrsOIpCh5et2yi4dULdqJwyTod17D1kn7ta5vUydNEjPTdfBar38+q8zbVYTVzLEDBlZ9h48Il+891rJ1dnyC28ttdkZM9HRSgbSznp8CBfOWbrR9DJuWE+5XL0yKzfskD8+M0daZ+6MjAxhkA8fLZEtSsIYDK+bMkxaq2elaG+x7D94VLbqIJilA3xg+PDCQday2/YzDx0kJbEwez6msq9SD9ApNTTdCzpUtjPIBzhMGt3PvEq43d/VQXbD1iKtw17pmJulHqOjRpAK8nPMO0W93lmwRt58d6URqyPHjhtx43PDlSOksEsHG6QhlIQrCGdVVyAZHbJaSv+u7eTJ2ZuMDLVt1ULG9s2Trh1ay5a9R6qQofx2LaVT+1aycfcR8xy1UE/PtFFdZbySpzQNo1ioS8kM5OcF9RZBhMKF35dtOWAfDG0rrdtwJVd4mfAs0Q8OlZTK0s379e9JI1onFK/E0krP757XRoZ0z9G6HDbMoiy0wWI19hu37TXy+oGpI43I79N2vFfbxIate6TdoEIlOhX14Ny35621PjtlbD/poQQVY/rrv84yQxtnMoQ3lknW6o271BM0SG65eoR5cJl80Xd7dDlUhQxBCtZu2i39euTLDVOGWh94U0nfSzOWq7d3cGzJ0KEjx22idUK9tR+YOsr0+YdnZstmPbZWCe8o9JleQYaOalucMX+tTS6YhA3Sic+K9TtMn107tU9pMhRlv6m4d7R9M4r6x4IMQW6mTJliH8of/vAH2bp1q/Tq1UvuuOMO+47nqFOnTvKZz3zGvEWQGggSZAji88orr0heXp58/etfl9zcXCNFkCFIDx6f++67rxI/jkGkIEiQoJtuuklzGqKdYVanPHILNm7fq+StuRq/tjaIYpSH9C2wGeVGDX8M7fdeaAHjyMB83+2X6UyttQ1OhZ1zjUwdLamYYccxXl+077DOsk5KJzXwEICW6tHoqgSgm36YpWEkgvAXsfmV63bIKCVIfTWURnx+mIae/u/42xYyg2AEM7fqML3QY+Rg7dTZLvjh5g+8QL20DhvV6OHZGdyvayW9gHTg0aLgLaiu6zPgrt6402TPyW6jZC5DSdU+u4b8CsgVH4qRfMWF7xBC2mULbZPIX6xeQ2QnaYHwHOSJ50OODxQfk445WXptC/uN+xKma6KeJohHdQUvTre81lJ8rFT2HjohR9QLBLFYsGGvZLduIV2UjGzQMFhQ8B7h7clpky752ZnmlclQMrhdw2nkDFHALUNJUkclTpChE6VlUqKEhhykcOE5hMEgXwePnjRPFIU68IHwnNFLVNRzCiSpm157UuuzbuchI2hRFvoiRIB8qvwOba3PUfoUdjSCu1I/eAeC3D6M52L17N2r/bNAQ5X058FqQHcpocaDguexutybKGWo7b0t3KqEoG3rDMnTsSirTUtpeqyJhgS7ycFDJeYdgfgEhbZXpG1ymnqQIBQttf0xOVivfYV2T3uOY07Njj1KvnWykK8y5mo/p/RSL+xh9eotX7tDx94u1g8pxzVMvWT1NvmAet276ziLnCM1RPr/HnlZJyrHrI8SofDSOBCIBRk6H5R0qhdffFEGDx4st99+u7RqVTE7x/vTs2dP6dKlixEfPoTPMjMrQhn8OycnxzplYsFb9Ktf/cqI0oQJEyzMhhs72YUZMcaMXAK8PBTsF4PoNg2R4FEJlxNqZA4fPSHZ6pqvSMokabeZGWNm0ri5g46cbFnO97wjStTK1BC0y0J3FWfiAWulLmpCYIRIgoLBOKi5ICRtMvhwPsYmQzFCkxCLNpn1nzeE4StWzxBJlOTaBAXvEAMeXhirQA0EI1F+2t1BJa9PaL4BXibk3aREtqZCrgneQEgXXh5k7FNITtBJ+cWjr8nM+WuUvJ9Wr2COfPwDl1sbwMgeOlJi7eQXf5xu53bQQX7MsF4a0hlcY0JoelpTaadk5LCSIUgLBf2Qw5PbNkPbY9WJASGuNlr/z944SKaN7GbJy3h0HnlltXmQWuv5rfTYkMIc+X8PTJBjJ07Lu2s0/2jRdlmrpCVcCN+N7ZOnIbNSWbujuCY4zjlOO5g4IF/JWCt5dMZ66ds5+pAwQwf4kkAfbnP8m/HikLbT8PACid2n/Zk2Q5+GDNCeCIdigDGu9NU4llKdUB5ULzUhWSYrFIgbhH/P/iMWAg4Xctj4dFBCATHnXLylkKJjSqxITk7MnYuD3IfVM4RegkkIdcrUcQZPKqkKjD9BYVyC9KC/TG3/XIfe+U6CeckJbfspmjfEMBaxYzUO6q5THWJNhmDe5A/t37/fSE5BQUHlbIOGiTcH0gMRIi9o+fLl8tWvflV69+5t3yE5Xbt2rQII98LLtHDhQrn++utl0qRJ580VWrduncyfP99CcJT5eu2IkaPrBHJNJ9Pt8HQgS9ijE8w2wh2Te2Bg+Vh44CyroFGTvxL8VtOzGvJ4BSGl3uqtOFsRZOaD/Il0Fb0jXpPQrOusuDpYRScJeNtzg4edxZY6J+ri/WqxW4nKSs016qi5X3hy8DzVVJB39sK1lpcyXN30eBUgtdvVO0NIZlCfAhnUt6sNwDs1bPaSJmMX5GebgcVYk4d027VjbGDepJ7Ghcs2SbdOOdJdw2bVG19tb9pmIID8FxQIEaInDpJ5GlJrl9lC5q/Te2/YZ56hruqhuXF0N02kPqSeoFPyxtKdsuNAiRw8clLaqwepX5d2llP0388sNa8Sz6IQVhutZGhT0WFZs+Pc0GJ1GNHeR/XuYInaW9WTtHP/MenVsW11p9b7sYo2UYFXcHOws7aLCytUwLJcQ4IVv5/9wfBktV713q56r/AF3hD1mOdK6xq0f/JKkIX+m9j+bbwxT1dVzwjXBv39AqsS6WXWDs/qJHhQIDPtP1zQZzA+v4dJ5dBb7UQ70srX883Rb1QlNIRG9Yh6v2+syRCdKvD6QHwIpyUWGilhsKuuusrCZ5s2bbIPYTbCaGPHjpWRI0faZYTF1qxZY54mCBPHE8lS4v15buvWraV9+/b2U5CvlHjehXynE+IRIseDmDuF7kgyIg2VEEm4sMyV2RYzMrxaZ840txk91zIDrW6p74XUq76vSdcZI3qi3mdtoupVQyj6wViHQwd0Ipt5KUEgL4bCQIzhp+uSrxJFoX7MiIPl7sEz8LbRDlvWMbme/Ivla7db3s8czes6qYRhkyY7k/C+bM1Wm0130LACul+u3yFO6PYyzSFi1oo3zEKlmkM0TpPORw7qYYbnXc2zevjx140EgRtthCTQYeq+ZzVaU71uq4Y7yD3i/tWRIbDFI5Sh5CJoM8jfSuUP8n/CGPfMb2u5RKzumrNmj11zveYMsboMjxHhrTXq5VmnxIj75qh3qZN6cAbrCrScNhkaitNcvdNnbOk9oTbCcKw0S1y1VpNeIUND9F69tB6E4CBUA7u111VlraS5YsLKttXbDlpfqM9Ce8tQrxdkFf0FhXbJsUQvLGQfDyBePrxEAcFgqTq6ot5xLeBIv0O2YAsBiMNx9fIES+bDdWd7CLzSeIxyyltbH6FdkbJAH40ilF0f2GUwpmozOZ6gzzLVUeDNC55Df8tUTMinCpbhMxahW/oLfTg1Cy07OiKUmpjoNhJxrzhuST4YfzoanqDqyuWXXy5DhgyRzZs3WwL2zJkzLY9oz549lWRox44d5hVatWqVPPTQQ5Z4nTizSbx3YWGh8Ln55pvtp5KS4zojTDzrwr7TmTrmtDHyw0oUBiEIEvF4Bs9czc8IFwwbcW5WcpBzwyBF+AbjhCFngIpjwbgjK4nIGAoGURIZSTjtol4QyFJQ0Af5GWCyT89naTLnQlJwZScaoPqSF9wJCfAcXOnowlY7qWeGcCZ5RHpKnQptlnvNVTJEPs8hDcNZHpHmmnTTHIS2ikvRvmJ5bdZyCwuOGtK9yhJ+iNROJUS3TB1tpIcwRBvN6WBgJm+GcAyrDjFIDOQYIUI4hNBMBj2nukIO0D5dxZWVmW4hLuSEqHRRbw9k45CGz8KF0BRJ1JuLjlii9HElPBAgdMqyecgKx8vPhju5nnwg8oXatmQJPSGWciVOadK7U5buC1Qme5QgcU5tC9ibR0pJ2QDdEgDC1Vq/U/pvb2cht3onQ/rQ3LNtgpwf8GymOEF0Icn0wTCRh8x2yW9nBJj+DEmljRupOqu/2sqb7PPoW3na18idIezK5IPPdm1/Gfpb9tnctqBebTW0xIfE445KuiFCJdrGg7BgTXv2JFuuxOexWoxCSNAmkWpbSFVgosaquSD/i3NYaIAHlvGHEBp5VPyFTWVoblscw4CJ8tb0vY5DWU23aVTH42k9z0IMCSI8hseHcNmBAwcsSbqmkpWVJUOHDrX8oqlTp8oPf/hDWbZsmZ3OzOWll16SxYsXW1I2RCjIL6rpflEfpzP11gRdDOSuPYeMLGS1bSkLNKmYfSz6FlZdigsxYH+eWbrqiCXZh5UIsd8QSdbk18S1dFKDDZFjyTHho85Nsy2cs1HzhW69emSVuDuD6HDd02etJoWv1JUbhboih6XNkIAC3WMncFfXt6wMgl00tMRseM9+1YUatGzN3Vqjq2vQE/v61GU2NVjDWv1VhxUhA5F1uvJm4fJNtvLrAxrS4lmsGnv+9UVmXG/RlS3jhvWuIlZAcFdpQjlLuGkn+/TcsjL1qCn5YT+h7ZrYOmPeaiOPJGgf0D2Ltmu+GUv+ayKOx46ftjAVoS+IDn8hRRP758ufZ26oTGoOKnNMcyNwupATBInCw5GrobPmSoKOqOeAv83Uy3T8pCZ+K34kYZPcDBHaXawkQskPJVfb9hhdsbZs8wHZfbCk1iqEaP12+lr5fdN1RkhJsr5yaIH011Dc6u3F8vSczUZY67tAdEicRe/kc+3RcCTGdKWugMSDNlQT6sMeEBYBjB3S034n1Em7mb9is7ZhXZpuZDq+Joj+yYrWQ5o3hqyQhZNKht7VpfU3as5bYcI+Q8iX36GdvDZ7pa2Ug0Tt0L49WEO6NbW7+tbPhdwPAguJZyxiYQdbBqzR8DR98DZNlA4THLx8owf3sLGKSQfjAStg+Tde2Djr832x0aYY4+b4vtWP4oRYkyEExlPA0nc8Ps8884ztB0TyNLNuPD188Ajt3bvXSBN7D3ENuUGcw3J8PErsYbR+/XoLi5ErROiroRtz4GqdppvozdXl5N/88d9spkLuxyDdcJGkxj+/OM+WzPctzLcBdoKGTH7/9Dvyv394zWZjDMAfu2WCLcWOa4FosLHZDh2Afvjrlw13BsyRulKlu24TwOaKGBUGXPbXuWxUH1u6/NrsVbZHCyRgyph+tgQ/yoKHZNzw3jJf9xr6r4eft1kioQP278Er89zrC3TFTJYtYQf37Upsnnp1vu4NtNWW0PP31RnL5MM3TZAhaihbNH2ve9kO2joIc0/+smyZHKEX31xsCdt/e3GuvP7OCvPwjNCQGJs99j1rZGbOXy0Llm809z4rD++6VVcTqnEFQ+oyRFfbPfL4G9YeMOAcG6qEkmTY6gqE5agmOf911kYjOBP655kXB+8KH3KE2HNoh+bmQDYWbdQ8IX3uDZojdPmgTuYJOqoE6bevrzEPUUFOaxnfL8/2IoKTpOlSc1aqQVKOKPEKPDY5bdNlZO9c+e1ra3QZflUylK+bLl6hmy7eNKa79CtoZ8v+rxpWIO+s2i2/fGlVxS7TZx1dePGoLwQo+FQnZ30cIzRNe3xbE9i/9ZOnTH+EtieO6GVJtX/VPZ+YpLD5KV5btrz43VPvyKPPzTEiDP25Tvt3b528xLnQblpmpNv2HqyI+8Z//c1IA/tX9dfVngeUHEGMOutYNEDbJf2Uydgfn9kp3//F8zrGlguTno9cP1Y9RtW3uzjIj/7G6B5tR9SL9Z3/D31WJESPGtTdiBEbTtK3e3XN0w1Os2wvokd1EcSTry7UTRoXqme7TKZdPtjG51Qv8aXmDYNs7MkQhpN8oDfeeMPyfX7+858bGWKgIZ+nQ4cOlldEkjObKkKICKURHguW7PP7008/bQnWJGE/99xzlWjTGfA2TZs2rUGW1yMfOyuTm8C+JRi8Xt3zbPdpDCgbL+IVYMaC2723/saOsCy1xhDkaZhtpCbdtonxqgZkxAU9VXfVZnZFCIpluCzVRaaAyDE7hRR10hnnBN1sMUflxmWPC3+c7vbbRV3WURbqiTeHMB6eHNpYge4n0rt7vpJnDUnltrN8HnRBPSExvdQIZmdpzoQSEdoSBIXlyYkF8sLSfDZvxIvH9V10lnqTesb4DkHi+dyb7QfQPfcfqTNTPVyRg6I3Bb+BfbpaiMxCito+2CByjS7hJ3yGB62rep1Yyh92+SfWh3Nn6O7Ph5XMkHuD94Xl9Js1QbklbU3JCoQGD8j2fcdk9uoiIyQQRvLZitTjg4eHHCFWhm3Ze1Rl0NdxmINGl6Trd4hU2GOzSxOsn5+7RZZuOnBOKI7Xb+zcX6Kr0PZYkja5GXgmEneg5u7UgxylAxpm26fhtigLOhnYp7PJtkxzwLRJaHJ6e90OorMZTfonf9mLBt2RuM4mhCxFh8SjW4xvsIw7yrpe7L0hP5NGsSlquq1mZWLGeMPSc/osZCdbNx61UJiuGhug3tLrpwyxMBOFvXeG9u9qIaS4FvTZV8cdFp2019Wt6JNJZv+e+aYrxh50aRuXqh2hj07WPdy6dGyv3teTquM02/CWrVC8NC4EmuiAX08ZMPUHzPTp020fILw8V155pRklwltvv/22rQIL8oh69tRN+TRXiNDYk08+aYSIZfMkVPNh2Tx7F7HE/ktf+pIRJDxCkKmgQKh69Oghn/vc56ocr0ma73znIcsZ+sY3H6zpFD+eQggUqyHHe9HYC96Ze//rNVmuBKaxl0m6BP/pf5nW2MV0+RoZAt9+8Js6sWojX/va1yKV7KHv/kA2aq7X33/xnyN7zk/+9SsydcpEeeCBByJ7Rn3fOJYU/pprrqkiJ2ye12rwqancc889wqem8rOf/aymn/y4I+AIOAKOgCNwSSBAeAxvM3Y1qhLdnaOqcQqsJotOdL+zI+AIOAKOgCNwaSKQioQlSk3Fd+OLKKX2ezsCjoAj4Ag4Ao6AI3AWASdD3hQcAUfAEXAEHAFH4JJGIJY5Q5e0Rlx4R8ARcAQcAUcgagQ8TlYFYSdDUTc4v78j4Ag4Ao6AIxAzBKJ8N1nMRK1VdTxMViuY/CRHwBFwBBwBR8ARaKwIOBlqrJp1uRwBR8ARcAQcAUegVgh4mKxWMPlJjoAj4Ag4Ao5A40Ag2GsoKmki3MIoqirH/631kUnuN3YEHAFHwBFwBC5RBDx/uqriPUx2iXYEF9sRcAQcAUfAEXAEKhBwMuQtwRFwBBwBR8ARcAQuaQQ8Z+iSVr8L7wg4Ao6AI3DJIWAvJ7vkpD6vwE6GzguP/+gIOAKOgCPgCDQuBCyBOlI2lHpMy8NkjauNuzSOgCPgCDgCjoAjUEcE3DNUR8D8dEfAEXAEHAFHINURSMXl71Fi7p6hKNH1ezsCjoAj4Ag4AnFCoCJGFqcaxaIu7hmKhRq8Eo6AI+AIOAKOQHIQiJoPpV7GkIh7hpLT9vwpjoAj4Ag4Ao6AIxBTBNwzFFPFeLUcAUfAEXAEHIHIEEhF901kYLhnKEJo/daOgCPgCDgCjoAjkAoIuGcoFbTkdYwMgaa6pKJ500tjitTk9GmRUycjwzI2Ny47FZuqeEUcgXgiwC5DDT/undYx6cSJE3L48GE5c+aMtGjRQlq1aiWZmZlVYOO3Y8eOSUlJiZw6dUqa6LjdtGlTadu2rWRkZNi/L7Y4GbpYBP36lEagdUZzyUxv/N3gdFm5NNu/Vcq2b01pfdWm8uV5Svq8OAKOQOwRKCoqkhkzZsgjjzxipGjgwIFy/fXXy2233Val7idPnpQXXnhBXnnlFdm0aZOkpaUZEbr//vtlwoQJkpWVddGyNn4rcNEQ+Q0aMwJ4hmIwQYoc4jNnVM5yJQmnSyN/VoM/oMzJUIPrwCsQewQaep8hvD3Lli2T6dOny4c//GFp166drFy50sjRmDFjpEOHDuYpouAJ4vcbb7xRmjdvLniUFi9eLPPmzTNidPXVV1803k6GLhpCv4Ej4Ag4Ao6AI5AaCES9rN5QqEUErri4WLZt2yaHDh2SadOmGfmhvPXWW7JkyRKZOHFiJRmCAPXt29e8QXzwIqWnp8vzzz9vnqL6KE6G6gNFv4cj4Ag4Ao6AI5BCCNSCr1ywNGVlZbJnzx5Zs2ZN5T3IAyKc1aZNGztGiIwcoE6dOklubq7l/nTt2lW6desmCxculGHDhpk3iNKsWTMpLCysvBc5Qq1bt7ZcITxM9VGcDNUHin4PR8ARcAQcAUcgVRCI2D107OhReeyxxyzPJyjk9hDmmjJlih0iaRrS1L59ewuDUYLk6R07dliidE2FZGryhyBX3bt3r+m0Oh13MlQnuPxkR8ARcAQcAUfAETgfAq3UC3TLLbfIDTfcUHladna25OXlnXNZQIT4Ifj3+bw9u3btklmzZsny5cvlrrvukuHDh59zzws54GToQoBc/LMAACAASURBVFDzaxwBR8ARcAQcgRRFIMoQGZCQ40NYC29QTSVYEn9UvUgB+WHVGB9CaYTGEsvevXtl7ty5lld02WWXGREixFYfxclQfaDo93AEHAFHwBFwBFIIgSj3GaoN2SI8xkowCM7x48ft3wcOHJD9+/dLz549LUE6KJAl8ovIJZo/f755kD7ykY9Ifn5+vewxxHMufqeiFFK+V9URcAQcAUfAEXAECElF96kNviRO4wEi7BWsKlu/fr2tDmMlGQnX5eXl5jUit2jjxo3y5z//2cjT5z//eVt9BininPoo7hmqDxT9Ho6AI+AIOAKOgCNQawRYCTZy5EgjQ9/+9reN1OAtggixouzll182rw9L6lll9qc//UmWLl1qidVf//rXbdk9eUjXXXed3HzzzbV+bk0nOhmqCRk/7gg4Ao6AI+AINFIEahPKilJ0vDqQHlaYde7c2TZSJP+nd+/etqqsT58+9ngIEsTniiuukP79+9t5QQitZcuWFlKrj+JkqD5Q9Hs4Ao6AI+AIOAKOQJ0QYAPFwYMH2yexDBkypMohPEBRFidDUaLr93YEHAFHwBFwBOKGQMT7DMVN3NrUxxOoa4OSn+MIOAKOgCPgCDgCjRYB9ww1WtW6YI6AI+AIOAKOwLkIVDiGGjpr6Nx6NeQR9ww1JPr+bEfAEXAEHAFHIOkIOBFKhNw9Q4mI+HdHwBFwBBwBR6CRIhCkC519HVgkUkZ570gqrDd1z1BUyPp9HQFHwBFwBBwBRyAlEHDPUEqoySvpCDgCjoAj4AjUHwIeKKuKpXuG6q9t+Z0cAUfAEXAEHAFHIAURcM9QCirNq+wIOAKOgCPgCFwwAr7P0DnQuWfoHEj8gCPgCDgCjoAj4AhcSgi4Z+hS0rbL6gg4Ao6AI+AIKAJN9D8v7yHgZCgGrWHXnmJZtnaHrNtSpLU5I30K82VQ7wIp6NiuSu3OnDkjh48elxnz18nufYfkdFm5dMxpK1eM7SdtWreU5s3i6+g7dOS4bNy+V+Yu2aj1LtN6Z0n/np1kcN+CczRQpnItWrlFVm/cLYePHZf0Fs1lwvDe0qNLB2mZkXbO+XE7ULTvsKxcv1NWbtgp6KxXtzwZ2LuzdO+cc44+j58oNX3uKDoopadOS/t2marP/pKdlSlpzZvFTbTK+hR0zJaxQ3tI1/z2UqZvm16yepvMXLCuxvr265Evg/sUSH6HLGu36HfNpt1Cu4h72XvgiKzRtrh0zTYp1/5Z2DnX9Nmza4dz9IlsM+avlS0798uJk6ekTWaG9c887act0uI93JaXn7F2uHj1Vtm684C1vz6FHU1vHdq3qSIr5+49cNh0vr/4qKIi0r1Tjkwc2Vtat8rQt43H19AeKD4mazfvloUrtpg+u3RsLwN7dZK+2kbDRbuuvUl99uINsmHrHik5flIy0vWFoarPztr+GZdStViULFIVRXrzSGBvUG1iKHgD7fr162X//v1mOEpLS1VJTaRZs2b2oRw7dkyysrKkS5cu9qHs3btXDh8+bOd07dpVTp06JUVFRbJr1y67J42YN9p26NDB3oy7bds22bdvnxw//t7gyzlcxxtwx4wZY2/G5dnJLMg8b/lmmb9sk+zZf1ia6wC0ecd+aar1yFHDmJH+nvE/WnJSCdMemf7OSjmlhKJcB14G2zat0mXUkB6S3bZVMqte62cxqGAcqPdGHVSa6EC5Xv/uUSPTo0uuEZymTSuIHIZ1p5LDd5U0rVi/Q5rp8eMnS+1vMDjX+sENcCL6XKLGhAEUOajz5h37BIKHQWwZ0meJEqFNShDfmLNajijpK9dr09Vgtm6ZIWOUaCQaoAYQp8ZHtmvTUob26yK9u3WUTkpwaKc1kaF2bVrJyEHdldD20vs1MSPSClKr7WKutvs4F9ouxBaCs233Ae2fTWXTNh1HlOhUyM2YUSHBydLTsr3ogLw9b421bSt6g9Yt02XssJ7SOa/q5CZucp8+XSazFq7T9rtdDh4+Zm13/dYi7Z8tpK1OtsLGn0nZqo275OWZK5TkNZNTeu3OomJppbKOHlyof1vETbxAHUaE6HObt+8zfW7ctlf73wnposSesSiwAafUjtCHaddbdfxCz+g4U2UbrxPPbgmTm1gK7JWqNQINToYgOr///e/lrbfeqiQ0NEbeZtumTRsjSMuXL5dhw4bJPffcIw888IA11gULFsiiRYukdevWcv/99xs5evbZZ+Xpp5+WEydOGKkqKCiQqVOnyt/93d/JSy+9JG+++aZs3bq1EpyjR48aCevUqZM899xzkpubW0nAao3gRZyIbAwir8xcrrOTbPn2526TrLYt5Yvff8wG4L46Kwt3OGZtsxettw77d7dMNsPKIP2HZ961jhxXMgTBWbFuh7yrBOF7X/ygzqrayV9fWWAD75QxfW2GzYBLKT1VJjP1OIPxVeMHyPWTh+pgtFbemrtGB+M0m6nGtWA4T58ut4EW8vatf7zVCO03f/ykLFf5B/XpbN6toOzZf0TlWqttronce/tl0jG3renzyekL7d9xJkO71fv14ltL5YQah/s/eHmNKqGvDtBZdy/VMcbnJ7+fru06Xz5+6wSZrDNsJgL0g7gWvJizFq6Xfer9ePAzt0j77Ez5z4dfUk/udhkxoJu13cB4Hjh0TF6dtVI9ZWfkzhvGWlvFkL76zgr1+LWONRnC0wM5f3L6IrlqXH/54r1TbWxiLFqtpKdbp/ZV6g+BWLRyq8rVSj5z19VyRMnR29p2//zCXBu34kqGylSf85ZtNgL04Gdvsf7588ffkiXq9cPTiT4DjywE6bXZq9TDVyq3XjNCRg0qtLHozTlrzBPvZCiuvfbC6tWgZAhvAITnc5/7nNx3333muXniiSfMSzBq1Cj70Hg/9rGPyebNm2Xx4sXmDeKaxAIRwjP0qU99yogTAxTnpqWl2edDH/qQTJs2zUhSUB599FFZvXq19O/f3+4ZeCcS7x3Vd2YZG7btsRlXJ5015ma3tnqPGthd8AIRRgh3ONz1zGqunTRY8tRtzWytT/eO8uPfTZcjJSeiquZF35cw4FGtX+e8LJUzy2ZWeIR27jloBKlDTptKMsTsdMmqrVJYoKGIXp2N+I3XWfWzry82Fz6GM9neu9oCQN3RZzOdNXbq0M7IDKHLYf26SpGGNVcowQ2ToQOHjlro5dpJg8zQ5Ga3kSF9usgvHntLio+U1PaxDXLeIa3fKg0dtVNvJIShpsJsekjfLnJM2/NSJRAQY8KlJ0pPWfvN0g9eBrxicSsQBLx6Z86UW9vNU4KKbgmR4dFDd90LcnTcqPBgI8fcpRtNn4REc5QAYUB/87eZFaGkGLfdYxoCwguU1TrD+mh7DdMyBk0Y3lNDmSUmb9iztV374q69xTJVZUWHuSor3t7Hnp9juo1r2brrgJK80yZjfm6W6bOfkrdTGqJeuGKzpiZkV5KhkuOlSpw2mkcTMo83dNLIPvLoc3PMix/nsag2+Cc3BlKbGjXsOQ1KhhCdMBeeGQqEJCcnx44RDuvTp4+FvDIzM83LQ9jrjTfekKuvvvoc1LZv326Ns3fv3nYdBrOkpMTIFP/mvnwoEKKVK1caWerZs6fcdtttFipLtpFl5kWnqnBDZ1iIDKNAJ127ucgG0HBhwNqv8W5yiZh5QaJaa5iMcB+5J+ScxDEvAcOOrBgH6gfpzNKBhfAJg2pp6XvGFFnIh+qv3oQcJYd4WNq2bmVtAvnIwwi8SOc0ggY+gKGHsBI2YOAMZpiQIo7zCZfjJzS0qx4WvEDoEWzaqDGiHSNnXPWJDOTG4EkgTHt+z04TDQ+2keLDJSY/nAfZMLQYUciUEfmy+JEh5Np/8KgZTNpqoE8mLRDzIu27EKagMLnZoaEi2jlEL615c2vnhAYhCOgT72YcC3VHP+iTnB/GIj6d87ItxF18uGpuF2FdPCeFSvoYh/gwySEczFjExIDr41bw3lEge2naTyv+3VrDti2U3B22+gelVGVAn4w/7dpmmjy0V/KhwItPOI0hbrK+b30iZEMR3vp9xbrQExqcDNWm4pCUIUOGWO4P4S48RhjNcCE3aMuWLfLOO+/IwYMHLeSVn58v7du3r3Ie5AoPFJ4k7jF8+HAZPHhwjV4hzoVokYtEwUPVSYlZfRSID7MPBtmAxNCIMrRjntH/6GzhQgiGY5AByAG4NNOOmaZGFONkHTmGYy1GAMNCvfEUUDAU1BuDGvYKYCwhCZCgwHAw+BDbx+wQRtOUmlgWZCSXpLnqpkUoudIGTPIN9LdwgTxxPnKmqcEFG4gi7QFdYlDiSG7rAr61Z83FKz9zzEhQUGgThJOsTdTlhkk8l/ZGndFJeijXC31xLCwP1UKf9Gd0j6Gt0Kf2TyY5Kusp7b+afxvLYm1R+521xbMkhrzFlmcJDvoKl1PaD/mQI0T/ZCwCk+bar+mj3K+5xI8MncRrpQ0uI0RK0Vczlfmwkrswscc+MD5VjM8VsoAJpIjzmOClNBmKZUtsuEqlBBkCnn79+kmPHj3ksccekx07dlheULhMnDjRSMsjjzxi53H+uHHjZOTIkeZlCrw+eIOWLVsm06dPt1yjq666qkYixP1JvH711VdlxowZ9rjt+uz2uVVXkVSpSB2+YASYddKxwoSAgYSSuCKjYsBpYkYk6LSQhzP6nd+S7dmqragMIIxAGPhgHk39+UB6Eo0hgypyhQkv36vDpLZ1SNZ5kFN0GfYY2L/1f4lhWJa22vn6e6WDAbkRNsb6rCuW6LFC1vdWO9ImaBZBW6/rPZN1Pn3Q+mfIA8S/OXZO/0Sfmv9l+jx7vrVj/T/auN4qtiUYW8o1JFg5tmijLVePXfBbuPLvjUWc/94vAS6xHYt0bKEvhtsd7TMYi6rIaP2z6viMqIG8cZUxto0s5hVLGTLESq/u3bvLpEmTjJgkGha8RXiObr/9dku4Jr/oF7/4hQwYMEC+//3vW94QDX7p0qVGmG644QZbQdau3flXeAwaNMhCaffee6+p8kc/+pGkpeP6vvhCPgnuWmYf5FRQ6GyHNKSAscBlHS4Z6c2lrR47qLkmpRrbZnbD7ITwWcZZV/XF16r+70AICKNPUnQwkDCDRmYSGPH6BAUDk53VyuL6uOHbZ7U2UnRCMcKW4IqPa6FNZqs7vVS9d+RIBeWwLh+n7bW1kMl7pUWLCrf7oaMl5mVANvQJNunqWQh7I+Iq8/vVCw9nscoHSSB0FBTaBDPuYg1bxDFfiHpC1oKcKBKEg0KIiPA7bdN4/tmCN4gQGbrHy0L/LVN9Hld94k1gWXZcSwutH2PRkaNa97MePAgdeW3oKVM9QOFCmB6v3j4NrSFzWrmGsbXdEyIj5BR4l+Imb9uzYehDIX0SsqXuLEAJE1zGJcYnxmeW1RPWRe/IyCTWVkSmaKmYnsaYnTcArvHdmKYaMMgbuu6662TevHmycaPuV6MGMyjk/BAWI+x1/fXX2woyiMyePXvMY0Se0JIlS2Tu3LkahsqwVWaQp0RSlfhYSBjL+vPy8uzTsmWrevPA4J7tqauLMITkjhQrWcAYkmhKvdifJlwYdHpoIh8rcFjdUrT/kGzasddWbxDnj+tMhb2QGDx37T2kg+dhWyq/bdd+/RzQJdeFVQZaQkyDNEGV3Kh1mjeFW5t9T7ie+7yfvhL1l8zvaTp4klCLDlltdVANPf9mvyFCJOgpXMhDYaXVct1jCl3u0/yUtZt3afJ4jhGHCo9aMiWo/2dBftmjh3AKsjLT7qork1oqMYDEY5QCT0T9P/3i7gj+7KPEDIU8tgPa5wgXkc93tKRU5els8gSFLS6G6woz2i05RQd1UrNMVxF26ph1jqG9uJrV/9X0LxYtoA+S/dn/CVK+QPfigdSxmixcyGukP87Q1XJMWth2gByq3t3zLHQU17GoQHOgGGN2MxYdPGLjy0Zd9EB+Jon+4bA0bXR4f92WRccptjtBTvDI0RWFkKQ4j0XnbSEVTMiIfFSf8z4/pj+mjGcI/CAlAwcOtERqQmWQocCzw9J68mj4zrJ8krKDpfTsJUTuD/lEEKNrrrlG+vbta8vyG7LQKdlkj6XGGMK/vDTfZlusSmEFUhslOAt1czqMJnvUsGEdy3mnz14pL89YbrMYEgKnTR5iycZxLRC1brohG4Mnq8IydXBl3w48JQN040UGGpKOIXvMxMcO7WlL6dmrByO0RX/HKA1QkhTnUuEZamVLqjfpMvK/vDxPMjPSZa8OuugT+RYokc1SGVkNyOqx8cN6mT7ZgwkjsleX20/RJefoOs6FpG8MBcSNTULzdBPN264ZaSsgITcMshjTrUp6WUXHqsh+PfPlwzeMMbmZXbN9RGJeXJxkxqBnad9jUrJ0zXZ54uX5RuogOqwKZJ8hNpuELJAkT9udMqaf6fONOaska2Ur26dmzGDdnDKBTMRJTupCDh96geBh/J94aZ5ZSsh8t87tzROyWFd5IiP9mNVyRbpJIXI++8YS89ziYWF1WaaSwrgWJhm2klVXwv31rD7pq2x9wESGbQTwbOWqPlurHJeN7iOvv7vKtg2gbTNuDdYNcRM33IyrvDXVK3KfUOQPqEmyCz+eUmQIsgMhmjx5sjz++OOydu1aS36mrFu3zjZU7Nixo4XEDh06JMXFxZKdnW0EifDY7Nmz7Vw8RuQCBcwe7w/kib/JZvs87+qJA3V/khW2Pw0z6QkjetmurxiUpTrYYkhwU2NA8aSwW/WiVVssgbFX1zy55aoRZmjjWiBtrA47ooPlX5UgYAAxMJeP7mvLlYON9/p0P2OD0DA1siyBnTGPAYjBKV0+euM4G4TiXtAncpHs/qbqk1DDGN0Qc2j/rjbrXGz6xDOSZsvvR+tvkAWIAQShQHfDZY8afotzoS0iJ8QPWdgs8oYpQ7TKFfkyEAkIPiuRWJ7OBposZ77lquGWYPvcm0tsY824F9ruOCWstNmXdT8w9In3Z8TAbtYn31i3ynZTx8sL4Rmn20BgUNHzUfUksPLsA0oSmQzEuTDWpGsY/uYrh8kLun/UdCUA6JSxiN3D8V6zVxYeIsJFLEEfpphABt/RfcEYtyD8118+xLzUcS3oc4RuXVKi8jzz2iLTJ/t/jdGNIiG+7PMFYYL8QXjou+t1o9t5ujnocvXYI9sNuvdZL91s1EvjQiClyBDQE+K68cYbbZNGyFBQIEPPP/+87WYNqWF2Sk4QOUQs2X/mmWeMELHJI+eE3biEy771rW9JYaHunNoq+bs499OZNftYfPLDU8wlT34FXiOSZO6+ZYKFS+jE1DlfycOX7rvWOjH5RfyGVyWubulAP8wmr588WKYq8WPgRB4GHOp/g3q2KBAJJhTIc6sazRuvGGrncoyci3BIIrhvHP9CUHllw8dvm2jZlsgZyPoJPYauyKHiL0vwP3PXlVX0Sb5FOHchjjJC4P71p89U6ow6kvvDqkZrmKq0cPiLjQvnKPkJQn+cZ+emQMFjcFf+ePVqjT1Hnx+9abzpEX0hG949NqEkQddgUBxaqNeFXdfjXuhfTMJ4TQ6LNKgxx5qR06fC9NY9zcJjEROab3765ko9gwFtN+5jUUF+tnzw2lFy69UjTC7qTf4m488HrxtdoU9VHHIwgbnr5vHyEdX92WZtKwWbNkmpDJNqm178W2S11Y7sYKzIEF6cO++8s8JInE1sxhv0n//5n+bxodBA2S/on/7pn4zYdO7c2QgSoa+hQ4fascC7w/24jnyiT3/603ZvEuBY/hkuhN0gRJzXEIXO2KJp9apoqoNLuAQdtCHqeTHPpN4QPCN5CaW6/Ug4FseluYl1r+67GUbdiC+tmqXFiYmlqapPyHhdQlysJAzv4VIdbnE9ZgRA22Oi7qhvtcfUWFan+7jKF64XY2eLUB5U5W9qOYPNJYNjtPNUfD9XnfVZg+5TQZ811hEm5GyoCjzVW+AaEYz2B8gIK7fCBWOBhycofCcMxr5D4UJyNZ+aCrlGXhwBR8ARcAQcAUfAEUhEIPV9fYkS+XdHwBFwBBwBR8AROA8C7hZKBCdWnqHEyvl3R8ARcAQcAUfAEahPBCqIEBuhRlWiu3NUNda81Ohu7Xd2BBwBR8ARcAQcgbghYClDqchYIgTSw2QRguu3dgQcAUfAEXAEHIH4I+BkKP468ho6Ao6AI+AIOAKOQIQIeJgsQnD91o6AI+AIOAKOQJwQCFbVe5SsqlacDMWplXpdHAFHwBFwBByBZCDgbKgKyh4mS0aj82c4Ao6AI+AIOAKOQGwRcDIUW9V4xRwBR8ARcAQcAUcgGQh4mCwZKPszHAFHwBFwBByBuCDAu9ci3GcoLmLWpR5OhuqClp/rCDgCjoAj4Ag0AgR8n6GqSvQwWSNo1C6CI+AIOAKOgCMQFwRSkWg5GYpL6/F6OAKOgCPgCDgCjkCDIOBhsgaB3R/qCDgCjoAj4Ag0DALBXkMN8/R4PtXJUDz14rVyBBwBR8ARcATqH4GzTCgVQ1n1D8Z7d/QwWZTo+r0dAUfAEXAEHAFHIPYIuGco9iryCjoCjoAj4Ag4AvWNgG9BHUbUPUP13b78fo6AI+AIOAKOwCWNQOoRLfcMXdIN1oV3BBwBR8ARuNQQsLSh1OMrkarJPUORwus3dwQcAUfAEXAEHIG4I+CeobhryOvnCDgCjoAj4AjUMwLuGKoKqJOhOjaw0tKTsnXbDnnl5RfreOUFnn5GpPRUqTRv1lyaNmvcjrzy8nI5feq0pLVIUxdu4+2qp0pPmS6bNWt2gY2i7peVl5+RskNbJKvJvrpffIFXnFF9lp46JS1atEiqPksPNk9e/1RsTqmMTZuoPpsnT58XqJKLuuzMmTNC222epmNR08Y9FpWVlUt5WZmNRckqWzZvklb9+yfrcZE+JxVHbydDdWwSDOybNq6X//v5T+t45YWdfvr0adm8ebPk5uZKu3btLuwmKXLV4cOHZdeuXVJYWCjp6ekpUuu6VRODgj7btm0rOTk5dbv4Is/O1etzCy7yJnW4/NixY7Jlyxbp0amHtGzZsg5XXuSppRuS1j+pKTIiX15e3kVWPN6Xnzhxwtpuly5dpHXr1vGu7EXW7sCBA3Lw4EHp0aNH0ogfzxw2dMhF1rx2l3vO0Lk4ORk6F5PzHvnCF74gf//3f5+0DnLo0CH58pe/LB/+8Ifl2muvPW/dUv3Hd955R37yk5/ID37wAykoSKLVTiJwZTrbRJ+TJ0+W22+/PYlPTv6jli5dKt/4xjfkwQcflH79+iW/Akl64r/8y79I79695Z577knSExvmMRs3bpSvfOUr9hk9enTDVCJJT3322WflxRdflB/+8IdJI/J4xlu1apUkCf0xiQg4GUpE5H2+451JpocGT1RaWppkZWVJx44d36d2qf0zuDZv3ty8YI1VVsgQXq82bdo0WhmDVti+fXubNPC3seoTWTMyMi4JfeK5JbSbnZ3dqPWJThlvGXvx9jVWgtJEUjGYFZ2Na9yB3+hw8zs7Ao6AI+AIOAKpiYDzoHP05p6hcyCJ1wFm1szEGmsOTRhtZETWZCYWN4S2mXUmNYemIYTUZ+LRJC8Kb19jLuR/NVbvQVhv9Ev0iV4be8Hbh6e6MS/kiNQxlIJkq3GPUo2gx+Kqveqqq6Rbt26NQJrzi5Cfny/Tpk2TzMzM85+Ywr8yuF5++eXSq1evFJaidlXHcN58881GcBtzGT9+vHTo0KExi2iyQfpuuOGGRh8iQ1YWcVxxxRWNnsg3+kZbBwGdDNUBrIY4FW/J1VdfbTkJjb106tTJyFBjXqmCpw8ydCl4Esj9uhTI0Lhx4yy/pLEXPJqQoWSvgmwIXFlFRr5QY/ZqpqDzJtKm4GQoUngv/uYYTzwml0IhdHQphI8aczJxuJ1C5FmG3djLpeAVQoeExxrrKs/ENsqErLFOymxZfaLA/l2cDHkjcAQcAUfAEXAELiUElA1Fua9tKpItJ0NJ6gBstseHpdUkIgY7uAbHEqvB7+SXBAl87EHBJ1w4h091v3Ee9+Z6npfMRMDq6hPIwyaS4brw7+A36su1/A1K8HsgTyIGwfEAi2TIiQ6pR3VyUB9+p4RxD+QKyxrIG5Y1kLc6DIPzEu8dPl7f/0aWsD64f1DHoO0mYs81nBN83k+viToPy8A9kpFQTx0T9UE9kC34LbFetWm31L86DIN7JUu+4HnhuiBXuA0HuuVvWOeBvvlbnS4DHLguaPthrIJ/B+2kut/q81hi30mUM/ieKFcgc7jdJsoTXEN9a2q33Cc8xtenbH6v6BBwMhQdtlXuvHfvXpk9e7b87Gc/k49//ONy/fXXWx7Q/v375Xvf+55s2rTJ9ragEF5gg0USp8m7YH+Pp59+Wt59911hE0Y6KEmp5NeQf/LGG2/IzJkzZd++9161wDl8HzJkiHzxi1+0UFvU8W8GAer6yiuvyNtvv227SZMbg5xjxoyxjekeeughS8Qkx4Lf+vbtK3fffbeQL7Rhwwb529/+JqtXr5aTJ0/agEJI6VOf+pQNwrNmzZLXX3+9Cq7Hjx+3nWLZlHLq1KnSs2fPyDX6yCOPyOOPPy6dO3eufNbw4cPlIx/5iOnz4YcftpACeh46dKjJQb0XLFhgekXmPXv2mDwvv/yyyYa+CjVpE52zIeMf/vAHmTt3rpSUlFQ+A1kZgNHl17/+denatWtkskJa0eUTTzxh9QZjQpi0IXJkBg0aJNSHTeloyzfeeGNlUvivfvUrO2/SpEnSp08fYfPFV199VZYsWVIpK+2BBFXCaD/+8Y+trfBai6AcOXLE+gHJybTfqAt95YUXXpA5c+ZIcXGxkSCe/7GPfUxWrVol8+fPl6NHj5peOQ4Gt9xyi7VPfke/6CvQ5bBhw+TKK680nP77v/9bNuvOzbTpoAT3on2wMSXPi7LQbnjmL3/5S9MD+mUs4bnoldVTtNOxY8fajtpbt241HXIMHTDO0D7R5XPPJTGRrwAAHchJREFUPWe/B6SDnEZ0SVv9v//7P2s3/EahXaNL+jx40UeiLLTJt956S/74xz/aY3g27Qq9EfaCzNBHgzH2jjvusDEWmRlD0RGykC/EOEQ/BKfS0lLDib5Lv0afjLucExRk5fmM9d/61rfsPnFdecceQ77PUNWW6GQoyp4ZundRUZHMmDFDduzYIcuWLbMdeRkI6WQ7d+40coMxZzClg61bt84GEAZUBloGH+L1EyZMsIGGrfHpxAxikAwGNQY7Cp0SQ7t79247ziAQ9WDLc5EF47lt2zYjCiNGjDDSwyBJHcAA0nfnnXdanSEEELzBgwfbv9evX28fBmSIEgM2gwn3YPAaOHBgFUKHAWNgX7RokW3sl6wYP/pigLz33nsrNYxRRxfBKyiQB0NJnTEoDMAMoBgKBmeIMQYWQ0O90SkyBwM2RpR/gykFLBh8wQ8iEXXCLvX//e9/b7rDAIAvukA+2hIYUNDX9OnTjcwGK+S2b99eeS71fuqpp0zmyy67zAwKx7gfeCEzbRqjxXHaP+dihOgTyXjFBTpZs2aNyQGpDRKEqQ99ECyQm9+Qk/ZNf4T0Q8LZqRj9Qv5YCUn9WZaNrGBGewabQD7+/uUvf7HzkpUPCAmgzYwcOdLaJeQW0kD9+uv7sJB55cqVsnjxYiPZEBz6nL13TfWNfjDyv/nNb2xlK4Sd+yELmASTGwgAY1NAlMDut7/9rWGQjFWFELju3btX7tYPuWXcIa+LvgYOTz75pI2PjJPIwSQUEgMhp73zYfyFwKNH+jC6DDw+yIrM9MPwKl/6AvelTYNdMsbcygHoQv6RirGsC5Gzltc4GaolUBdzGgMDxGTFihU2w2IgYvCFDFEYQNnenhkH5+IdWbhwoRk+DAiEAcPItVOmTLFrGJjo+HQ8ZqF8KBhPfoNQQZa4Phk7ZvNcZIS4DRgwwDwFgXzUB2PBDJqB57rrrjPDASmEFDDwcA6DFjLdeuutNthwT4wQgw+GE8PBjJzCIM1MjvviTWGQT9YqFwY5BkH0FS4YAQZbDD2kd/ny5YYJsoQLdQcLZP7mN79ZaSSCgRgMGLj5BIW2gwGmrdx0001mpKMq1INXLzz//PPmGbnmmmvM44YxwGuCBw/cOQ+doLe1a9cK71YKGzzOBxN0zD0gwegfAwoBCYg68gQFQk+7wAuBEYIoRV0gthBVSByv26Et0Q+RD4OJIYTcU0+IAwQcLxKTG1bLQWohjMhHX0M+yAPyBx6IQAaMLu2CayAl9GfaTNSFZ9CH6CsUZEWX1I86oBd0DjmCIIA7/8ZTQv+kTaLf1157Tf7jP/7D+nAwYWE8C4j8Bz/4wUpRIEKQEcgJkzomPVEX6sz4w4fCd9or7emjH/2otTnkpE0yvtBuGScTC54iiOEnPvEJ64ecQ1tGJjzdfGfFWVDABjLNs8CY35IR3k2st3+/cASi9c1eeL0a1ZUMgHQiOgwGlIGJWQQDLQMmAy9Gn98xMng86EgYPH5nQOIazmcA49zqXgvCuQxMDEC4sxkQmOElo2DcMGLUkdBcQIR4NrMyvFrhTcyQhwGUQQN8gvAfhgeDiDEBFzCACDIYhwsYMbMFRwwYxiqZgw8DKfrig04wnEEJ5IXEzZs3z3QSLlyLbGCAbpGVvxgrDGR4Rsl5/EaYlGdNnDjR8AWnqErgpQvCQUHokfpCdiDueEnAGy8CZA+dQRLQf1CCuiMP/0bPgWcM45tI0rkWI02oBQzxJiQj7Ak5BWOIJn+pI3/BmDqCQ7igI9okfTUgwPS9sHwYTEhxuCAfBBhPCW0fYk8YMRlk6HxthbrjFYHgQXIgg7TdgEDR3tADOKFz5GAMQuf8G2KQ6JWFEEL6aLe0FdpMOKx8vvpE/Rty0WaRldAmZA8MEnVFP6Xt0rfpoxTae2J7oG3T9pnABpO5S2EVZdR6Svb93TOUBMSDmTQDAjOUYJbBbBQDyKD6pz/9yTwdDKgYemLreHWCmSUhi5deeslmywxOeIkINYUHITovHgRedsosFcOZ2HGjEpcBA88FA16ikavumQyWyM0AgqyQJwalRx991LxazMDBC4NY3SwLvCAh5OBgUKIOG4VloO7U+7777rPDyEt4gJlnUKg/nz//+c/nGHSMLmFSyCOyo09CisiKhy9sHBmEGbAht8zW2ecl6gIxhXiBa21IF20RQ/nMM89U8WZhOCE9GFdmzW+++abJyndm23jXwrJChHhZL/r/9re/beclo+DdwrMDUeGlqxh+9EEdAw9DuB54E+ijeDyQj7YLMedFrYF8EB1CY2H58BISRiEc9Y//+I9J8XrVBj90R/+F2OFdrW7TU/oXIUvGlJ/+9KeWM4fc6IhjkOSwrHi+abf0cV5MzLgXpwKhpS999atftX6aKDNjK54s8rn4N3odNWqUedEgssHECyJEu4FIQg7RK0S4oQlubbCO3h9Zm1rE5xwnQ0nQBQMDHYbQEB0FQwhBwlWOgYPQMPDSORmYmFEx82Iw+dCHPmSdkM7FfRhcIA1ByO0DH/iAdU4KBhpCxSDM/fDGJKtTMrOCjOGWrslDA4nAiJCATOIws28MLoaHvwxQXEuICYOMLBhHcnPADOyYtSMnBhNDhfs9WYQvaCrMFjGE999/vx3i+YnJzMhC3g9kCNKL3sLXQyAwIITLIDzIhF75EHqBJGOcaCd4Sphd036SkXfBAM+MnzoEXipyhCA05MvQRiEQwUwfY4G+aLd46jCskATaHjNl8mrQFaEH9AepR07CMXwotHfCweic0BykP9HbUAlgPf8DOTGIGD5C0xBB+hoe1ttvv928JsgFCWAig77wXBH6Q/eEdSFQhF/4jVAx8jGZ4RwKmJDbRn7RbbfdZqQ3ylBnXSAKvNPoHX2FPZPBfdAlZIjFDOgZTJiM0L4hh+Q7Qhi4FxiQT0WbIUEZ0gvGcSrojfZLuyTMy2QjXJiAoXs8PIxZeHchPCwM+Yd/+Acjd2BCuyVZm/4CAaYdMQamQtHqewkh4GQo4uYQxKWJP9MBSSZl8AgMJEl4zL4ZSBgkGUzoULjSMQ4YEgwrcWjOYcDlQxIgHRjSw0AMgYA8MQBxHzpzbWb19SU+gygGENkw4ucrgZHEowIpYFaOkecDgcNo8kF+VjIhF8aH2SnHGYD5DklkUEp2wVjgZscIhktYbggqA2ng8cIrEC7oB0LB77QF3Ox8CCtgWDAeHMeTgLeQ2TftojpDVd/y005pOxA4iE+48B0SD/4QcQp6JCQEJiR5YzxoCxR0jYyQR9ombRfiR9sN8lM4j2MQfGborDrC8CaLyIMp8kBC8U7h4aR+kBpySzhGXTiPvxh3+iKeS8g7xA0yDEFAZ7TZIGQckCG+MwbQT1gFmsyJiiniPAW50AV1g7QxZlXnaUU3jDeQXzChr6M3cKKtgwkTHAgDpJL2gPy0pWTp8jxiVvkJmakXkykIeLBAJTiJ9gthZWKJLJBh9MpKOlZPMibTF2gn9Af6J5OVZBH42spZ03lOhM5FxsnQuZjU2xFmWhgUBkkGDtyoDAoc598YfwaPcLya3zEcHGPGwl+MLAMVAyiDDjNOSAEDF4MSAzEdGi8C5+BhSobRDAPFQImBZ+ZLvalb4LFi0GCApTCzxqOCDOGC1yiYmUKO8AQx4FCQC88D2ATk6Pvf/36lx6zKjWL0BZLA7PJ3v/udeQrQKyXwoqEjjvGBMPAdEhwk4EICMcaE0pjBJmugpd6QEdoYxIb2xyyafDdmyGCPhyhcMJAYyl//+tfWpgvPklR0iu5pH8iAXiERbA1A22VGjbeIdkObIUk52USBOvCh0JcgO0wwaL+Ev8AAwkNYFEIaJgqBfJBX2i0fPJ3f/e53jRjxO/KReAwZhECi72R7M6soK+ELRAgvVaBzMICoB2NVkBeF3OiScYt+jD7xhpBkjOeb3yD9TFYgERCNZKwGPJ9s5/sNIguBwfuMJxAdhscs+iG44JWlfzL2Pvvss+Y5ZDxiXGdyS2iRNo13O3VKtEvrU9Hp5AnUEbZeBlgSaJllfOYzn5G//vWvtvScvyT9YnQYaDEeQcFQMgthYKGT0SGZMTPIQCoYXIOEbL4TOmKQ5Z7cjz176OTJnokFgwYDKx4OSEtQSMhl5sUgEiZ+YegZTIMQBbhxHgMOsoED98VLwswMLAlBJcb5I1TlBd2agRXvFUYE/eG9o6BviAbyBgUCidHEyECKILfMOjEmGFA8F8kqkFCMOu2LFVMYiqDQLmmTiYVrIAwQGogSkwD0yHdCmrQBCscgCbRP+gUhFVZPIj/G9QrNvUp226UO1BlyFvRFwh/oh/4VGMhEmemLEAUmOhhGCu2WeyEn/ZH70WbRNwSBHLfqvC6J9072d8guxJ26QsKDSRryBZ48iDB9m3ZKYRxiokI/5AN+eKy5BnJA249zoZ1Rb3KD0BWEFZkoQegswIHjjF/IHoTr8QhBpO666y7zinlJbQTcMxSh/hgQyTtgxsHsIry6hJk0nhSSTskbwVgQQmAwZXBmdsyshXtwnPAJgxFEB2OEwSThFm8BxoRBiXtAKsLxeZ7DAMxMPcpYNvWhLg888IANpiRCk+SMR4vBH0MZzDargxzjA3HEExLkHGGMMUSs+oAYMfgwMDOI8e9gds35QSJn4JGo7hnJPkY9wZxQIPpBNxSMKPkjEB70yzkMupAD8qOQmT1OCD9AMv/5n/+5kiAgK+d98pOfjGyPGp6B94LkUnD++c9/bu2NetE+CS8gU7jwO0SO0CGbLob3vEIWyDCFe6NrPC94B9ErewrRtmm/4U3saDeQXjwPURbaGX2MWT/yoTf0gk4InWHwAs9mYj3QJWEh6s216BL56L/kA0IM2FMIMgQGEIagcC4ECV0m25ObKAdklvA6hdww8rqC8YI6Qm7QEWMNBDeoL/8mFEb/g+Ti2aSw4IP7BIUxieRjQoRxKuga0gahJSyPPim0RfIa8erSZoNJHN5R8CDkSbuGNP3iF7+wPhnWIRMYPIQQp7gWFd1LCAEnQxE2BzpRQIISXagYbYw8gyRGhBJ4OuhUuGWZbXAPzmWAZbZN56VjBisccFnzO6EUBvDEREU8CxxLxmybukLQMGJ4swLyBkmC+OFmJjkWQ5FYMPqEJ/CUIQcyggdGmdAEnpUgvypxyTLPxXuUrBk3Ri4IeYXlgPgxw2bQD+95RL0xrAycYIBc/EUuSAPX8QGjYEPFYCCFgIRJLLKCZ5TEFpnQB3lqEE6IHPWEBFFPjAH1p02xnxT/pjDw06bRHcaVDzqh7XMfMAhkxXjiCcL48ByuoZ3ye1CQMRl7R/FciDohPMgLdaG+tDP0gVzIj3cO/IMSkF2IXeAl4nfqTd/lg/wQR+QN8AuuR9ZkevwqK35WV7Rj6kBuD+0MvaIL+i5kgHGID7jQZ8EJcoqHhD7KtYF8jEHITj4N7RP8wuSA7w2RME4fA+PwarfE/otsEDommfQ7xmPaKu0zyHdCFrxHjOe0Fa6hnzNOg10imaXNJB4L49+Q/4YDRc6DIn9A/SPYRDt+1Q0W6v8ZfkdHwBFwBBwBR8ARiAECP/jBv8u+g4fln7/1UGS1+coXPi0Tx4+zSEGqFM8ZShVNeT0dAUfAEXAEHAFHIBIEPEwWCax+U0fAEXAEHAFHIL4IaJTbSwgBJ0PeHBwBR8ARcAQcgUsMARbXe3kPAQ+TeWtwBBwBR8ARcAQcgXpEIPWIlpOhelS/38oRcAQcAUfAEYg7AqlHVaJH1MNk0WPsT3AEHAFHwBFwBOKBwNm19Z4zVFUdTobi0Ty9FpcgAuzmy0tr2deEPVrYx4VXIbAxHXu11Mc+JbwTiw3l2EOG/X7YTZq9nHjvEnv4hPf1CauA/XbYSZk6cB57rFxIYf8dXjTLjtbs75K4DxY7e7DpIRsb8gJQ9tJiT5pgw0X2deHZP/nJT+z6xNe4XEid/BpHwBGIdq+hVPQ8eZjMe4Uj0EAIsGMvO9zyyhF2HWcXZF50yqZ3fA8XSMOFbAnGKyUgGmycyEZy7KQM0Ql22q1JdDb5ZJddyFTwKo2azj3fcZ7De8cgftXt4sxrDtilnZ3HeX8bO1IjO7t18/oS/kKW2Pl45cqV53uU/+YIOAK1RCAVyUotRbvg09wzdMHQ+YWOwMUhEOxq+5WvfMV2FOf1HLya4s0337TdetnhOHhJJkSCXW3ZEZfdkIP31OHZ4Ri74HI+hIffOZ/78+8w8eE9TFzLLth4o/g3hITXKlC4B/fjHUy8HgUPTbATNN4qnse5XBPcl3sFuytzjGupR3C/6t5lxm+ciycI7xi7VfO2enZApg4QMEgiOx0nFu5XXFxcuVM5coZ3PUYmSFWwkzn1p454nMCTugfEDPnADo8VZJO68xt1ox5gHrz2heMQtUBusGBn4/Cu1Il19e+OgCOQGgg4GUoNPXktLwEEeP0DpAiPCF4Q3k3Gi1Ix9BzjhZATJ060974RUsJw81oQwmq8fw6jjjfn8ccfN08M70vCoGOwg4KHBQ/MRz/6UQud4Z165ZVX5IUXXjAjz7N4NQG/8T48Cu+Y4rUU99xzj72GgPdWUTdet0L54Ac/KFdffbX9Bln43//9X3s/Hc9GHkhNdQVSxfu6kJV3mhEG4xpKODQX9ihBhHgp6g9+8AN7zxfkhnPBZvz48SYz7/r70Y9+ZEQLUsbrMngJKSE23kKPp4pnQmJ4Z95NN90kV+gLYsHzl7/8pWGHHBCl+++/314xA+Hi5cO8dw2iRSksLJR/+7d/c0JUnXL9WLwROJs3FO9KJrd2ToaSi7c/zRGoFgGICO984l11vPsIQ42xhwR94QtfMM8FxhmyQ4HM8J3wFy+UxKjjCeEFsBj1z372s0YsIDKQn6DgKYLEBB4kiAGEhBdQkptDPXjXGF6PcePGmVcIbxL/5r1rnA8BueGGG+x8iAF1or68p4wXDxNiu/LKK42o8U45iFbwNvCw8NSF97Xx7ijypvAuBYX7BR6XMBmClOA1g9xwHC8Qz/jjH/9oZIy6IS9y3HnnnUaUIIm8f4tzITrc40tf+pL95ZnUk3AcJBPiCLkDb/QB8eMciCoeO3AI3i/HcT4BgQvL5v92BOKOgO8zVFVDTobi3mK9fo0WAcIyEIfnn3/ewkSQEow4b9HGGGOsMcJ4LTDSeDXIr8HjgXHHiwMRwBNCsjPHMeq88JUXZnIv7gnBSiz8BtHiOkJIkBtIBoQhCFPh1SFEhMcGrwueHDxVHIN8UfCg4KWCNEGy8BhRfzxFeGTWr19vYbDq8p0gM9yT50LsaksqIEk8DyLG9chMXhQeIzDhGFiAIVhAtJARskh4DRJG+AsMwZdrIJW8tZ66U1eOcS7eoOAFwTyP43ifwAaixTNqW+9EHfh3R8ARiA8CTobiowuvySWGAIQEw41nByOLcWX1FKEwCAxGF68FxyEAGH1WhmHMMcx4bwgb4bHhbxCO4s3i/AZhwFvCCrXEAjEgLwevCb8Hq8WC/JjE8/lOfQmr4VWCbAQkAPIAqUAWSAUhL54LAaEuELnqVq0FpIb7VZcbVF0dIFCQHggknjO+gwfeMIgZnho8a9yPpGww463reLeQsVu3bpXeKggNpI6/eJRWr15t9QR7ZEMudIAcyIAs3DMgYKyQ475OiKrTlB9zBFILASdDqaUvr20jQgAygNfi3//93y1HBwMcEAT+jWHGYxIu5KmQIzR69GgjUEHhPEJOEIMoC4SIEN0nPvEJI1tBoa6sXKuLlwTvDB4xyAdkhnvjDTtfwRNGuAoid++995rHCu/T3XffbZdBXCZPniwDBgwwrw6r8/Bmcd7HPvYxue+++8xrRThx1qxZFvbDizZixAgjP1/+8pdl0qRJlSE6joEteoFIkXdEWPC1116z0By5S5ApnuvFEUgVBCxlyJeUVVHX+UeeVNGs19MRSFEEIA94M/DQ8DcxXBQmF3iA8FBg4PFkBHv24CXCQ0IuCwUSQLgLTwmeHMhCYsG4E8aCPPE7ew9BRsjtwVPD79SH+/ChcAySgVeI0Bx15hN4ZjgfTwukiA/Pnz9/fuXy+MQ6cC11hghyHvUOwmmE3NgTiU+4ICehRcgH4TXqypYEkCN+o/588FQR3oPo9O/f3+5DffCgkaM0ZcoUI1PIBInkfhAiziN0GKwwox4BJlxP2G3q1Kly+eWX2zPwTlWXD5Uoq393BOKGQJBDHcXfVHztmXuG4tZCvT6OQA0IQBogLaz+euKJJ8xgQ2AgUCQv8zvGGU/Iww8/bMcJ/VQX+sIDk5eXJ0OGDDFi89vf/tY8TZADjhECgvjwLJKIIUBs1AgR4J4cW7p0qZEXriGExPnUg5VkJFLj9YEoQKaqC5NxjDqQsEwdSLTmWo5zDb9BZMIFAgQhwTtDHSA25D4hI/XAwwS5I4+J+1Bv7kXdwIrtCyCInAt5wjOHx4e/eLy4llV0nIds3IOwJVhzjBAZx8EZMkRIrjp8a1ChH3YELgkEUtHp5GTokmiaLmQcESAXiPANHpXEgqeCXB6McOAdIg+HZF4IEZsh4iGB8JAIjKHHy0LOEblDCxcutCRhDDbEBtKAYecekAN+4xkkZxPuevvtt+0eECJIDF4S7kU4CfLA8wgHEYKCSJCw/O6779o1kAm8TNyTfYIIZXE+9SSsh4wQteoIEc+7+eab7TeSw1kJFuwLRN358LyRI0dablSQV8W5EBK8YuT1sLUAskHy8ObgZQI3viP/ddddZ/JCnCBSwd5HhMRYOo/HjVwnSCZEKliBR73xPnEfcpU4Dn6QMvKFIGvV6S9Rn/7dEXAE4o1AE53lnIl3Fb12joAj4Ag4Ao6AI1AfCPxAcxQPFh+Wbz30b/Vxu2rv8YXP/oOMHzdWHnjggWp/Dw5CP/gwqaIwgQkmMdVdyHnBufzOJOX98gyru091x9wzVB0qfswRcAQcAUfAEWi0CLDLUMMHs8jXY6f7xx57zDywvD8RbzWe3MSCR5YQNgsouA6vMosi8Jbjqb3Y4gnUF4ugX+8IOAKOgCPgCDgCdUIAjxC5guQlko9IiJ1CyB6yEyzc4Bj/ZsNUthaBBHEu+XqkAxCSr4/iZKg+UPR7OAKOgCPgCDgCKYJAw/uExFahshKU3L877rhD7tXVnSzeINeQl1WHV2my2IEFDOwfxkpOziXHj3xGFnLUR/EwWX2g6PdwBBwBR8ARcARSAIGmmpdz+vQp3WH9QGS1xZMDmeGVNkFhsUfw4RgLEiBELIzAy8NCBFaKsms+CyRYnBCEv1jwwMIHXofDylC2FSE89tOf/tTuQx7R/9/eHaS2FQMBGO61DF5643sUCr2Kj9d26Tab7n2E9n+g8sgiJLZCq/IJvEhiC/l7WQySZubRu0OCoXf7dzAxAQIECBD4twQKOr59/fLh86eP77awn793e55+fN/a84wx2vSUXdqoDEY7PWWMjozZsmfL+qxO2f6YrGCnLNEyTQuQxiXrvkvHbWXWls36yBAMPaLnswQIECBAYCGB0+m0lcnYBxuzlz8yvva7NZXsqAzHGOM9+5IbIzusnaDnie79rr9XaqOxzzp7bTufl76nYOglHX8jQIAAAQL/kUDHTL3+9hjV9vd3gwrQerVD9PzYq12ggp6yzhoFS6NeWHM9OlygflTQ5wkQIECAAIE3CdQ4uWOvmil3Qbqdotvttr0qOLuv7N5uUMVlC5xG66CO2QqcCoRmFD4VDL3p8XkzAQIECBAg8KhAFeNLk68qfFXzu/dzvV63lji1wNk3oi5oqgp9PQhLpa8tTo2Wuz9U5f19D8d71+WY7F45nyNAgAABAgTuEuiuUKn0pcdfLpc/94FqA1R7n+oN9Z4yzHpVjHH0ZqzwYplox+NxyzCbMQRDMxTNQYAAAQIECLxaoN2cgp7z+bw1l+7Iq6OwAqR2fOoX2BhNmDs6OxwO245RPQlLr+/n+h/OGHqTzVA0BwECBAgQILCsgDtDyz46CydAgAABAgRmCAiGZiiagwABAgQIEFhWQDC07KOzcAIECBAgQGCGgGBohqI5CBAgQIAAgWUFBEPLPjoLJ0CAAAECBGYICIZmKJqDAAECBAgQWFZAMLTso7NwAgQIECBAYIaAYGiGojkIECBAgACBZQUEQ8s+OgsnQIAAAQIEZggIhmYomoMAAQIECBBYVkAwtOyjs3ACBAgQIEBghsAvaADz7HqP6yQAAAAASUVORK5CYII=;" vertex="1" parent="1">
          <mxGeometry x="506" y="98" width="579" height="531" as="geometry" />
        </mxCell>
      </root>
    </mxGraphModel>
  </diagram>
</mxfile>
